<svg xmlns="http://www.w3.org/2000/svg" xmlns:xlink="http://www.w3.org/1999/xlink" width="500" zoomAndPan="magnify" viewBox="0 0 375 374.999991" height="500" preserveAspectRatio="xMidYMid meet" version="1.0"><defs><g/><clipPath id="id1"><path d="M 119.800781 263.214844 L 168.550781 263.214844 L 168.550781 311.964844 L 119.800781 311.964844 Z M 119.800781 263.214844 " clip-rule="nonzero"/></clipPath><clipPath id="id2"><path d="M 156.636719 263.214844 L 181.386719 263.214844 L 181.386719 287.964844 L 156.636719 287.964844 Z M 156.636719 263.214844 " clip-rule="nonzero"/></clipPath></defs><path fill="rgb(92.939758%, 92.549133%, 92.939758%)" d="M 192.304688 78.15625 C 128.101562 78.15625 76.054688 126.675781 76.054688 186.53125 C 76.054688 246.386719 128.101562 294.90625 192.304688 294.90625 C 256.507812 294.90625 308.554688 246.386719 308.554688 186.53125 C 308.554688 126.675781 256.507812 78.15625 192.304688 78.15625 " fill-opacity="1" fill-rule="nonzero"/><g fill="rgb(100%, 59.999084%, 59.999084%)" fill-opacity="0.4"><g transform="translate(141.564566, 175.064053)"><g><path d="M 15.984375 5.671875 C 29.613281 3.039062 38.703125 -8.425781 40.570312 -22.640625 C 41.527344 -29.890625 42.433594 -35.4375 42.769531 -42.949219 C 42.839844 -45.507812 38.804688 -46.894531 37.023438 -43.910156 C 35.117188 -40.621094 32.113281 -39.097656 28.933594 -38.480469 C 23.210938 -37.375 19.203125 -40.558594 18.183594 -45.828125 C 17.058594 -51.640625 20.675781 -58.277344 27.035156 -59.507812 C 31.941406 -60.453125 33.65625 -56.453125 32.742188 -52.410156 C 32.3125 -50.726562 34.613281 -50.039062 36.429688 -50.390625 C 43.0625 -51.675781 48.796875 -57.589844 47.164062 -66.035156 C 45.707031 -73.578125 39.765625 -77.988281 30.042969 -76.109375 C 12.332031 -72.683594 -0.0625 -52.476562 3.625 -33.398438 C 5.855469 -21.863281 12.425781 -16.632812 19.601562 -18.019531 C 23.78125 -18.828125 26.847656 -21.492188 28.742188 -25.347656 C 29.363281 -26.503906 30.59375 -25.515625 30.277344 -24.230469 C 28.710938 -18.179688 24.820312 -13.941406 18.191406 -12.65625 C 10.195312 -11.113281 2.925781 -14.605469 1.570312 -21.601562 C 1.449219 -22.238281 0.726562 -22.566406 0 -22.425781 C -6.089844 -21.25 -8.941406 -14.574219 -7.574219 -7.488281 C -5.746094 1.960938 3.542969 8.078125 15.984375 5.671875 Z M 15.984375 5.671875 "/></g></g></g><g fill="rgb(100%, 59.999084%, 59.999084%)" fill-opacity="0.4"><g transform="translate(191.797458, 165.351028)"><g><path d="M 40.515625 -33.652344 C 38.949219 -30.054688 36.742188 -28.308594 34.109375 -27.796875 L 33.472656 -27.675781 C 33.800781 -30.847656 33.640625 -34.117188 33.027344 -37.292969 C 30.8125 -48.738281 24.191406 -51.792969 16.742188 -50.355469 C 2.300781 -47.5625 -5.039062 -28.992188 -2.40625 -15.367188 C -0.578125 -5.917969 6.449219 -1.246094 14.625 -2.828125 C 21.4375 -4.144531 27.113281 -9.390625 30.460938 -16.445312 L 31.550781 -16.65625 C 40.363281 -18.359375 43.480469 -26.125 45.042969 -32.171875 C 45.636719 -34.457031 41.308594 -35.410156 40.515625 -33.652344 Z M 16.167969 -22.632812 C 12.714844 -21.964844 11.003906 -23.988281 10.496094 -26.625 C 9.722656 -30.621094 11.859375 -35.652344 16.308594 -36.511719 C 19.851562 -37.199219 21.726562 -35.296875 22.238281 -32.664062 C 22.972656 -28.847656 20.707031 -23.511719 16.167969 -22.632812 Z M 16.167969 -22.632812 "/></g></g></g><g fill="rgb(100%, 38.42926%, 34.509277%)" fill-opacity="1"><g transform="translate(136.773644, 171.825678)"><g><path d="M 15.984375 5.671875 C 29.613281 3.039062 38.703125 -8.425781 40.570312 -22.640625 C 41.527344 -29.890625 42.433594 -35.4375 42.769531 -42.949219 C 42.839844 -45.507812 38.804688 -46.894531 37.023438 -43.910156 C 35.117188 -40.621094 32.113281 -39.097656 28.933594 -38.480469 C 23.210938 -37.375 19.203125 -40.558594 18.183594 -45.828125 C 17.058594 -51.640625 20.675781 -58.277344 27.035156 -59.507812 C 31.941406 -60.453125 33.65625 -56.453125 32.742188 -52.410156 C 32.3125 -50.726562 34.613281 -50.039062 36.429688 -50.390625 C 43.0625 -51.675781 48.796875 -57.589844 47.164062 -66.035156 C 45.707031 -73.578125 39.765625 -77.988281 30.042969 -76.109375 C 12.332031 -72.683594 -0.0625 -52.476562 3.625 -33.398438 C 5.855469 -21.863281 12.425781 -16.632812 19.601562 -18.019531 C 23.78125 -18.828125 26.847656 -21.492188 28.742188 -25.347656 C 29.363281 -26.503906 30.59375 -25.515625 30.277344 -24.230469 C 28.710938 -18.179688 24.820312 -13.941406 18.191406 -12.65625 C 10.195312 -11.113281 2.925781 -14.605469 1.570312 -21.601562 C 1.449219 -22.238281 0.726562 -22.566406 0 -22.425781 C -6.089844 -21.25 -8.941406 -14.574219 -7.574219 -7.488281 C -5.746094 1.960938 3.542969 8.078125 15.984375 5.671875 Z M 15.984375 5.671875 "/></g></g></g><g fill="rgb(100%, 38.42926%, 34.509277%)" fill-opacity="1"><g transform="translate(187.006537, 162.112653)"><g><path d="M 40.515625 -33.652344 C 38.949219 -30.054688 36.742188 -28.308594 34.109375 -27.796875 L 33.472656 -27.675781 C 33.800781 -30.847656 33.640625 -34.117188 33.027344 -37.292969 C 30.8125 -48.738281 24.191406 -51.792969 16.742188 -50.355469 C 2.300781 -47.5625 -5.039062 -28.992188 -2.40625 -15.367188 C -0.578125 -5.917969 6.449219 -1.246094 14.625 -2.828125 C 21.4375 -4.144531 27.113281 -9.390625 30.460938 -16.445312 L 31.550781 -16.65625 C 40.363281 -18.359375 43.480469 -26.125 45.042969 -32.171875 C 45.636719 -34.457031 41.308594 -35.410156 40.515625 -33.652344 Z M 16.167969 -22.632812 C 12.714844 -21.964844 11.003906 -23.988281 10.496094 -26.625 C 9.722656 -30.621094 11.859375 -35.652344 16.308594 -36.511719 C 19.851562 -37.199219 21.726562 -35.296875 22.238281 -32.664062 C 22.972656 -28.847656 20.707031 -23.511719 16.167969 -22.632812 Z M 16.167969 -22.632812 "/></g></g></g><g fill="rgb(100%, 59.999084%, 59.999084%)" fill-opacity="0.4"><g transform="translate(95.503222, 262.65133)"><g><path d="M 29.535156 -75.820312 C 5.464844 -71.167969 -7.082031 -55.640625 -4.203125 -40.746094 C -2.921875 -34.113281 2.144531 -28.875 9.59375 -30.3125 C 18.402344 -32.015625 21.617188 -40.742188 19.210938 -44.421875 C 17.210938 -44.035156 15.40625 -45.574219 14.933594 -48.023438 C 13.316406 -56.382812 21.714844 -61.679688 32.25 -63.71875 C 42.335938 -65.667969 48.671875 -63.59375 50.183594 -55.785156 C 51.695312 -47.972656 47.070312 -42.648438 41.980469 -41.664062 C 37.984375 -40.890625 36.761719 -42.351562 37.328125 -46.230469 L 37.179688 -45.542969 C 37.285156 -47.917969 37.832031 -50.945312 38.421875 -55.207031 C 38.75 -58.378906 37.292969 -60.074219 33.476562 -59.339844 C 30.75 -58.8125 28.980469 -57.242188 28.414062 -53.835938 C 27.625 -49.632812 26.796875 -44.664062 26.042969 -40.277344 C 23.878906 -28.554688 17.964844 -22.601562 12.96875 -21.636719 C 8.699219 -20.8125 4.808594 -22.886719 4.035156 -26.882812 C 3.914062 -27.519531 3.191406 -27.851562 2.464844 -27.710938 C -4.804688 -26.304688 -8.175781 -17.925781 -6.703125 -10.292969 C -5.261719 -2.847656 0.464844 3.867188 11.09375 1.8125 C 22.902344 -0.46875 30.476562 -12.960938 33.058594 -27.878906 L 33.207031 -28.566406 L 33.058594 -27.878906 L 33.335938 -28.875 C 33.722656 -29.796875 34.363281 -30.390625 35.269531 -30.566406 C 37.539062 -31.003906 39.050781 -28.566406 45.042969 -29.722656 C 61.304688 -32.867188 66.894531 -47.332031 64.71875 -58.59375 C 61.855469 -73.402344 50.425781 -79.859375 29.535156 -75.820312 Z M 29.535156 -75.820312 "/></g></g></g><g fill="rgb(100%, 59.999084%, 59.999084%)" fill-opacity="0.4"><g transform="translate(164.539382, 249.302508)"><g><path d="M 33.15625 -32.230469 C 31.867188 -29.15625 30.511719 -26.914062 27.785156 -26.386719 C 23.699219 -25.597656 21.785156 -27.207031 21.292969 -29.75 C 20.203125 -35.378906 23.371094 -39.949219 22.371094 -45.128906 C 21.421875 -50.035156 11.578125 -54.160156 3.039062 -52.511719 C -1.867188 -51.5625 -4.183594 -46.496094 -3.464844 -42.773438 C -2.832031 -39.5 -1.421875 -38.550781 0.515625 -38.265625 C -0.21875 -33.789062 -1.472656 -28.078125 -2.722656 -25.292969 C -3.570312 -23.339844 1.078125 -21.222656 1.804688 -23.8125 C 2.675781 -27.089844 4.480469 -33.847656 5.414062 -37.796875 C 9.308594 -37.136719 10.929688 -35.09375 11.105469 -34.1875 C 11.949219 -29.828125 7.242188 -20.058594 8.875 -11.609375 C 9.769531 -6.976562 13.261719 -2.5625 20.710938 -4.003906 C 32.972656 -6.375 35.742188 -25.191406 37.683594 -30.75 C 38.351562 -32.671875 34.1875 -34.691406 33.15625 -32.230469 Z M 33.15625 -32.230469 "/></g></g></g><g fill="rgb(100%, 59.999084%, 59.999084%)" fill-opacity="0.4"><g transform="translate(200.420015, 242.364633)"><g><path d="M 40.515625 -33.652344 C 38.949219 -30.054688 36.742188 -28.308594 34.109375 -27.796875 L 33.472656 -27.675781 C 33.800781 -30.847656 33.640625 -34.117188 33.027344 -37.292969 C 30.8125 -48.738281 24.191406 -51.792969 16.742188 -50.355469 C 2.300781 -47.5625 -5.039062 -28.992188 -2.40625 -15.367188 C -0.578125 -5.917969 6.449219 -1.246094 14.625 -2.828125 C 21.4375 -4.144531 27.113281 -9.390625 30.460938 -16.445312 L 31.550781 -16.65625 C 40.363281 -18.359375 43.480469 -26.125 45.042969 -32.171875 C 45.636719 -34.457031 41.308594 -35.410156 40.515625 -33.652344 Z M 16.167969 -22.632812 C 12.714844 -21.964844 11.003906 -23.988281 10.496094 -26.625 C 9.722656 -30.621094 11.859375 -35.652344 16.308594 -36.511719 C 19.851562 -37.199219 21.726562 -35.296875 22.238281 -32.664062 C 22.972656 -28.847656 20.707031 -23.511719 16.167969 -22.632812 Z M 16.167969 -22.632812 "/></g></g></g><g fill="rgb(100%, 59.999084%, 59.999084%)" fill-opacity="0.4"><g transform="translate(243.658457, 234.004054)"><g><path d="M 40.515625 -33.652344 C 38.949219 -30.054688 36.742188 -28.308594 34.109375 -27.796875 L 33.472656 -27.675781 C 33.800781 -30.847656 33.640625 -34.117188 33.027344 -37.292969 C 30.8125 -48.738281 24.191406 -51.792969 16.742188 -50.355469 C 2.300781 -47.5625 -5.039062 -28.992188 -2.40625 -15.367188 C -0.578125 -5.917969 6.449219 -1.246094 14.625 -2.828125 C 21.4375 -4.144531 27.113281 -9.390625 30.460938 -16.445312 L 31.550781 -16.65625 C 40.363281 -18.359375 43.480469 -26.125 45.042969 -32.171875 C 45.636719 -34.457031 41.308594 -35.410156 40.515625 -33.652344 Z M 16.167969 -22.632812 C 12.714844 -21.964844 11.003906 -23.988281 10.496094 -26.625 C 9.722656 -30.621094 11.859375 -35.652344 16.308594 -36.511719 C 19.851562 -37.199219 21.726562 -35.296875 22.238281 -32.664062 C 22.972656 -28.847656 20.707031 -23.511719 16.167969 -22.632812 Z M 16.167969 -22.632812 "/></g></g></g><g fill="rgb(100%, 59.999084%, 59.999084%)" fill-opacity="0.4"><g transform="translate(286.896889, 225.643477)"><g><path d="M 18.445312 -75.65625 C 8.457031 -73.722656 2.976562 -62.582031 -0.0429688 -47.015625 L -6.128906 -45.835938 C -8.308594 -45.414062 -10.972656 -37.738281 -2.523438 -39.371094 L -1.253906 -39.617188 C -1.878906 -35.066406 -2.363281 -30.261719 -2.722656 -25.292969 C -3.835938 -7.644531 -3.722656 0.71875 4.722656 -0.914062 C 13.625 -2.632812 11.003906 -12.777344 10.28125 -21.871094 C 9.898438 -26.792969 9.433594 -34.050781 9.589844 -41.054688 C 14.835938 -41.691406 19.375 -42.101562 19.101562 -42.046875 C 22.738281 -42.75 22.210938 -51.316406 19.757812 -50.84375 L 10.21875 -49 C 11.023438 -55.5625 12.960938 -60.648438 16.867188 -61.402344 C 19.046875 -61.824219 20.492188 -60.691406 21.074219 -57.695312 C 21.210938 -56.96875 21.878906 -56.4375 23.242188 -56.699219 C 30.328125 -58.070312 32.890625 -78.449219 18.445312 -75.65625 Z M 18.445312 -75.65625 "/></g></g></g><g fill="rgb(100%, 38.42926%, 34.509277%)" fill-opacity="1"><g transform="translate(90.712301, 259.412955)"><g><path d="M 29.535156 -75.820312 C 5.464844 -71.167969 -7.082031 -55.640625 -4.203125 -40.746094 C -2.921875 -34.113281 2.144531 -28.875 9.59375 -30.3125 C 18.402344 -32.015625 21.617188 -40.742188 19.210938 -44.421875 C 17.210938 -44.035156 15.40625 -45.574219 14.933594 -48.023438 C 13.316406 -56.382812 21.714844 -61.679688 32.25 -63.71875 C 42.335938 -65.667969 48.671875 -63.59375 50.183594 -55.785156 C 51.695312 -47.972656 47.070312 -42.648438 41.980469 -41.664062 C 37.984375 -40.890625 36.761719 -42.351562 37.328125 -46.230469 L 37.179688 -45.542969 C 37.285156 -47.917969 37.832031 -50.945312 38.421875 -55.207031 C 38.75 -58.378906 37.292969 -60.074219 33.476562 -59.339844 C 30.75 -58.8125 28.980469 -57.242188 28.414062 -53.835938 C 27.625 -49.632812 26.796875 -44.664062 26.042969 -40.277344 C 23.878906 -28.554688 17.964844 -22.601562 12.96875 -21.636719 C 8.699219 -20.8125 4.808594 -22.886719 4.035156 -26.882812 C 3.914062 -27.519531 3.191406 -27.851562 2.464844 -27.710938 C -4.804688 -26.304688 -8.175781 -17.925781 -6.703125 -10.292969 C -5.261719 -2.847656 0.464844 3.867188 11.09375 1.8125 C 22.902344 -0.46875 30.476562 -12.960938 33.058594 -27.878906 L 33.207031 -28.566406 L 33.058594 -27.878906 L 33.335938 -28.875 C 33.722656 -29.796875 34.363281 -30.390625 35.269531 -30.566406 C 37.539062 -31.003906 39.050781 -28.566406 45.042969 -29.722656 C 61.304688 -32.867188 66.894531 -47.332031 64.71875 -58.59375 C 61.855469 -73.402344 50.425781 -79.859375 29.535156 -75.820312 Z M 29.535156 -75.820312 "/></g></g></g><g fill="rgb(100%, 38.42926%, 34.509277%)" fill-opacity="1"><g transform="translate(159.748461, 246.064133)"><g><path d="M 33.15625 -32.230469 C 31.867188 -29.15625 30.511719 -26.914062 27.785156 -26.386719 C 23.699219 -25.597656 21.785156 -27.207031 21.292969 -29.75 C 20.203125 -35.378906 23.371094 -39.949219 22.371094 -45.128906 C 21.421875 -50.035156 11.578125 -54.160156 3.039062 -52.511719 C -1.867188 -51.5625 -4.183594 -46.496094 -3.464844 -42.773438 C -2.832031 -39.5 -1.421875 -38.550781 0.515625 -38.265625 C -0.21875 -33.789062 -1.472656 -28.078125 -2.722656 -25.292969 C -3.570312 -23.339844 1.078125 -21.222656 1.804688 -23.8125 C 2.675781 -27.089844 4.480469 -33.847656 5.414062 -37.796875 C 9.308594 -37.136719 10.929688 -35.09375 11.105469 -34.1875 C 11.949219 -29.828125 7.242188 -20.058594 8.875 -11.609375 C 9.769531 -6.976562 13.261719 -2.5625 20.710938 -4.003906 C 32.972656 -6.375 35.742188 -25.191406 37.683594 -30.75 C 38.351562 -32.671875 34.1875 -34.691406 33.15625 -32.230469 Z M 33.15625 -32.230469 "/></g></g></g><g fill="rgb(100%, 38.42926%, 34.509277%)" fill-opacity="1"><g transform="translate(195.629093, 239.126259)"><g><path d="M 40.515625 -33.652344 C 38.949219 -30.054688 36.742188 -28.308594 34.109375 -27.796875 L 33.472656 -27.675781 C 33.800781 -30.847656 33.640625 -34.117188 33.027344 -37.292969 C 30.8125 -48.738281 24.191406 -51.792969 16.742188 -50.355469 C 2.300781 -47.5625 -5.039062 -28.992188 -2.40625 -15.367188 C -0.578125 -5.917969 6.449219 -1.246094 14.625 -2.828125 C 21.4375 -4.144531 27.113281 -9.390625 30.460938 -16.445312 L 31.550781 -16.65625 C 40.363281 -18.359375 43.480469 -26.125 45.042969 -32.171875 C 45.636719 -34.457031 41.308594 -35.410156 40.515625 -33.652344 Z M 16.167969 -22.632812 C 12.714844 -21.964844 11.003906 -23.988281 10.496094 -26.625 C 9.722656 -30.621094 11.859375 -35.652344 16.308594 -36.511719 C 19.851562 -37.199219 21.726562 -35.296875 22.238281 -32.664062 C 22.972656 -28.847656 20.707031 -23.511719 16.167969 -22.632812 Z M 16.167969 -22.632812 "/></g></g></g><g fill="rgb(100%, 38.42926%, 34.509277%)" fill-opacity="1"><g transform="translate(238.867536, 230.765679)"><g><path d="M 40.515625 -33.652344 C 38.949219 -30.054688 36.742188 -28.308594 34.109375 -27.796875 L 33.472656 -27.675781 C 33.800781 -30.847656 33.640625 -34.117188 33.027344 -37.292969 C 30.8125 -48.738281 24.191406 -51.792969 16.742188 -50.355469 C 2.300781 -47.5625 -5.039062 -28.992188 -2.40625 -15.367188 C -0.578125 -5.917969 6.449219 -1.246094 14.625 -2.828125 C 21.4375 -4.144531 27.113281 -9.390625 30.460938 -16.445312 L 31.550781 -16.65625 C 40.363281 -18.359375 43.480469 -26.125 45.042969 -32.171875 C 45.636719 -34.457031 41.308594 -35.410156 40.515625 -33.652344 Z M 16.167969 -22.632812 C 12.714844 -21.964844 11.003906 -23.988281 10.496094 -26.625 C 9.722656 -30.621094 11.859375 -35.652344 16.308594 -36.511719 C 19.851562 -37.199219 21.726562 -35.296875 22.238281 -32.664062 C 22.972656 -28.847656 20.707031 -23.511719 16.167969 -22.632812 Z M 16.167969 -22.632812 "/></g></g></g><g fill="rgb(100%, 38.42926%, 34.509277%)" fill-opacity="1"><g transform="translate(282.105968, 222.405102)"><g><path d="M 18.445312 -75.65625 C 8.457031 -73.722656 2.976562 -62.582031 -0.0429688 -47.015625 L -6.128906 -45.835938 C -8.308594 -45.414062 -10.972656 -37.738281 -2.523438 -39.371094 L -1.253906 -39.617188 C -1.878906 -35.066406 -2.363281 -30.261719 -2.722656 -25.292969 C -3.835938 -7.644531 -3.722656 0.71875 4.722656 -0.914062 C 13.625 -2.632812 11.003906 -12.777344 10.28125 -21.871094 C 9.898438 -26.792969 9.433594 -34.050781 9.589844 -41.054688 C 14.835938 -41.691406 19.375 -42.101562 19.101562 -42.046875 C 22.738281 -42.75 22.210938 -51.316406 19.757812 -50.84375 L 10.21875 -49 C 11.023438 -55.5625 12.960938 -60.648438 16.867188 -61.402344 C 19.046875 -61.824219 20.492188 -60.691406 21.074219 -57.695312 C 21.210938 -56.96875 21.878906 -56.4375 23.242188 -56.699219 C 30.328125 -58.070312 32.890625 -78.449219 18.445312 -75.65625 Z M 18.445312 -75.65625 "/></g></g></g><g clip-path="url(#id1)"><path fill="rgb(100%, 59.999084%, 59.999084%)" d="M 144.175781 263.214844 C 144.175781 276.675781 133.261719 287.589844 119.800781 287.589844 C 133.265625 287.589844 144.175781 298.5 144.175781 311.964844 C 144.175781 298.5 155.089844 287.589844 168.550781 287.589844 C 155.089844 287.589844 144.175781 276.675781 144.175781 263.214844 Z M 144.175781 263.214844 " fill-opacity="1" fill-rule="nonzero"/></g><g clip-path="url(#id2)"><path fill="rgb(100%, 59.999084%, 59.999084%)" d="M 169.011719 263.214844 C 169.011719 270.046875 163.472656 275.589844 156.636719 275.589844 C 163.472656 275.589844 169.011719 281.128906 169.011719 287.964844 C 169.011719 281.128906 174.554688 275.589844 181.386719 275.589844 C 174.554688 275.589844 169.011719 270.046875 169.011719 263.214844 Z M 169.011719 263.214844 " fill-opacity="1" fill-rule="nonzero"/></g></svg>