<svg xmlns="http://www.w3.org/2000/svg" xmlns:xlink="http://www.w3.org/1999/xlink" width="500" zoomAndPan="magnify" viewBox="0 0 375 374.999991" height="500" preserveAspectRatio="xMidYMid meet" version="1.0"><defs><clipPath id="id1"><path d="M 12.578125 71.058594 L 362.738281 71.058594 L 362.738281 304.292969 L 12.578125 304.292969 Z M 12.578125 71.058594 " clip-rule="nonzero"/></clipPath></defs><g clip-path="url(#id1)"><path fill="rgb(90.979004%, 39.219666%, 34.118652%)" d="M 151.25 237.109375 C 151.257812 237.246094 151.269531 237.382812 151.28125 237.519531 L 151.027344 237.109375 C 151.097656 237.109375 151.175781 237.109375 151.25 237.109375 Z M 358.59375 187.054688 C 353.199219 182.628906 346.179688 184.386719 344.03125 185.078125 C 338.269531 183.148438 326.613281 180.933594 317.636719 190.058594 C 317.488281 190.042969 317.34375 190.019531 317.195312 190.007812 C 309.527344 189.339844 303 192.9375 300 194.964844 C 297.167969 190.296875 291.523438 186.855469 284.085938 188.695312 C 283.75 188.78125 283.421875 188.878906 283.097656 188.980469 C 277.488281 182.59375 269.832031 174.910156 265.113281 170.261719 C 254.183594 150.664062 240.441406 128.199219 227.601562 110.648438 C 231.039062 102.832031 230.910156 93.171875 227.210938 86.371094 C 224.367188 81.132812 219.703125 77.949219 213.730469 77.152344 C 209.5625 76.601562 205.023438 77.324219 200.242188 79.304688 C 199.28125 79.699219 198.28125 80.175781 197.320312 80.628906 C 197.230469 80.671875 197.144531 80.707031 197.058594 80.75 C 196.101562 80.535156 189.4375 79.132812 182.480469 80.316406 C 181.601562 79.53125 180.769531 78.667969 179.917969 77.78125 C 177.09375 74.839844 174.171875 71.796875 169.058594 71.179688 C 164.039062 70.574219 158.96875 72.277344 155.417969 75.503906 C 152.074219 74.941406 141.75 73.675781 134.054688 77.746094 C 126.320312 81.835938 116.375 92.671875 90.75 133.992188 C 89.425781 136.109375 58.355469 186.039062 58.355469 201.699219 C 58.355469 204.921875 59.730469 207.953125 62.332031 210.472656 C 65.230469 213.28125 69.453125 215.175781 74.390625 215.964844 C 74.148438 216.488281 73.917969 216.996094 73.691406 217.488281 C 67.625 216.234375 63.300781 218.019531 61.339844 219.132812 C 54.296875 214 48.671875 212.277344 44.621094 214 C 41.953125 215.128906 40.679688 217.4375 40.082031 219.109375 C 34.269531 217.691406 29.769531 218.214844 26.699219 220.679688 C 23.136719 223.539062 22.761719 228.046875 22.746094 229.660156 C 21.625 231.535156 17.253906 238.847656 15.707031 241.605469 C 12.402344 247.515625 11.710938 252.289062 13.652344 255.789062 C 15.597656 259.300781 19.570312 260.34375 21.484375 260.652344 C 25.589844 268.488281 33.464844 268.371094 37.820312 267.003906 C 39.914062 268.175781 42.011719 268.765625 44.082031 268.765625 C 45.207031 268.765625 46.324219 268.59375 47.429688 268.246094 C 53.359375 266.386719 57.125 260.003906 58.425781 257.445312 L 59.84375 257.445312 C 60.910156 261.835938 63.273438 264.78125 66.878906 266.214844 C 74.617188 269.285156 85.605469 263.945312 89.433594 261.039062 C 93.628906 257.855469 96.003906 254.070312 96.5 249.789062 C 97.148438 244.226562 94.375 239.515625 93.117188 237.699219 C 94.332031 233.074219 91.882812 229.042969 89.023438 226.113281 C 89.671875 224.652344 90.464844 222.863281 91.347656 220.867188 C 93.648438 222.175781 96.285156 223.085938 99.160156 223.511719 C 99.230469 223.519531 99.300781 223.519531 99.371094 223.53125 C 100.003906 226.140625 101.417969 228.585938 103.527344 230.625 C 107.515625 234.46875 113.449219 236.550781 120.347656 236.550781 C 120.730469 236.550781 121.113281 236.542969 121.5 236.53125 C 124.039062 236.800781 127.53125 236.984375 131.765625 237.089844 L 147.390625 262.375 C 147.457031 263.550781 147.542969 264.703125 147.652344 265.796875 C 148.351562 272.65625 150.996094 281.660156 156.148438 285.246094 C 157.511719 291.765625 160.484375 295.90625 163.371094 298.488281 C 168.023438 302.648438 174.128906 304.28125 179.542969 304.28125 C 182.023438 304.28125 184.359375 303.941406 186.339844 303.335938 C 206.21875 297.300781 203.859375 279.761719 202.445312 269.285156 C 202.261719 267.90625 202.085938 266.601562 201.972656 265.449219 C 201.40625 259.664062 202.453125 253.941406 203.46875 248.402344 C 204.285156 243.960938 205.105469 239.4375 205.050781 234.933594 C 218.574219 234.101562 231.882812 233.0625 243.511719 231.871094 L 282.550781 242.976562 C 282.269531 247.339844 283.050781 251.726562 285.273438 254.933594 C 287.070312 257.519531 291.277344 261.3125 299.703125 258.765625 C 301.53125 261.414062 306.632812 267.027344 317.042969 267.027344 C 317.199219 267.027344 317.355469 267.023438 317.511719 267.019531 C 318.832031 268.566406 322.21875 271.949219 327.113281 272.71875 C 327.785156 272.828125 328.460938 272.882812 329.136719 272.882812 C 332.316406 272.882812 335.496094 271.707031 338.621094 269.375 C 349.070312 261.578125 357.210938 232.429688 359.457031 223.679688 C 363.140625 209.339844 364.847656 192.183594 358.59375 187.054688 " fill-opacity="1" fill-rule="nonzero"/></g><path fill="rgb(92.939758%, 92.549133%, 92.939758%)" d="M 313.453125 255.898438 L 313.144531 255.613281 C 312.941406 255.445312 312.75 255.296875 312.582031 255.140625 C 312.40625 254.992188 312.238281 254.875 312.0625 254.785156 C 311.894531 254.679688 311.742188 254.554688 311.589844 254.449219 C 311.265625 254.261719 311.035156 253.921875 310.777344 253.691406 C 310.535156 253.414062 310.246094 253.25 309.933594 253.046875 C 309.332031 252.65625 308.46875 252.335938 307.765625 251.730469 C 307.410156 251.4375 307.195312 251.039062 306.9375 250.667969 C 306.796875 250.484375 306.636719 250.308594 306.425781 250.144531 L 306.082031 249.910156 C 306.039062 249.863281 305.917969 249.851562 305.695312 249.863281 L 305.265625 249.90625 L 304.589844 250.007812 C 304.382812 250.097656 304.152344 250.207031 303.972656 250.300781 L 303.605469 250.53125 C 303.421875 250.667969 303.339844 250.785156 303.34375 250.859375 C 303.320312 251.027344 303.289062 251.207031 303.277344 251.371094 C 303.265625 251.703125 303.300781 252.015625 303.394531 252.3125 C 303.574219 252.902344 303.875 253.433594 304.074219 254.039062 C 304.496094 255.230469 304.996094 256.558594 305.984375 257.5625 C 306.457031 258.082031 307.042969 258.503906 307.691406 258.804688 C 308.367188 259.058594 309.046875 259.289062 309.746094 259.40625 C 310.089844 259.464844 310.425781 259.558594 310.769531 259.578125 C 311.117188 259.59375 311.460938 259.589844 311.808594 259.542969 C 312.148438 259.527344 312.488281 259.398438 312.816406 259.269531 L 313.300781 259.039062 C 313.453125 259.003906 313.628906 258.714844 313.773438 257.5 C 313.652344 256.265625 313.566406 255.957031 313.453125 255.898438 Z M 72.402344 189.109375 L 71.851562 188.65625 L 71.183594 188.425781 L 70.746094 188.328125 C 70.503906 188.292969 70.363281 188.320312 70.292969 188.382812 C 70.132812 188.496094 69.976562 188.609375 69.832031 188.730469 C 69.550781 188.976562 69.304688 189.246094 69.109375 189.542969 C 68.71875 190.132812 68.425781 190.765625 68 191.347656 C 67.164062 192.511719 66.199219 193.671875 65.636719 195.039062 C 65.328125 195.707031 65.113281 196.4375 65.003906 197.179688 C 64.929688 197.949219 64.878906 198.710938 64.871094 199.503906 C 64.863281 199.886719 64.851562 200.285156 64.890625 200.691406 C 64.925781 201.097656 64.941406 201.480469 65.070312 201.902344 C 65.183594 202.316406 65.320312 202.710938 65.515625 203.105469 L 65.863281 203.683594 C 65.941406 203.878906 66.277344 204.042969 67.53125 203.953125 C 68.746094 203.527344 69.039062 203.359375 69.066406 203.21875 L 69.277344 202.796875 C 69.414062 202.523438 69.585938 202.238281 69.679688 201.980469 C 69.769531 201.726562 69.902344 201.441406 69.980469 201.175781 C 70.066406 200.914062 70.136719 200.644531 70.257812 200.367188 C 70.441406 199.820312 70.71875 199.277344 70.957031 198.734375 C 71.214844 198.183594 71.351562 197.609375 71.492188 197.007812 C 71.78125 195.820312 71.816406 194.476562 72.089844 193.1875 C 72.214844 192.539062 72.5 191.957031 72.707031 191.34375 C 72.8125 191.035156 72.882812 190.707031 72.910156 190.355469 C 72.921875 190.179688 72.925781 190 72.921875 189.816406 C 72.933594 189.730469 72.875 189.605469 72.714844 189.425781 Z M 78.433594 181.035156 C 78.945312 180.195312 79.359375 179.308594 79.726562 178.398438 C 80.492188 176.597656 80.945312 174.644531 81.550781 172.765625 C 81.847656 171.820312 82.28125 170.945312 82.632812 170.027344 C 82.808594 169.570312 82.945312 169.09375 83.039062 168.59375 C 83.082031 168.34375 83.121094 168.089844 83.148438 167.832031 C 83.175781 167.707031 83.128906 167.550781 82.988281 167.347656 L 82.695312 167.003906 L 82.167969 166.542969 L 81.484375 166.414062 L 81.03125 166.398438 C 80.78125 166.410156 80.632812 166.472656 80.550781 166.570312 C 80.367188 166.753906 80.1875 166.9375 80.023438 167.128906 C 79.6875 167.511719 79.394531 167.910156 79.144531 168.335938 C 78.640625 169.175781 78.222656 170.0625 77.664062 170.878906 C 76.566406 172.515625 75.3125 174.082031 74.371094 175.796875 C 73.882812 176.648438 73.445312 177.523438 73.101562 178.445312 L 72.125 181.230469 C 71.796875 182.15625 71.441406 183.074219 71.210938 184.046875 C 71.085938 184.53125 71.003906 185.035156 70.929688 185.542969 L 70.84375 186.316406 C 70.78125 186.554688 70.9375 186.90625 71.925781 187.65625 C 73.125 187.96875 73.5 187.878906 73.652344 187.679688 L 74.203125 187.132812 C 74.558594 186.761719 74.902344 186.386719 75.203125 185.988281 C 75.824219 185.203125 76.324219 184.359375 76.851562 183.527344 Z M 178.941406 293.195312 C 178.726562 293.058594 178.519531 292.910156 178.324219 292.746094 C 178.125 292.585938 177.925781 292.460938 177.730469 292.320312 C 177.546875 292.160156 177.355469 292.03125 177.171875 291.894531 C 176.441406 291.34375 175.726562 290.886719 175.105469 290.292969 C 174.480469 289.71875 173.929688 289.074219 173.449219 288.367188 C 173.195312 288.003906 172.921875 287.652344 172.644531 287.296875 C 172.390625 286.976562 172.132812 286.652344 171.878906 286.316406 C 170.847656 284.890625 169.601562 283.363281 168.722656 281.5625 C 168.617188 281.347656 168.519531 281.128906 168.433594 280.902344 C 168.160156 280.199219 167.976562 279.460938 167.761719 278.730469 C 167.707031 278.539062 167.636719 278.351562 167.570312 278.160156 C 167.464844 277.871094 167.351562 277.582031 167.21875 277.292969 C 167.105469 277.054688 166.980469 276.816406 166.855469 276.578125 C 166.804688 276.457031 166.6875 276.347656 166.414062 276.246094 C 166.320312 276.199219 166.183594 276.164062 166.03125 276.125 C 165.792969 276.066406 165.5 276.007812 165.121094 275.949219 C 164.511719 276.121094 164.101562 276.300781 163.882812 276.464844 C 163.636719 276.628906 163.542969 276.785156 163.523438 276.933594 C 163.453125 277.230469 163.398438 277.527344 163.355469 277.824219 C 163.3125 278.183594 163.300781 278.542969 163.308594 278.898438 C 163.308594 279.125 163.316406 279.351562 163.339844 279.578125 C 163.414062 280.285156 163.546875 280.984375 163.679688 281.6875 C 163.765625 282.128906 163.851562 282.574219 163.917969 283.027344 C 163.988281 283.449219 164.0625 283.875 164.140625 284.304688 C 164.5 286.238281 165.011719 288.21875 166.046875 290.042969 C 166.683594 291.136719 167.445312 292.203125 168.421875 293.078125 C 168.425781 293.085938 168.433594 293.085938 168.433594 293.09375 C 169.410156 293.976562 170.535156 294.714844 171.6875 295.359375 C 172.832031 296 174.066406 296.503906 175.34375 296.722656 C 175.980469 296.847656 176.632812 296.871094 177.273438 296.84375 C 177.597656 296.835938 177.914062 296.800781 178.230469 296.753906 C 178.535156 296.742188 178.90625 296.488281 179.378906 295.121094 C 179.328125 293.65625 179.167969 293.304688 178.941406 293.195312 Z M 120.160156 139.113281 L 120.265625 139.835938 C 120.382812 140.734375 120.484375 141.636719 120.730469 142.535156 C 120.761719 142.671875 120.8125 142.808594 120.851562 142.941406 C 120.953125 143.253906 121.0625 143.570312 121.1875 143.886719 L 121.484375 144.558594 C 121.527344 144.730469 121.746094 144.90625 122.476562 145.078125 C 122.695312 145.128906 122.957031 145.179688 123.28125 145.234375 C 124.675781 145.007812 125.015625 144.785156 125.074219 144.558594 L 125.371094 143.886719 C 125.546875 143.433594 125.710938 142.984375 125.828125 142.535156 C 126.074219 141.636719 126.175781 140.734375 126.292969 139.835938 L 126.632812 137.496094 L 126.683594 137.140625 C 126.789062 136.238281 126.773438 135.339844 126.699219 134.441406 C 126.664062 133.855469 126.574219 133.269531 126.472656 132.683594 C 126.425781 132.398438 126.378906 132.117188 126.320312 131.832031 C 126.152344 130.996094 125.96875 130.164062 125.816406 129.328125 C 125.796875 129.234375 125.777344 129.140625 125.757812 129.046875 C 125.753906 129.007812 125.75 128.964844 125.742188 128.925781 C 125.609375 128.136719 125.59375 127.347656 125.519531 126.558594 C 125.515625 126.488281 125.511719 126.417969 125.503906 126.347656 C 125.457031 125.898438 125.355469 125.449219 125.203125 124.996094 C 125.128906 124.773438 125.035156 124.546875 124.9375 124.324219 C 124.902344 124.210938 124.777344 124.097656 124.527344 123.988281 L 124.050781 123.816406 L 123.28125 123.648438 L 122.503906 123.816406 L 122.03125 123.988281 C 121.78125 124.097656 121.65625 124.210938 121.621094 124.324219 C 121.519531 124.546875 121.429688 124.773438 121.355469 124.996094 C 121.199219 125.449219 121.097656 125.898438 121.050781 126.347656 C 120.972656 127.078125 120.960938 127.808594 120.871094 128.542969 C 120.847656 128.707031 120.828125 128.878906 120.796875 129.046875 C 120.667969 129.785156 120.503906 130.523438 120.351562 131.265625 C 120.15625 132.195312 119.988281 133.125 119.902344 134.054688 C 119.890625 134.183594 119.867188 134.3125 119.859375 134.441406 C 119.78125 135.339844 119.765625 136.238281 119.875 137.140625 Z M 121.492188 118.578125 L 121.675781 119.453125 C 121.695312 119.671875 121.871094 119.914062 122.585938 120.195312 C 122.800781 120.28125 123.0625 120.367188 123.382812 120.460938 C 124.859375 120.339844 125.214844 120.136719 125.316406 119.894531 L 125.722656 119.199219 C 125.976562 118.738281 126.207031 118.28125 126.398438 117.824219 C 126.902344 116.960938 127.15625 116.039062 127.585938 115.214844 C 128.03125 114.402344 128.433594 113.578125 128.976562 112.882812 C 129.433594 112.128906 129.898438 111.4375 130.308594 110.683594 C 131.222656 109.300781 132.101562 107.753906 133.476562 106.554688 C 134.144531 105.929688 134.988281 105.589844 135.792969 105.175781 C 136.210938 105.007812 136.609375 104.753906 137.019531 104.511719 L 137.632812 104.105469 C 137.851562 103.96875 137.980469 103.628906 138.144531 102.332031 C 137.972656 101.714844 137.765625 101.3125 137.59375 101.097656 C 137.40625 100.851562 137.234375 100.773438 137.082031 100.761719 C 136.769531 100.707031 136.449219 100.671875 136.140625 100.667969 C 135.753906 100.652344 135.378906 100.691406 135.007812 100.746094 C 134.773438 100.78125 134.539062 100.816406 134.3125 100.867188 C 133.234375 101.171875 132.207031 101.605469 131.171875 102.0625 C 131.078125 102.101562 130.984375 102.140625 130.890625 102.183594 C 129.316406 102.851562 127.742188 103.726562 126.371094 104.859375 C 125.765625 105.355469 125.199219 105.902344 124.691406 106.507812 C 123.441406 107.945312 122.695312 109.675781 122.1875 111.425781 C 122.007812 112.046875 121.855469 112.671875 121.722656 113.28125 C 121.453125 114.453125 121.332031 115.632812 121.28125 116.8125 C 121.289062 117.042969 121.316406 117.273438 121.34375 117.5 C 121.382812 117.863281 121.4375 118.222656 121.492188 118.578125 Z M 218.960938 168.710938 C 218.679688 168.1875 218.324219 167.753906 217.933594 167.367188 C 217.082031 166.535156 216.050781 165.992188 215.136719 165.601562 C 214.457031 165.316406 213.867188 164.949219 213.210938 164.738281 C 213.03125 164.679688 212.839844 164.644531 212.644531 164.625 C 212.488281 164.609375 212.332031 164.601562 212.171875 164.605469 C 211.984375 164.621094 211.792969 164.65625 211.609375 164.683594 C 211.523438 164.683594 211.398438 164.777344 211.246094 164.984375 L 210.988281 165.398438 C 210.882812 165.605469 210.765625 165.867188 210.667969 166.105469 C 210.632812 166.359375 210.585938 166.640625 210.546875 166.863281 L 210.492188 167.347656 C 210.472656 167.601562 210.484375 167.734375 210.53125 167.785156 L 210.765625 168.15625 C 210.921875 168.394531 211.097656 168.5625 211.273438 168.714844 C 211.636719 168.992188 212.023438 169.21875 212.257812 169.59375 C 212.761719 170.34375 212.761719 171.171875 212.8125 171.574219 C 212.828125 171.683594 212.863281 171.777344 212.863281 171.878906 C 212.859375 171.984375 212.976562 172.050781 213 172.167969 C 213.046875 172.28125 213.136719 172.398438 213.21875 172.527344 C 213.269531 172.671875 213.308594 172.839844 213.347656 173.003906 C 213.367188 173.085938 213.394531 173.171875 213.410156 173.261719 C 213.40625 173.359375 213.40625 173.457031 213.410156 173.558594 C 213.421875 173.761719 213.449219 173.972656 213.511719 174.210938 C 213.546875 174.449219 213.582031 174.722656 213.648438 175.007812 L 213.761719 175.457031 C 213.761719 175.59375 214.015625 175.851562 215.175781 176.640625 C 216.449219 177.175781 216.824219 177.171875 216.941406 177.054688 L 217.417969 176.734375 C 217.714844 176.503906 218.019531 176.273438 218.25 175.980469 C 218.472656 175.679688 218.664062 175.347656 218.835938 175.007812 C 218.921875 174.839844 219.003906 174.664062 219.082031 174.492188 C 219.148438 174.304688 219.203125 174.105469 219.257812 173.910156 C 219.363281 173.515625 219.492188 173.117188 219.585938 172.699219 C 219.632812 172.261719 219.695312 171.8125 219.707031 171.359375 C 219.742188 170.910156 219.609375 170.4375 219.5 169.988281 C 219.402344 169.53125 219.195312 169.109375 218.960938 168.710938 Z M 328.777344 192.847656 C 328.441406 192.359375 328.136719 192.070312 327.917969 191.941406 C 327.675781 191.78125 327.511719 191.765625 327.371094 191.800781 C 327.308594 191.8125 327.25 191.832031 327.1875 191.847656 C 326.960938 191.890625 326.738281 191.941406 326.523438 192.007812 C 325.972656 192.179688 325.472656 192.4375 325.003906 192.742188 C 324.851562 192.847656 324.703125 192.957031 324.558594 193.066406 C 324.257812 193.285156 323.96875 193.519531 323.695312 193.761719 C 323.269531 194.121094 322.851562 194.484375 322.441406 194.863281 C 320.761719 196.320312 319.15625 198.035156 318.148438 200.078125 C 317.066406 202.09375 316.851562 204.386719 316.753906 206.542969 C 316.691406 207.625 316.746094 208.695312 316.871094 209.757812 C 316.964844 210.289062 317.128906 210.8125 317.292969 211.328125 L 317.578125 212.097656 C 317.636719 212.351562 317.933594 212.605469 319.269531 212.800781 C 320.605469 212.503906 320.902344 212.269531 320.964844 212.039062 L 321.25 211.34375 C 321.421875 210.886719 321.570312 210.433594 321.6875 209.988281 C 322.023438 209.117188 322.132812 208.230469 322.398438 207.394531 C 322.671875 206.5625 322.917969 205.730469 323.289062 204.96875 C 323.585938 204.171875 323.855469 203.410156 324.097656 202.617188 C 324.652344 201.09375 325.074219 199.433594 325.964844 197.964844 C 326.386719 197.210938 327.023438 196.648438 327.613281 196.046875 C 327.847656 195.828125 328.066406 195.578125 328.277344 195.320312 C 328.339844 195.242188 328.410156 195.164062 328.472656 195.085938 L 328.878906 194.546875 C 329.027344 194.363281 329.03125 194.023438 328.777344 192.847656 Z M 166.476562 230.683594 C 166.710938 230.152344 166.925781 229.625 167.117188 229.097656 C 167.316406 228.570312 167.628906 228.109375 167.847656 227.601562 C 168.050781 227.082031 168.371094 226.644531 168.617188 226.148438 C 168.753906 225.910156 168.847656 225.636719 169.007812 225.410156 L 169.46875 224.71875 C 169.757812 224.226562 170.132812 223.8125 170.507812 223.382812 C 171.246094 222.507812 172.15625 221.796875 173.050781 220.992188 C 173.523438 220.628906 173.976562 220.195312 174.472656 219.820312 C 174.710938 219.609375 174.960938 219.421875 175.214844 219.234375 C 175.492188 219.0625 175.636719 218.710938 175.644531 217.300781 C 174.992188 216.058594 174.476562 215.886719 174.113281 215.953125 C 173.722656 215.984375 173.324219 216.019531 172.945312 216.089844 C 172.167969 216.207031 171.417969 216.425781 170.671875 216.683594 C 169.21875 217.253906 167.839844 218.058594 166.597656 219.066406 C 165.964844 219.558594 165.335938 220.0625 164.789062 220.664062 C 164.210938 221.238281 163.617188 221.808594 163.164062 222.484375 C 162.125 223.761719 161.484375 225.289062 160.933594 226.800781 C 160.726562 227.570312 160.535156 228.347656 160.363281 229.125 C 160.21875 229.90625 160.222656 230.691406 160.15625 231.464844 L 160.109375 232.621094 C 160.097656 233.003906 160.15625 233.386719 160.175781 233.761719 L 160.316406 235.636719 L 160.34375 236.011719 C 160.433594 236.671875 160.511719 237.328125 160.589844 237.976562 C 160.683594 238.761719 160.785156 239.542969 160.894531 240.316406 C 160.898438 240.332031 160.902344 240.347656 160.902344 240.359375 C 161.078125 241.0625 161.304688 241.753906 161.578125 242.425781 C 161.71875 242.761719 161.871094 243.09375 162.03125 243.421875 C 162.097656 243.589844 162.230469 243.742188 162.503906 243.859375 C 162.75 243.988281 163.175781 244.070312 163.78125 244.097656 C 164.324219 243.796875 164.6875 243.542969 164.871094 243.332031 C 165.082031 243.113281 165.152344 242.933594 165.15625 242.761719 C 165.191406 242.421875 165.214844 242.082031 165.230469 241.746094 C 165.253906 241.222656 165.230469 240.707031 165.1875 240.195312 C 165.179688 240.058594 165.171875 239.921875 165.15625 239.785156 C 165.15625 239.140625 165.117188 238.496094 165.09375 237.851562 C 165.070312 237.222656 165.066406 236.59375 165.132812 235.972656 L 165.214844 235.496094 L 165.453125 234.128906 C 165.519531 233.824219 165.550781 233.515625 165.636719 233.222656 L 165.929688 232.363281 C 166.121094 231.800781 166.238281 231.210938 166.476562 230.683594 Z M 200.972656 210.628906 C 201.074219 210.691406 201.1875 210.738281 201.308594 210.761719 C 203.15625 211.125 204.785156 211.28125 206.234375 211.28125 C 209.59375 211.28125 211.9375 210.433594 213.5625 209.355469 C 214.535156 208.714844 215.246094 207.992188 215.765625 207.320312 C 216.730469 206.0625 217.015625 204.984375 217.023438 204.953125 C 217.160156 204.390625 216.820312 203.832031 216.261719 203.691406 C 215.699219 203.546875 215.128906 203.886719 214.984375 204.445312 C 214.945312 204.585938 214.4375 206.371094 212.3125 207.714844 C 210.421875 208.902344 207.25 209.734375 201.988281 208.75 C 201.898438 208.730469 201.808594 208.714844 201.714844 208.699219 C 201.441406 208.640625 201.171875 208.707031 200.953125 208.84375 C 200.71875 208.992188 200.539062 209.234375 200.480469 209.527344 C 200.394531 209.972656 200.605469 210.40625 200.972656 210.628906 Z M 202.5625 200.652344 C 203.238281 200.652344 203.914062 200.632812 204.589844 200.605469 C 216.886719 200.035156 227.589844 194.257812 235.667969 183.878906 C 236.003906 184.757812 236.164062 185.804688 236.132812 187.023438 C 236.113281 187.800781 236.722656 188.441406 237.5 188.460938 C 237.507812 188.464844 237.523438 188.464844 237.535156 188.464844 C 237.90625 188.464844 238.242188 188.316406 238.496094 188.078125 C 238.757812 187.832031 238.925781 187.484375 238.933594 187.097656 C 238.957031 186.261719 238.902344 185.488281 238.785156 184.757812 C 238.511719 183.0625 237.871094 181.644531 236.863281 180.519531 C 236.828125 180.476562 236.785156 180.433594 236.746094 180.390625 C 236.652344 180.292969 236.566406 180.1875 236.46875 180.09375 C 236.382812 180.015625 236.296875 179.945312 236.210938 179.871094 C 235.3125 179.09375 234.316406 178.601562 233.382812 178.304688 C 231.609375 177.738281 230.085938 177.835938 229.984375 177.84375 C 229.214844 177.902344 228.640625 178.570312 228.691406 179.339844 C 228.746094 180.109375 229.402344 180.691406 230.183594 180.640625 C 230.207031 180.640625 232.226562 180.527344 233.875 181.605469 C 226.261719 191.660156 216.125 197.261719 204.460938 197.804688 C 189.191406 198.515625 174.800781 190.597656 166.714844 182.066406 C 168.804688 181.261719 171.023438 181.777344 171.066406 181.789062 C 171.8125 181.980469 172.574219 181.523438 172.765625 180.773438 C 172.957031 180.023438 172.5 179.261719 171.75 179.066406 C 171.59375 179.03125 168.339844 178.234375 165.246094 179.640625 C 164.832031 179.828125 164.421875 180.054688 164.019531 180.324219 C 163.914062 180.398438 163.820312 180.488281 163.71875 180.5625 C 163.671875 180.59375 163.625 180.625 163.582031 180.660156 C 163.570312 180.671875 163.558594 180.683594 163.546875 180.699219 C 163.363281 180.84375 163.1875 181 163.015625 181.160156 C 161.476562 182.636719 160.507812 184.75 160.136719 187.464844 C 160.125 187.542969 160.109375 187.609375 160.101562 187.6875 C 160.015625 188.382812 160.457031 189.015625 161.105469 189.199219 C 161.175781 189.222656 161.246094 189.242188 161.324219 189.25 C 161.378906 189.257812 161.4375 189.261719 161.496094 189.261719 C 162.191406 189.261719 162.796875 188.742188 162.882812 188.027344 C 163.105469 186.222656 163.632812 184.792969 164.449219 183.75 C 172.597656 192.472656 187.027344 200.652344 202.5625 200.652344 Z M 213.421875 126.828125 C 211.164062 127.523438 209.316406 129.234375 208.46875 131.523438 C 208.460938 131.542969 208.460938 131.566406 208.453125 131.582031 C 208.441406 131.628906 208.425781 131.675781 208.417969 131.722656 C 208.339844 132.207031 208.613281 132.699219 209.089844 132.875 C 209.132812 132.890625 209.179688 132.890625 209.222656 132.898438 C 209.300781 132.917969 209.378906 132.9375 209.453125 132.9375 C 209.5 132.9375 209.542969 132.925781 209.589844 132.921875 C 209.964844 132.871094 210.300781 132.632812 210.441406 132.25 C 210.46875 132.179688 210.507812 132.109375 210.542969 132.035156 C 211.15625 130.558594 212.34375 129.4375 213.804688 128.910156 C 214.320312 128.722656 214.871094 128.609375 215.4375 128.585938 C 217.699219 128.488281 219.78125 129.71875 220.765625 131.75 C 221.023438 132.273438 221.652344 132.492188 222.171875 132.238281 C 222.695312 131.984375 222.914062 131.355469 222.660156 130.832031 C 221.433594 128.304688 218.96875 126.667969 216.207031 126.492188 C 215.921875 126.476562 215.628906 126.46875 215.335938 126.484375 C 214.671875 126.515625 214.03125 126.636719 213.421875 126.828125 Z M 173.496094 129.597656 C 172.34375 130.410156 171.410156 131.535156 170.832031 132.890625 C 170.628906 133.371094 170.808594 133.910156 171.230469 134.183594 C 171.28125 134.214844 171.332031 134.246094 171.386719 134.269531 C 171.925781 134.496094 172.539062 134.25 172.765625 133.714844 C 173.15625 132.800781 173.773438 132.039062 174.527344 131.460938 C 174.9375 131.148438 175.386719 130.894531 175.863281 130.703125 C 176.511719 130.445312 177.207031 130.292969 177.9375 130.292969 C 177.996094 130.292969 178.054688 130.304688 178.113281 130.308594 C 178.738281 130.328125 179.335938 130.453125 179.902344 130.664062 C 181.316406 131.191406 182.488281 132.269531 183.105469 133.71875 C 183.273438 134.117188 183.664062 134.359375 184.070312 134.359375 C 184.207031 134.359375 184.347656 134.332031 184.480469 134.273438 C 185.019531 134.046875 185.265625 133.425781 185.039062 132.894531 C 184.21875 130.964844 182.679688 129.5 180.8125 128.75 C 180.269531 128.53125 179.699219 128.371094 179.113281 128.28125 C 178.726562 128.21875 178.335938 128.191406 177.9375 128.191406 C 177.691406 128.191406 177.453125 128.203125 177.214844 128.230469 C 176.808594 128.265625 176.410156 128.335938 176.023438 128.433594 C 175.113281 128.667969 174.253906 129.0625 173.496094 129.597656 Z M 185.214844 151.804688 C 184.992188 151.242188 184.738281 150.707031 184.457031 150.214844 C 184.15625 149.683594 183.824219 149.195312 183.46875 148.757812 C 182.816406 147.953125 182.074219 147.332031 181.273438 146.898438 C 180.730469 146.601562 180.160156 146.398438 179.574219 146.304688 C 179.261719 146.253906 178.941406 146.222656 178.621094 146.234375 C 178.203125 146.25 177.789062 146.328125 177.386719 146.445312 C 174.464844 147.316406 172.167969 150.824219 171.527344 155.292969 C 171.476562 155.640625 171.4375 155.996094 171.40625 156.351562 L 172.015625 156.484375 L 172.734375 156.636719 L 174.308594 156.976562 L 174.578125 157.035156 L 176.644531 157.476562 L 178.859375 157.949219 L 174.042969 159.347656 L 172.769531 159.71875 L 171.480469 160.089844 C 171.527344 160.46875 171.585938 160.835938 171.65625 161.199219 C 171.664062 161.238281 171.675781 161.277344 171.683594 161.316406 C 172.65625 166.25 175.632812 169.796875 179.09375 169.667969 C 183.238281 169.519531 186.5 164.152344 186.367188 157.679688 C 186.324219 155.519531 185.90625 153.515625 185.214844 151.804688 Z M 224.976562 157.207031 C 224.980469 156.929688 224.992188 156.65625 224.988281 156.375 C 224.855469 149.902344 221.386719 144.777344 217.238281 144.929688 C 217.230469 144.929688 217.222656 144.929688 217.210938 144.929688 C 216.605469 144.957031 216.015625 145.105469 215.457031 145.339844 C 214.945312 145.554688 214.457031 145.84375 214 146.210938 C 211.867188 147.921875 210.339844 151.195312 210.023438 155.046875 L 217.476562 156.644531 L 210.097656 158.785156 C 210.183594 159.460938 210.304688 160.113281 210.457031 160.738281 C 207.871094 161.117188 205.578125 162.265625 204.265625 164.03125 C 203.921875 164.496094 204.015625 165.15625 204.484375 165.5 C 204.628906 165.609375 204.789062 165.667969 204.957031 165.691406 L 209.035156 171.171875 L 203.480469 175.480469 C 203.125 175.429688 202.75 175.558594 202.507812 175.859375 C 202.144531 176.3125 202.21875 176.972656 202.667969 177.335938 C 206.191406 180.167969 209.765625 181.222656 212.867188 181.21875 C 215.019531 181.21875 216.941406 180.714844 218.46875 179.945312 C 221.960938 178.183594 224.039062 174.828125 223.902344 171.1875 C 223.820312 169.097656 223.261719 167.238281 222.300781 165.679688 C 223.027344 164.734375 223.636719 163.578125 224.089844 162.269531 C 224.339844 161.550781 224.542969 160.785156 224.695312 159.984375 C 224.859375 159.097656 224.953125 158.167969 224.976562 157.207031 Z M 279.761719 206.703125 C 281.222656 210.089844 281.964844 212.984375 281.988281 215.371094 C 282 216.832031 281.75 218.105469 281.222656 219.179688 C 279.84375 221.976562 276.804688 223.082031 273.730469 223.859375 C 273.503906 223.914062 273.261719 223.96875 273.027344 224.023438 C 272.519531 224.148438 271.996094 224.269531 271.445312 224.390625 C 271.382812 224.402344 271.320312 224.417969 271.257812 224.429688 C 270.6875 224.554688 270.09375 224.675781 269.480469 224.796875 C 261.085938 226.460938 248.59375 227.972656 234.320312 229.253906 C 225.027344 230.09375 214.984375 230.835938 204.8125 231.464844 C 204.417969 228.359375 203.503906 225.277344 201.746094 222.246094 C 199.273438 217.976562 196.296875 215.023438 193.210938 213 C 192.34375 212.425781 191.464844 211.929688 190.589844 211.5 C 189.320312 210.871094 188.054688 210.378906 186.8125 209.996094 C 184.839844 209.390625 182.941406 209.0625 181.226562 208.902344 C 175.679688 208.386719 170.03125 209.511719 165.515625 211.375 C 164.066406 211.976562 162.730469 212.648438 161.550781 213.371094 C 160.589844 213.957031 159.746094 214.582031 159.015625 215.214844 C 158.542969 215.628906 158.105469 216.042969 157.746094 216.464844 C 153.015625 221.980469 151.332031 227.84375 151.171875 233.625 C 150.398438 233.636719 149.632812 233.644531 148.878906 233.65625 C 141.523438 233.746094 135.050781 233.710938 129.902344 233.539062 C 127.796875 233.46875 125.910156 233.371094 124.277344 233.253906 C 123.605469 233.207031 122.988281 233.152344 122.40625 233.097656 C 122.1875 233.078125 121.964844 233.054688 121.765625 233.03125 C 121.335938 232.984375 120.945312 232.917969 120.582031 232.828125 C 119.300781 232.515625 118.410156 231.945312 117.894531 231.089844 C 116.082031 228.101562 118.597656 221.628906 119.425781 219.5 C 119.523438 219.246094 119.621094 218.996094 119.71875 218.742188 C 119.984375 218.058594 120.253906 217.378906 120.523438 216.695312 C 120.605469 216.492188 120.6875 216.289062 120.765625 216.082031 C 120.917969 215.699219 121.070312 215.320312 121.222656 214.9375 C 121.445312 214.375 121.671875 213.8125 121.902344 213.25 C 121.910156 213.222656 121.921875 213.199219 121.929688 213.175781 C 123.007812 210.496094 124.117188 207.808594 125.246094 205.117188 C 125.480469 204.566406 125.710938 204.011719 125.949219 203.457031 C 125.949219 203.453125 125.953125 203.449219 125.957031 203.4375 C 126.179688 202.90625 126.40625 202.375 126.632812 201.84375 C 126.648438 201.8125 126.664062 201.78125 126.675781 201.746094 C 126.890625 201.25 127.101562 200.746094 127.320312 200.25 C 134.242188 184.144531 141.914062 168.046875 149.417969 153.304688 C 149.6875 152.78125 149.957031 152.25 150.222656 151.730469 C 150.496094 151.199219 150.765625 150.667969 151.035156 150.144531 C 151.519531 149.207031 151.996094 148.277344 152.476562 147.355469 C 152.789062 146.753906 153.097656 146.164062 153.40625 145.570312 C 153.726562 144.953125 154.050781 144.339844 154.371094 143.730469 C 162.019531 129.144531 169.265625 116.335938 175.085938 106.8125 C 175.40625 106.285156 175.722656 105.769531 176.035156 105.261719 C 176.359375 104.738281 176.675781 104.226562 176.992188 103.726562 C 177.957031 102.183594 178.875 100.746094 179.738281 99.425781 C 180.074219 98.910156 180.402344 98.410156 180.722656 97.929688 C 181.074219 97.40625 181.410156 96.910156 181.738281 96.429688 C 182.96875 94.636719 184.054688 93.144531 184.96875 92 C 185.109375 91.820312 185.25 91.65625 185.394531 91.480469 C 185.898438 90.859375 186.390625 90.285156 186.867188 89.757812 C 187.457031 89.105469 188.023438 88.523438 188.566406 88.007812 C 189.050781 87.546875 189.519531 87.136719 189.96875 86.769531 C 191.390625 85.617188 192.648438 84.929688 193.773438 84.566406 C 194.492188 84.335938 195.15625 84.234375 195.773438 84.234375 C 195.8125 84.234375 195.847656 84.238281 195.886719 84.238281 C 196.421875 84.25 196.917969 84.335938 197.382812 84.464844 C 197.484375 84.496094 197.585938 84.523438 197.683594 84.554688 C 198.742188 84.910156 199.648438 85.496094 200.472656 86.03125 C 201.777344 86.882812 203.164062 87.964844 204.621094 89.234375 C 205.703125 90.179688 206.824219 91.238281 207.984375 92.398438 C 212.714844 97.128906 218.015625 103.542969 223.558594 110.996094 C 223.941406 111.507812 224.324219 112.03125 224.710938 112.554688 C 225.089844 113.070312 225.46875 113.589844 225.847656 114.113281 C 237.097656 129.617188 249.140625 148.945312 259.335938 166.90625 C 265.113281 177.085938 270.296875 186.820312 274.398438 195.175781 C 274.691406 195.765625 274.976562 196.355469 275.257812 196.929688 C 275.558594 197.550781 275.851562 198.160156 276.140625 198.765625 C 277.503906 201.625 278.722656 204.289062 279.761719 206.703125 Z M 126.839844 153.65625 C 126.078125 154.03125 125.328125 154.421875 124.605469 154.859375 C 121.664062 156.636719 118.949219 158.976562 116.757812 161.753906 C 116.21875 162.441406 115.707031 163.15625 115.230469 163.894531 C 114.683594 164.746094 114.1875 165.628906 113.742188 166.542969 C 111.441406 171.265625 110.597656 176.777344 112.125 182.65625 C 113.121094 180.539062 114.132812 178.433594 115.148438 176.363281 C 115.605469 175.429688 116.0625 174.503906 116.515625 173.585938 C 116.972656 172.664062 117.425781 171.757812 117.875 170.859375 C 121.21875 164.207031 124.402344 158.179688 126.839844 153.65625 Z M 136.855469 135.679688 C 137.949219 133.761719 139.007812 131.921875 140.035156 130.144531 C 137.800781 115.015625 150.738281 108.773438 153.75 107.539062 C 155.023438 105.566406 156.230469 103.75 157.375 102.074219 C 153.183594 102.777344 148.933594 104.4375 145.230469 106.972656 C 137.855469 112.023438 134.007812 119.535156 134.667969 127.59375 C 134.921875 130.695312 135.667969 133.40625 136.855469 135.679688 Z M 148.972656 90.46875 C 149.101562 90.453125 149.226562 90.433594 149.355469 90.414062 C 149.417969 90.09375 149.476562 89.769531 149.535156 89.441406 C 149.601562 89.089844 149.660156 88.734375 149.722656 88.367188 C 149.992188 86.835938 150.265625 85.269531 150.660156 83.75 C 151.007812 82.410156 151.453125 81.109375 152.074219 79.878906 C 149.945312 80.769531 147.398438 82.644531 144.28125 86.167969 C 143.03125 87.578125 141.464844 89.566406 139.644531 92.042969 C 141.917969 91.582031 144.316406 91.164062 146.804688 90.785156 C 147.519531 90.675781 148.242188 90.574219 148.972656 90.46875 Z M 111.835938 135.953125 C 107.605469 143.304688 103.277344 151.105469 99.023438 159.132812 C 101.257812 157.355469 103.738281 156.328125 105.808594 155.609375 C 106.222656 155.46875 106.640625 155.328125 107.0625 155.191406 C 109.09375 154.519531 111.046875 153.871094 112.378906 152.710938 C 111.976562 147.136719 111.769531 141.464844 111.835938 135.953125 Z M 93.582031 178.308594 C 93.679688 178.664062 93.773438 179.007812 93.863281 179.347656 C 92.355469 180.96875 90.75 183.15625 89.085938 186.007812 C 86.058594 191.183594 81 201.734375 76.910156 210.519531 C 75.847656 207.75 78.023438 202.695312 78.769531 200.972656 C 82.972656 191.226562 87.695312 181.261719 92.640625 171.457031 C 92.625 171.683594 92.597656 171.902344 92.589844 172.128906 C 92.503906 174.40625 93.074219 176.480469 93.582031 178.308594 " fill-opacity="1" fill-rule="nonzero"/><path fill="rgb(100%, 59.999084%, 59.999084%)" d="M 218.335938 172.1875 C 218.265625 172.488281 218.175781 172.773438 218.097656 173.058594 C 218.058594 173.203125 218.019531 173.34375 217.972656 173.480469 C 217.917969 173.605469 217.859375 173.730469 217.792969 173.851562 C 217.667969 174.097656 217.53125 174.335938 217.371094 174.550781 C 217.207031 174.765625 216.984375 174.929688 216.769531 175.097656 L 216.425781 175.328125 C 216.34375 175.414062 216.070312 175.414062 215.152344 175.03125 C 214.316406 174.460938 214.132812 174.277344 214.132812 174.179688 L 214.050781 173.851562 C 214.003906 173.644531 213.976562 173.453125 213.953125 173.277344 C 213.90625 173.105469 213.886719 172.953125 213.882812 172.808594 C 213.878906 172.734375 213.878906 172.664062 213.878906 172.589844 C 213.867188 172.527344 213.851562 172.464844 213.835938 172.40625 C 213.804688 172.285156 213.777344 172.167969 213.746094 172.058594 C 213.683594 171.96875 213.617188 171.886719 213.585938 171.804688 C 213.566406 171.71875 213.484375 171.671875 213.484375 171.597656 C 213.484375 171.523438 213.460938 171.453125 213.449219 171.375 C 213.414062 171.085938 213.414062 170.488281 213.050781 169.949219 C 212.882812 169.675781 212.601562 169.511719 212.339844 169.3125 C 212.210938 169.203125 212.085938 169.082031 211.972656 168.910156 L 211.804688 168.640625 C 211.769531 168.605469 211.761719 168.511719 211.773438 168.328125 L 211.8125 167.980469 C 211.84375 167.816406 211.878906 167.613281 211.902344 167.429688 C 211.972656 167.257812 212.058594 167.070312 212.136719 166.921875 L 212.320312 166.621094 C 212.429688 166.46875 212.519531 166.402344 212.582031 166.40625 C 212.714844 166.386719 212.855469 166.359375 212.988281 166.351562 C 213.101562 166.34375 213.214844 166.351562 213.328125 166.359375 C 213.46875 166.378906 213.609375 166.402344 213.738281 166.445312 C 214.210938 166.597656 214.636719 166.859375 215.128906 167.066406 C 215.785156 167.347656 216.527344 167.742188 217.144531 168.339844 C 217.421875 168.617188 217.679688 168.933594 217.882812 169.308594 C 218.050781 169.597656 218.199219 169.898438 218.273438 170.234375 C 218.351562 170.558594 218.445312 170.894531 218.417969 171.21875 C 218.414062 171.546875 218.371094 171.875 218.335938 172.1875 Z M 221.800781 171.269531 C 221.742188 169.757812 221.378906 168.402344 220.75 167.230469 C 219.71875 165.320312 217.980469 163.914062 215.652344 163.199219 C 214.160156 162.734375 212.578125 162.609375 211.105469 162.773438 C 208.921875 163.015625 206.984375 163.898438 205.953125 165.285156 C 205.714844 165.609375 205.324219 165.746094 204.957031 165.691406 L 203.480469 175.480469 C 203.660156 175.507812 203.835938 175.578125 203.984375 175.695312 C 209.167969 179.863281 214.378906 179.652344 217.523438 178.066406 C 220.3125 176.660156 221.910156 174.121094 221.800781 171.269531 Z M 188.296875 83.363281 C 188.417969 83.363281 188.53125 83.367188 188.652344 83.367188 C 188.0625 83.800781 187.453125 84.292969 186.832031 84.847656 C 186.355469 85.273438 185.867188 85.738281 185.375 86.238281 C 184.84375 86.78125 184.296875 87.367188 183.742188 88 C 183.253906 88.558594 182.761719 89.148438 182.253906 89.785156 C 182.246094 89.792969 182.238281 89.804688 182.230469 89.8125 C 181.824219 90.320312 181.382812 90.90625 180.914062 91.542969 C 180.425781 92.203125 179.910156 92.929688 179.359375 93.722656 C 179.03125 94.195312 178.691406 94.691406 178.339844 95.210938 C 178.019531 95.6875 177.691406 96.183594 177.351562 96.695312 C 176.382812 98.160156 175.34375 99.78125 174.246094 101.535156 C 173.941406 102.019531 173.632812 102.515625 173.320312 103.023438 C 173.015625 103.511719 172.710938 104.007812 172.398438 104.515625 C 166.25 114.550781 158.507812 128.246094 150.367188 143.84375 C 150.078125 144.402344 149.789062 144.957031 149.496094 145.523438 C 149.207031 146.074219 148.921875 146.632812 148.632812 147.1875 C 148.371094 147.699219 148.105469 148.214844 147.839844 148.730469 C 147.566406 149.265625 147.292969 149.796875 147.015625 150.332031 C 146.746094 150.867188 146.472656 151.402344 146.199219 151.941406 C 138.757812 166.558594 131.164062 182.476562 124.296875 198.410156 C 124.230469 198.566406 124.164062 198.722656 124.09375 198.878906 C 123.875 199.390625 123.65625 199.90625 123.4375 200.417969 C 123.429688 200.4375 123.417969 200.457031 123.410156 200.476562 C 123.179688 201.011719 122.953125 201.550781 122.726562 202.082031 C 122.6875 202.175781 122.648438 202.269531 122.609375 202.367188 C 121.066406 206.007812 119.566406 209.644531 118.117188 213.261719 C 117.882812 213.847656 117.652344 214.433594 117.417969 215.019531 C 117.253906 215.441406 117.085938 215.859375 116.921875 216.28125 C 116.859375 216.449219 116.792969 216.613281 116.726562 216.777344 C 116.539062 217.261719 116.347656 217.746094 116.160156 218.230469 C 116.09375 218.394531 116.03125 218.5625 115.96875 218.730469 C 115.679688 219.484375 115.398438 220.257812 115.140625 221.046875 C 113.835938 224.996094 113.039062 229.292969 114.664062 232.464844 C 111.15625 231.710938 108.171875 230.230469 105.960938 228.101562 C 104.636719 226.824219 103.671875 225.347656 103.101562 223.78125 C 102.886719 223.203125 102.734375 222.613281 102.632812 222.015625 C 102.546875 221.496094 102.488281 220.96875 102.488281 220.441406 C 102.488281 220.386719 102.492188 220.328125 102.492188 220.273438 C 102.503906 219.296875 102.621094 218.1875 102.839844 216.957031 C 102.9375 216.394531 103.058594 215.808594 103.195312 215.203125 C 103.320312 214.640625 103.460938 214.058594 103.617188 213.460938 C 105.207031 207.414062 108.324219 199.550781 111.984375 191.363281 C 112.28125 190.695312 112.582031 190.027344 112.886719 189.355469 C 113.195312 188.675781 113.511719 187.992188 113.824219 187.308594 C 114.597656 185.636719 115.386719 183.964844 116.183594 182.296875 C 116.617188 181.390625 117.050781 180.488281 117.488281 179.585938 C 117.925781 178.691406 118.359375 177.800781 118.796875 176.914062 C 123.902344 166.542969 128.957031 157.09375 131.871094 151.746094 C 132.308594 150.941406 132.699219 150.226562 133.035156 149.621094 C 133.527344 148.722656 133.902344 148.046875 134.132812 147.636719 C 134.285156 147.359375 134.375 147.195312 134.394531 147.167969 C 135.371094 145.421875 136.320312 143.726562 137.253906 142.078125 C 137.5625 141.53125 137.867188 140.992188 138.167969 140.460938 C 138.46875 139.925781 138.769531 139.394531 139.070312 138.867188 C 140.558594 136.25 141.988281 133.761719 143.359375 131.398438 C 148.429688 122.648438 152.734375 115.574219 156.4375 109.832031 C 158.429688 106.746094 160.246094 104.046875 161.914062 101.679688 C 162.339844 101.082031 162.75 100.5 163.15625 99.945312 C 163.574219 99.367188 163.984375 98.8125 164.382812 98.28125 C 166.273438 95.75 167.957031 93.699219 169.480469 92.023438 C 170.089844 91.351562 170.679688 90.738281 171.242188 90.179688 C 171.246094 90.171875 171.257812 90.164062 171.261719 90.160156 C 171.6875 89.738281 172.097656 89.347656 172.5 88.988281 C 172.773438 88.742188 173.039062 88.511719 173.296875 88.292969 C 173.480469 88.136719 173.660156 87.992188 173.839844 87.851562 C 174.738281 87.128906 175.582031 86.550781 176.390625 86.078125 C 177.992188 85.140625 179.757812 84.511719 181.554688 84.09375 C 182.367188 83.902344 183.1875 83.75 184.003906 83.640625 C 185.476562 83.441406 186.929688 83.363281 188.296875 83.363281 Z M 74.640625 184.558594 C 74.53125 184.703125 74.269531 184.765625 73.425781 184.546875 C 72.730469 184.015625 72.617188 183.769531 72.660156 183.601562 L 72.722656 183.054688 C 72.777344 182.695312 72.832031 182.34375 72.921875 182 C 73.085938 181.316406 73.332031 180.671875 73.5625 180.019531 L 74.253906 178.054688 C 74.492188 177.40625 74.804688 176.792969 75.144531 176.191406 C 75.808594 174.980469 76.691406 173.882812 77.464844 172.726562 C 77.859375 172.152344 78.15625 171.527344 78.507812 170.933594 C 78.6875 170.636719 78.890625 170.355469 79.125 170.085938 C 79.246094 169.953125 79.371094 169.820312 79.5 169.695312 C 79.554688 169.625 79.660156 169.578125 79.839844 169.570312 L 80.15625 169.582031 L 80.640625 169.671875 L 81.007812 169.996094 L 81.214844 170.238281 C 81.316406 170.382812 81.347656 170.496094 81.328125 170.582031 C 81.308594 170.761719 81.285156 170.941406 81.25 171.117188 C 81.183594 171.46875 81.089844 171.804688 80.964844 172.128906 C 80.71875 172.773438 80.414062 173.390625 80.203125 174.054688 C 79.777344 175.378906 79.457031 176.753906 78.917969 178.023438 C 78.660156 178.664062 78.367188 179.289062 78.007812 179.878906 L 76.894531 181.632812 C 76.523438 182.21875 76.171875 182.816406 75.734375 183.367188 C 75.519531 183.648438 75.277344 183.914062 75.027344 184.175781 Z M 71.617188 192.214844 C 71.601562 192.453125 71.554688 192.675781 71.484375 192.882812 C 71.339844 193.304688 71.148438 193.699219 71.0625 194.140625 C 70.878906 195.011719 70.851562 195.925781 70.65625 196.730469 C 70.5625 197.140625 70.46875 197.527344 70.292969 197.902344 C 70.132812 198.269531 69.941406 198.640625 69.820312 199.011719 C 69.738281 199.195312 69.6875 199.378906 69.632812 199.5625 C 69.578125 199.742188 69.488281 199.933594 69.425781 200.105469 C 69.363281 200.28125 69.246094 200.472656 69.15625 200.660156 L 69.011719 200.945312 C 68.992188 201.042969 68.792969 201.15625 67.96875 201.445312 C 67.117188 201.503906 66.890625 201.394531 66.835938 201.265625 L 66.597656 200.871094 C 66.46875 200.601562 66.375 200.332031 66.296875 200.054688 C 66.210938 199.769531 66.199219 199.507812 66.179688 199.230469 C 66.152344 198.953125 66.160156 198.683594 66.164062 198.425781 C 66.167969 197.886719 66.203125 197.371094 66.253906 196.851562 C 66.328125 196.34375 66.472656 195.847656 66.679688 195.394531 C 67.0625 194.46875 67.71875 193.679688 68.289062 192.886719 C 68.578125 192.496094 68.773438 192.0625 69.042969 191.664062 C 69.171875 191.464844 69.339844 191.28125 69.53125 191.113281 C 69.628906 191.03125 69.734375 190.949219 69.84375 190.878906 C 69.890625 190.832031 69.988281 190.816406 70.148438 190.839844 L 70.445312 190.90625 L 70.902344 191.0625 L 71.273438 191.371094 L 71.488281 191.582031 C 71.597656 191.707031 71.636719 191.792969 71.628906 191.847656 C 71.632812 191.976562 71.628906 192.097656 71.617188 192.214844 Z M 112.113281 128.546875 C 112.957031 115.46875 115.75 104.152344 121.886719 98.628906 C 124.277344 96.476562 128.777344 94.679688 134.507812 93.210938 C 137.417969 89.074219 139.859375 85.871094 141.660156 83.839844 C 143.796875 81.425781 145.757812 79.652344 147.570312 78.386719 C 143.777344 78.394531 139.320312 78.925781 135.691406 80.84375 C 128.675781 84.554688 118.851562 95.328125 93.722656 135.84375 C 93.398438 136.359375 61.855469 187.039062 61.855469 201.699219 C 61.855469 203.949219 62.863281 206.113281 64.765625 207.953125 C 66.957031 210.074219 70.125 211.566406 73.882812 212.316406 C 72.089844 208.660156 73.8125 203.617188 75.554688 199.582031 C 86.007812 175.355469 99.667969 149.730469 112.113281 128.546875 " fill-opacity="1" fill-rule="nonzero"/><path fill="rgb(92.939758%, 92.549133%, 92.939758%)" d="M 16.714844 254.089844 C 17.585938 255.660156 19.269531 256.460938 20.632812 256.867188 C 20.386719 253.710938 20.617188 250.898438 20.78125 248.90625 C 20.824219 248.402344 20.863281 247.964844 20.882812 247.589844 C 21.09375 244.074219 21.417969 241.101562 21.777344 238.144531 C 20.566406 240.191406 19.40625 242.175781 18.765625 243.320312 C 16.128906 248.03125 15.421875 251.757812 16.714844 254.089844 Z M 35.089844 243.890625 C 35.714844 242.523438 36.308594 241.230469 36.707031 240.117188 C 38.953125 233.800781 39.441406 225.726562 39.550781 222.589844 C 34.753906 221.375 31.085938 221.652344 28.890625 223.410156 C 26.042969 225.699219 26.253906 229.964844 26.253906 230.007812 C 26.261719 230.109375 26.257812 230.207031 26.25 230.300781 C 26.25 230.308594 26.25 230.3125 26.25 230.320312 C 26.03125 232.335938 25.792969 234.226562 25.5625 236.054688 C 25.089844 239.828125 24.644531 243.398438 24.378906 247.800781 C 24.355469 248.195312 24.316406 248.667969 24.273438 249.199219 C 24.082031 251.476562 23.800781 254.890625 24.335938 258.507812 C 26.902344 263.9375 31.460938 264.46875 34.449219 264.125 C 28.84375 257.542969 32.539062 249.449219 35.089844 243.890625 Z M 89.816406 239.132812 C 89.574219 238.777344 89.125 238.359375 88.675781 237.960938 C 88.203125 237.546875 87.683594 237.144531 87.148438 236.75 C 86.089844 235.949219 84.929688 235.222656 83.84375 234.410156 L 83.820312 234.394531 C 83.386719 234.066406 83.300781 233.453125 83.621094 233.023438 C 83.871094 232.691406 84.296875 232.5625 84.675781 232.667969 C 86.070312 233.074219 87.34375 233.660156 88.640625 234.292969 C 89.066406 234.503906 89.480469 234.730469 89.902344 234.972656 C 89.792969 233.019531 88.78125 231.1875 87.464844 229.609375 C 84.785156 226.398438 80.855469 224.222656 80.789062 224.1875 C 80.761719 224.171875 80.734375 224.15625 80.707031 224.136719 C 77.492188 222.15625 74.640625 221.175781 72.191406 220.78125 C 68.480469 220.191406 65.710938 220.953125 64.066406 221.675781 C 64.425781 222.054688 64.789062 222.425781 65.144531 222.808594 C 66.03125 223.777344 66.945312 224.71875 67.75 225.777344 C 68.078125 226.210938 67.996094 226.828125 67.5625 227.15625 C 67.234375 227.40625 66.796875 227.414062 66.460938 227.214844 C 65.320312 226.527344 64.289062 225.722656 63.230469 224.949219 C 62.230469 224.207031 61.25 223.457031 60.273438 222.695312 C 60.253906 222.683594 60.230469 222.671875 60.210938 222.660156 C 53.972656 217.929688 48.929688 215.996094 46.011719 217.214844 C 43.730469 218.171875 43.164062 220.917969 43.082031 221.398438 C 43.074219 222.75 42.90625 233.144531 40.003906 241.292969 C 39.554688 242.550781 38.933594 243.910156 38.273438 245.351562 C 34.878906 252.761719 32.777344 258.816406 39 263.632812 C 41.589844 265.230469 44.007812 265.644531 46.386719 264.902344 C 50.597656 263.582031 53.59375 258.996094 54.929688 256.558594 C 54.898438 256.191406 54.96875 255.816406 55.160156 255.472656 C 55.324219 255.179688 55.5625 254.941406 55.832031 254.78125 C 55.839844 254.773438 55.949219 254.570312 56.011719 254.441406 C 56.082031 254.28125 56.15625 254.128906 56.226562 253.957031 C 56.363281 253.625 56.484375 253.273438 56.609375 252.917969 C 56.839844 252.195312 57.050781 251.453125 57.226562 250.6875 C 57.578125 249.164062 57.839844 247.589844 58.003906 245.996094 C 58.191406 244.402344 58.269531 242.789062 58.339844 241.171875 L 58.402344 238.738281 C 58.402344 237.921875 58.417969 237.109375 58.4375 236.289062 L 58.4375 236.261719 C 58.449219 235.726562 58.894531 235.300781 59.425781 235.316406 C 59.910156 235.328125 60.304688 235.695312 60.363281 236.164062 C 60.464844 236.988281 60.566406 237.820312 60.652344 238.652344 C 60.730469 239.480469 60.769531 240.320312 60.832031 241.15625 C 60.894531 242.832031 60.921875 244.511719 60.847656 246.203125 C 60.796875 247.886719 60.640625 249.578125 60.375 251.273438 C 60.605469 250.605469 60.878906 249.953125 61.210938 249.316406 C 62.226562 247.351562 63.808594 245.582031 65.777344 244.480469 C 66.261719 244.195312 66.769531 243.960938 67.285156 243.757812 C 67.789062 243.554688 68.261719 243.402344 68.726562 243.246094 C 69.652344 242.933594 70.511719 242.617188 71.34375 242.246094 C 73.003906 241.515625 74.449219 240.457031 75.671875 239.097656 L 75.671875 239.09375 C 76.03125 238.695312 76.640625 238.664062 77.039062 239.019531 C 77.402344 239.347656 77.460938 239.886719 77.195312 240.28125 C 76.011719 242.027344 74.320312 243.484375 72.457031 244.472656 C 70.621094 245.5 68.5625 246.023438 67.253906 246.914062 C 65.839844 247.828125 64.78125 249.171875 64.085938 250.722656 C 63.746094 251.503906 63.480469 252.332031 63.300781 253.179688 C 63.207031 253.609375 63.140625 254.039062 63.089844 254.46875 C 63.050781 254.816406 63.023438 255.21875 63.023438 255.523438 C 63.703125 259.417969 65.382812 261.847656 68.171875 262.953125 C 74.109375 265.3125 83.722656 260.976562 87.3125 258.25 C 90.710938 255.667969 92.628906 252.695312 93.019531 249.414062 C 93.671875 243.921875 89.863281 239.1875 89.824219 239.140625 C 89.820312 239.136719 89.820312 239.132812 89.816406 239.132812 Z M 125.675781 136.625 L 125.710938 136.371094 C 125.789062 135.726562 125.777344 135.082031 125.722656 134.441406 C 125.699219 134.023438 125.636719 133.605469 125.566406 133.1875 C 125.53125 132.984375 125.492188 132.777344 125.457031 132.574219 C 125.335938 131.976562 125.203125 131.382812 125.09375 130.785156 C 125.082031 130.71875 125.066406 130.648438 125.054688 130.582031 C 125.046875 130.554688 125.046875 130.523438 125.042969 130.496094 C 124.945312 129.933594 124.9375 129.367188 124.882812 128.800781 C 124.878906 128.75 124.875 128.703125 124.871094 128.652344 C 124.835938 128.332031 124.765625 128.007812 124.65625 127.6875 C 124.601562 127.527344 124.535156 127.367188 124.460938 127.203125 C 124.441406 127.125 124.351562 127.042969 124.171875 126.964844 L 123.832031 126.84375 L 123.28125 126.722656 L 122.726562 126.84375 L 122.386719 126.964844 C 122.207031 127.042969 122.117188 127.125 122.09375 127.203125 C 122.019531 127.367188 121.957031 127.527344 121.902344 127.6875 C 121.792969 128.007812 121.71875 128.332031 121.6875 128.652344 C 121.628906 129.175781 121.621094 129.695312 121.554688 130.21875 C 121.539062 130.339844 121.527344 130.460938 121.503906 130.582031 C 121.410156 131.109375 121.296875 131.640625 121.1875 132.167969 C 121.046875 132.835938 120.925781 133.5 120.863281 134.167969 C 120.855469 134.257812 120.839844 134.351562 120.832031 134.441406 C 120.777344 135.082031 120.769531 135.726562 120.84375 136.371094 L 121.046875 137.785156 L 121.121094 138.300781 C 121.207031 138.945312 121.28125 139.585938 121.453125 140.230469 C 121.480469 140.328125 121.511719 140.425781 121.546875 140.523438 C 121.617188 140.746094 121.695312 140.972656 121.785156 141.195312 L 121.996094 141.679688 C 122.027344 141.800781 122.183594 141.925781 122.707031 142.046875 C 122.863281 142.085938 123.046875 142.121094 123.28125 142.160156 C 124.277344 142 124.523438 141.839844 124.5625 141.679688 L 124.773438 141.195312 C 124.898438 140.875 125.019531 140.550781 125.101562 140.230469 C 125.277344 139.585938 125.347656 138.945312 125.4375 138.300781 Z M 123.367188 116.617188 C 123.519531 116.675781 123.699219 116.738281 123.921875 116.804688 C 124.957031 116.71875 125.203125 116.574219 125.273438 116.40625 L 125.5625 115.917969 C 125.738281 115.59375 125.894531 115.273438 126.03125 114.957031 C 126.386719 114.351562 126.5625 113.710938 126.863281 113.132812 C 127.175781 112.5625 127.457031 111.988281 127.835938 111.503906 C 128.15625 110.976562 128.480469 110.492188 128.765625 109.964844 C 129.40625 108.996094 130.019531 107.914062 130.984375 107.078125 C 131.449219 106.644531 132.039062 106.40625 132.601562 106.113281 C 132.894531 105.996094 133.171875 105.820312 133.460938 105.648438 L 133.890625 105.363281 C 134.042969 105.269531 134.132812 105.03125 134.246094 104.125 C 134.125 103.695312 133.984375 103.410156 133.859375 103.261719 C 133.726562 103.089844 133.609375 103.035156 133.503906 103.027344 C 133.28125 102.988281 133.058594 102.964844 132.84375 102.960938 C 132.574219 102.949219 132.3125 102.976562 132.050781 103.015625 C 131.890625 103.039062 131.726562 103.066406 131.566406 103.101562 C 130.8125 103.3125 130.09375 103.617188 129.371094 103.933594 C 129.304688 103.964844 129.238281 103.992188 129.175781 104.019531 C 128.074219 104.488281 126.972656 105.101562 126.015625 105.890625 C 125.589844 106.242188 125.191406 106.621094 124.839844 107.046875 C 123.964844 108.050781 123.445312 109.261719 123.089844 110.484375 C 122.960938 110.917969 122.855469 111.355469 122.761719 111.785156 C 122.574219 112.601562 122.488281 113.425781 122.457031 114.25 C 122.460938 114.410156 122.476562 114.570312 122.496094 114.734375 C 122.523438 114.984375 122.558594 115.238281 122.601562 115.484375 L 122.730469 116.097656 C 122.742188 116.25 122.867188 116.421875 123.367188 116.617188 Z M 152.230469 93.601562 C 156.226562 93.101562 160.390625 92.691406 164.558594 92.367188 C 163.1875 94.035156 161.703125 95.964844 160.085938 98.207031 C 155.75 98.46875 151.265625 99.691406 147.097656 101.808594 C 146.113281 102.3125 145.148438 102.871094 144.203125 103.472656 C 144.019531 103.585938 143.832031 103.703125 143.652344 103.824219 C 143.519531 103.914062 143.382812 103.992188 143.253906 104.078125 C 142.179688 104.816406 141.171875 105.601562 140.230469 106.425781 C 135.152344 110.878906 132.046875 116.558594 131.277344 122.757812 C 131.121094 124.050781 131.074219 125.363281 131.121094 126.691406 C 131.132812 127.089844 131.144531 127.480469 131.175781 127.882812 C 131.566406 132.621094 132.898438 136.347656 134.84375 139.222656 C 133.707031 141.226562 132.539062 143.304688 131.339844 145.453125 C 131.167969 145.757812 130.507812 146.933594 129.488281 148.789062 C 127.132812 149.566406 124.878906 150.601562 122.796875 151.855469 C 120.464844 153.265625 118.261719 154.992188 116.296875 156.980469 C 116.214844 156.042969 116.136719 155.105469 116.066406 154.164062 C 116.058594 154.066406 116.050781 153.964844 116.042969 153.863281 C 115.972656 152.886719 115.902344 151.910156 115.839844 150.929688 C 115.816406 150.585938 115.796875 150.234375 115.777344 149.890625 C 115.734375 149.136719 115.691406 148.378906 115.65625 147.625 C 115.433594 143.066406 115.351562 138.515625 115.449219 134.128906 C 115.488281 132.535156 115.550781 130.96875 115.636719 129.429688 C 115.710938 128.117188 115.804688 126.820312 115.917969 125.550781 C 116.046875 124.121094 116.203125 122.726562 116.382812 121.367188 C 117.59375 112.351562 120.027344 105.019531 124.230469 101.234375 C 125.675781 99.933594 128.171875 98.765625 131.398438 97.722656 C 132.238281 97.449219 133.121094 97.183594 134.054688 96.929688 C 134.875 96.707031 135.730469 96.492188 136.613281 96.285156 C 139.082031 95.707031 141.785156 95.175781 144.660156 94.699219 C 145.378906 94.578125 146.109375 94.460938 146.847656 94.347656 C 147.371094 94.265625 147.902344 94.1875 148.4375 94.113281 C 148.632812 94.082031 148.824219 94.054688 149.019531 94.027344 C 149.460938 93.96875 149.902344 93.90625 150.347656 93.847656 C 150.972656 93.761719 151.601562 93.679688 152.230469 93.601562 Z M 143.449219 124.296875 C 145.714844 120.464844 147.8125 116.988281 149.769531 113.828125 C 147.023438 115.980469 144.175781 119.34375 143.449219 124.296875 Z M 312.359375 221.453125 C 310.40625 222.566406 307.164062 224.65625 304.5625 227.523438 C 303.460938 225.820312 301.644531 223.839844 298.953125 223.332031 C 295.667969 222.710938 292.105469 224.445312 288.351562 228.476562 L 278.34375 226.058594 C 280.566406 225.113281 282.972656 223.542969 284.359375 220.726562 C 285.152344 219.128906 285.515625 217.273438 285.472656 215.183594 C 291.714844 213.234375 293.078125 202.523438 288.664062 195.941406 C 287.890625 194.785156 286.847656 193.429688 285.628906 191.945312 C 286.519531 191.769531 287.355469 191.6875 288.132812 191.6875 C 294.746094 191.6875 297.398438 197.410156 297.75 198.25 C 298.210938 199.375 298.488281 200.679688 298.660156 202.003906 C 298.824219 203.34375 298.847656 204.722656 298.757812 206.09375 C 298.574219 208.855469 297.890625 211.574219 296.914062 214.210938 L 296.90625 214.230469 C 296.746094 214.660156 296.914062 215.160156 297.324219 215.402344 C 297.785156 215.667969 298.378906 215.515625 298.648438 215.054688 C 300.1875 212.421875 301.136719 209.453125 301.59375 206.40625 C 301.820312 204.878906 301.917969 203.328125 301.855469 201.757812 C 301.808594 200.605469 301.664062 199.449219 301.382812 198.28125 C 303.375 196.851562 308.59375 193.597656 314.828125 193.441406 C 313.804688 194.886719 312.832031 196.519531 311.929688 198.371094 C 309.453125 203.488281 308.140625 213.660156 312.359375 221.453125 " fill-opacity="1" fill-rule="nonzero"/><path fill="rgb(100%, 38.42926%, 34.509277%)" d="M 326.082031 234.828125 C 326.222656 234.132812 326.367188 233.4375 326.519531 232.738281 C 327.214844 229.535156 328.03125 226.324219 328.957031 223.183594 C 330.617188 217.539062 332.488281 212.515625 334.515625 208.152344 C 334.859375 207.410156 335.207031 206.691406 335.5625 205.984375 C 335.898438 205.316406 336.238281 204.660156 336.582031 204.023438 C 341.652344 194.699219 347.550781 189.222656 353.699219 188.273438 C 349.777344 186.890625 345.511719 188.265625 344.78125 188.523438 C 341.3125 190.464844 337.589844 194.488281 334.089844 199.980469 C 333.761719 200.5 333.429688 201.027344 333.101562 201.574219 C 332.777344 202.117188 332.453125 202.675781 332.132812 203.246094 C 327.40625 211.628906 323.285156 222.636719 321.054688 234.617188 C 320.9375 235.238281 320.828125 235.863281 320.71875 236.484375 C 320.621094 237.097656 320.519531 237.710938 320.425781 238.324219 C 319.144531 246.859375 318.859375 255.789062 320.011719 264.542969 C 320.730469 265.417969 322.996094 267.898438 326.261719 268.921875 C 323.007812 262.832031 323.214844 250.199219 325.691406 236.839844 C 325.816406 236.171875 325.945312 235.5 326.082031 234.828125 Z M 322.273438 204.316406 C 322.5 203.714844 322.703125 203.136719 322.886719 202.539062 C 323.304688 201.386719 323.625 200.128906 324.300781 199.019531 C 324.617188 198.449219 325.101562 198.023438 325.546875 197.566406 C 325.722656 197.402344 325.886719 197.210938 326.046875 197.019531 C 326.097656 196.960938 326.148438 196.902344 326.195312 196.839844 L 326.503906 196.433594 C 326.613281 196.292969 326.617188 196.039062 326.425781 195.148438 C 326.167969 194.78125 325.941406 194.558594 325.773438 194.460938 C 325.59375 194.339844 325.46875 194.328125 325.363281 194.355469 C 325.316406 194.363281 325.269531 194.378906 325.226562 194.390625 C 325.050781 194.425781 324.882812 194.460938 324.722656 194.515625 C 324.300781 194.644531 323.925781 194.835938 323.574219 195.066406 C 323.457031 195.148438 323.34375 195.230469 323.234375 195.3125 C 323.007812 195.480469 322.789062 195.65625 322.582031 195.84375 C 322.257812 196.109375 321.945312 196.386719 321.632812 196.671875 C 320.363281 197.777344 319.148438 199.070312 318.386719 200.617188 C 317.566406 202.140625 317.40625 203.878906 317.328125 205.507812 C 317.285156 206.324219 317.324219 207.136719 317.421875 207.941406 C 317.492188 208.339844 317.617188 208.734375 317.742188 209.128906 L 317.953125 209.707031 C 318 209.898438 318.226562 210.089844 319.234375 210.238281 C 320.246094 210.015625 320.46875 209.839844 320.519531 209.664062 L 320.730469 209.136719 C 320.859375 208.792969 320.972656 208.449219 321.066406 208.113281 C 321.316406 207.453125 321.402344 206.785156 321.601562 206.148438 C 321.808594 205.523438 321.992188 204.890625 322.273438 204.316406 Z M 312.195312 256.664062 C 312.113281 255.800781 312.046875 255.585938 311.972656 255.546875 L 311.753906 255.347656 C 311.617188 255.230469 311.480469 255.125 311.363281 255.015625 C 311.242188 254.910156 311.121094 254.832031 311 254.765625 C 310.882812 254.691406 310.777344 254.605469 310.667969 254.53125 C 310.441406 254.402344 310.28125 254.164062 310.101562 254 C 309.929688 253.808594 309.726562 253.691406 309.507812 253.550781 C 309.089844 253.277344 308.484375 253.054688 307.992188 252.628906 C 307.742188 252.425781 307.597656 252.144531 307.414062 251.886719 C 307.316406 251.757812 307.203125 251.636719 307.054688 251.519531 L 306.816406 251.355469 C 306.785156 251.324219 306.703125 251.316406 306.546875 251.324219 L 306.246094 251.355469 L 305.773438 251.425781 C 305.628906 251.488281 305.46875 251.566406 305.339844 251.628906 L 305.085938 251.792969 C 304.957031 251.886719 304.898438 251.96875 304.902344 252.023438 C 304.882812 252.136719 304.863281 252.261719 304.855469 252.378906 C 304.84375 252.609375 304.871094 252.828125 304.933594 253.035156 C 305.058594 253.449219 305.273438 253.820312 305.414062 254.242188 C 305.707031 255.078125 306.054688 256.007812 306.746094 256.710938 C 307.078125 257.070312 307.488281 257.367188 307.941406 257.578125 C 308.414062 257.757812 308.890625 257.917969 309.378906 257.996094 C 309.617188 258.042969 309.855469 258.105469 310.097656 258.117188 C 310.339844 258.128906 310.582031 258.125 310.820312 258.097656 C 311.0625 258.085938 311.296875 257.996094 311.527344 257.902344 L 311.863281 257.742188 C 311.972656 257.714844 312.09375 257.515625 312.195312 256.664062 Z M 322.71875 215.511719 C 320.3125 222.015625 318.527344 228.710938 317.367188 235.394531 C 317.265625 236 317.160156 236.605469 317.066406 237.210938 C 316.972656 237.804688 316.890625 238.398438 316.808594 238.996094 C 315.640625 247.367188 315.472656 255.667969 316.363281 263.503906 C 305.851562 263.191406 302.195312 256.203125 302.042969 255.898438 C 302.03125 255.875 302.015625 255.855469 302.003906 255.832031 C 301.839844 255.503906 301.667969 255.097656 301.503906 254.726562 C 301.308594 254.273438 301.136719 253.8125 300.964844 253.351562 C 300.609375 252.417969 300.359375 251.464844 300.011719 250.5 L 300.003906 250.472656 C 299.878906 250.136719 299.574219 249.878906 299.199219 249.832031 C 298.65625 249.761719 298.160156 250.144531 298.09375 250.6875 C 297.949219 251.796875 298.042969 252.902344 298.167969 254 C 298.222656 254.5 298.304688 254.996094 298.398438 255.492188 C 293.714844 256.839844 290.273438 255.988281 288.152344 252.933594 C 286.507812 250.566406 285.867188 247.296875 285.96875 243.945312 C 286.03125 241.835938 286.386719 239.699219 286.992188 237.734375 C 287.167969 237.167969 287.367188 236.621094 287.582031 236.089844 C 287.804688 235.523438 288.054688 234.984375 288.320312 234.46875 C 288.820312 233.5 289.378906 232.617188 290.003906 231.886719 C 290.804688 230.945312 291.582031 230.128906 292.335938 229.441406 C 294.59375 227.378906 296.621094 226.460938 298.289062 226.773438 C 300.261719 227.140625 301.65625 229.277344 302.292969 230.625 C 302.09375 230.988281 301.914062 231.34375 301.734375 231.714844 C 301.722656 231.746094 301.703125 231.78125 301.6875 231.8125 C 301.363281 232.511719 301.0625 233.222656 300.808594 233.949219 C 300.539062 234.699219 300.300781 235.46875 300.113281 236.242188 C 299.976562 236.8125 299.882812 237.390625 299.816406 237.976562 C 299.800781 238.125 299.773438 238.273438 299.761719 238.425781 C 299.730469 238.824219 299.949219 239.21875 300.339844 239.390625 C 300.832031 239.609375 301.40625 239.390625 301.625 238.894531 L 301.640625 238.867188 C 301.753906 238.605469 301.867188 238.34375 301.984375 238.085938 C 302.238281 237.507812 302.5 236.933594 302.773438 236.371094 C 302.976562 235.953125 303.1875 235.535156 303.421875 235.128906 C 303.757812 234.53125 304.113281 233.945312 304.492188 233.378906 C 304.683594 233.097656 304.882812 232.804688 305.085938 232.527344 C 305.277344 232.257812 305.46875 232.003906 305.652344 231.785156 L 305.667969 231.769531 C 305.714844 231.710938 305.761719 231.648438 305.804688 231.578125 C 305.804688 231.574219 305.808594 231.570312 305.8125 231.566406 C 309.085938 226.832031 315.5 223.746094 315.566406 223.714844 C 316.027344 223.496094 316.371094 223.085938 316.507812 222.589844 C 316.640625 222.097656 316.554688 221.570312 316.261719 221.144531 C 311.886719 214.71875 312.765625 204.679688 315.082031 199.902344 C 316.257812 197.484375 317.554688 195.476562 318.941406 193.808594 C 319.386719 193.277344 319.832031 192.785156 320.292969 192.324219 C 320.792969 191.824219 321.296875 191.367188 321.8125 190.945312 C 327.507812 186.269531 334.199219 186.136719 340.050781 187.5625 C 337.242188 189.878906 334.40625 193.203125 331.714844 197.292969 C 331.390625 197.789062 331.066406 198.292969 330.746094 198.8125 C 330.429688 199.320312 330.117188 199.835938 329.804688 200.367188 C 327.199219 204.804688 324.777344 209.933594 322.71875 215.511719 Z M 330.042969 269.320312 C 332.171875 269.109375 334.34375 268.191406 336.527344 266.566406 C 341.457031 262.886719 346.351562 252.84375 350.402344 241.46875 L 327.636719 242.359375 C 325.738281 255.730469 326.511719 266.71875 330.042969 269.320312 Z M 357.4375 191.097656 C 349.867188 189.714844 343.125 197.195312 337.960938 207.558594 C 337.570312 208.339844 337.195312 209.136719 336.820312 209.945312 C 336.394531 210.882812 335.980469 211.835938 335.578125 212.800781 C 334.078125 216.394531 332.761719 220.1875 331.644531 223.976562 C 331.003906 226.148438 330.425781 228.332031 329.90625 230.5 C 329.691406 231.40625 329.484375 232.308594 329.289062 233.210938 C 329.121094 233.976562 328.960938 234.738281 328.8125 235.496094 C 328.542969 236.859375 328.296875 238.207031 328.074219 239.535156 L 351.386719 238.621094 C 353.160156 233.382812 354.742188 227.957031 356.066406 222.808594 C 360.164062 206.839844 359.875 195.429688 357.4375 191.097656 Z M 164.730469 236.796875 C 164.722656 236.695312 164.722656 236.59375 164.710938 236.492188 C 164.710938 236.011719 164.679688 235.53125 164.664062 235.058594 C 164.648438 234.589844 164.640625 234.125 164.691406 233.664062 L 164.75 233.3125 L 164.933594 232.296875 C 164.976562 232.070312 165 231.839844 165.066406 231.625 L 165.28125 230.988281 C 165.425781 230.566406 165.511719 230.132812 165.6875 229.742188 C 165.863281 229.347656 166.019531 228.957031 166.164062 228.566406 C 166.308594 228.175781 166.542969 227.835938 166.707031 227.457031 C 166.855469 227.070312 167.09375 226.746094 167.277344 226.378906 C 167.378906 226.199219 167.445312 226 167.566406 225.828125 L 167.90625 225.316406 C 168.121094 224.953125 168.398438 224.644531 168.679688 224.328125 C 169.226562 223.675781 169.902344 223.152344 170.5625 222.554688 C 170.914062 222.285156 171.25 221.964844 171.621094 221.6875 C 171.796875 221.527344 171.980469 221.390625 172.171875 221.25 C 172.371094 221.125 172.480469 220.863281 172.488281 219.816406 C 172.003906 218.894531 171.621094 218.765625 171.351562 218.816406 C 171.0625 218.839844 170.765625 218.867188 170.484375 218.917969 C 169.90625 219.003906 169.351562 219.167969 168.800781 219.355469 C 167.71875 219.78125 166.699219 220.378906 165.777344 221.125 C 165.308594 221.492188 164.84375 221.863281 164.433594 222.3125 C 164.007812 222.734375 163.570312 223.15625 163.234375 223.664062 C 162.460938 224.609375 161.988281 225.742188 161.578125 226.859375 C 161.425781 227.433594 161.28125 228.011719 161.15625 228.585938 C 161.050781 229.164062 161.050781 229.746094 161.003906 230.320312 L 160.964844 231.179688 C 160.957031 231.464844 161.003906 231.746094 161.015625 232.023438 L 161.121094 233.414062 L 161.140625 233.691406 C 161.203125 234.183594 161.261719 234.667969 161.324219 235.148438 C 161.394531 235.734375 161.464844 236.308594 161.550781 236.886719 C 161.550781 236.898438 161.550781 236.90625 161.554688 236.917969 C 161.683594 237.4375 161.855469 237.949219 162.054688 238.449219 C 162.160156 238.699219 162.273438 238.945312 162.390625 239.1875 C 162.441406 239.3125 162.539062 239.425781 162.742188 239.515625 C 162.925781 239.605469 163.242188 239.667969 163.691406 239.691406 C 164.09375 239.464844 164.359375 239.277344 164.496094 239.121094 C 164.652344 238.957031 164.703125 238.824219 164.710938 238.699219 C 164.734375 238.445312 164.753906 238.195312 164.765625 237.945312 C 164.777344 237.554688 164.765625 237.171875 164.730469 236.796875 Z M 201.488281 233.4375 C 201.527344 234.003906 201.550781 234.570312 201.554688 235.144531 C 201.585938 239.226562 200.820312 243.4375 200.023438 247.773438 C 199.054688 253.078125 198.054688 258.554688 198.375 264.273438 L 175.609375 264.972656 L 173.867188 265.023438 L 172.109375 265.078125 L 168.496094 265.191406 L 160.085938 265.449219 C 160.359375 261.152344 159.023438 256.25 157.621094 251.097656 C 157.109375 249.207031 156.582031 247.269531 156.117188 245.308594 C 156.113281 245.296875 156.113281 245.289062 156.113281 245.28125 C 155.972656 244.695312 155.839844 244.109375 155.714844 243.519531 C 155.59375 242.929688 155.476562 242.339844 155.367188 241.75 C 155.082031 240.1875 154.863281 238.617188 154.75 237.042969 C 154.707031 236.464844 154.679688 235.878906 154.667969 235.300781 C 154.65625 234.71875 154.660156 234.140625 154.679688 233.5625 C 154.855469 228.496094 156.363281 223.464844 160.40625 218.746094 C 161.523438 217.441406 163.632812 216.007812 166.347656 214.816406 C 168.480469 213.886719 170.984375 213.113281 173.6875 212.671875 C 175.214844 212.425781 176.792969 212.277344 178.414062 212.277344 C 178.746094 212.277344 179.082031 212.289062 179.417969 212.304688 C 179.914062 212.320312 180.410156 212.347656 180.90625 212.394531 C 182.550781 212.542969 184.398438 212.882812 186.308594 213.527344 C 190.601562 214.972656 195.230469 217.984375 198.714844 224 C 200.160156 226.503906 200.945312 229.0625 201.308594 231.675781 C 201.390625 232.261719 201.449219 232.847656 201.488281 233.4375 Z M 176.535156 293.425781 C 176.496094 292.386719 176.382812 292.136719 176.226562 292.058594 C 176.074219 291.960938 175.925781 291.859375 175.785156 291.738281 C 175.644531 291.628906 175.503906 291.539062 175.367188 291.441406 C 175.238281 291.328125 175.101562 291.234375 174.972656 291.140625 C 174.457031 290.75 173.949219 290.429688 173.511719 290.007812 C 173.066406 289.597656 172.679688 289.144531 172.339844 288.644531 C 172.160156 288.386719 171.96875 288.136719 171.769531 287.890625 C 171.589844 287.660156 171.40625 287.433594 171.230469 287.195312 C 170.5 286.1875 169.621094 285.105469 168.996094 283.832031 C 168.917969 283.679688 168.855469 283.523438 168.792969 283.367188 C 168.597656 282.871094 168.46875 282.347656 168.316406 281.828125 C 168.277344 281.695312 168.230469 281.558594 168.183594 281.425781 C 168.109375 281.222656 168.027344 281.019531 167.929688 280.8125 C 167.851562 280.644531 167.765625 280.476562 167.675781 280.308594 C 167.640625 280.222656 167.554688 280.144531 167.363281 280.070312 C 167.296875 280.039062 167.203125 280.011719 167.09375 279.984375 C 166.925781 279.945312 166.714844 279.90625 166.449219 279.863281 C 166.019531 279.984375 165.726562 280.113281 165.574219 280.226562 C 165.398438 280.339844 165.335938 280.453125 165.320312 280.558594 C 165.269531 280.769531 165.230469 280.980469 165.203125 281.1875 C 165.171875 281.441406 165.160156 281.699219 165.164062 281.949219 C 165.167969 282.109375 165.171875 282.269531 165.1875 282.429688 C 165.242188 282.929688 165.335938 283.425781 165.433594 283.921875 C 165.492188 284.234375 165.554688 284.546875 165.601562 284.867188 C 165.648438 285.164062 165.699219 285.46875 165.757812 285.773438 C 166.011719 287.140625 166.371094 288.542969 167.105469 289.828125 C 167.554688 290.601562 168.09375 291.355469 168.785156 291.976562 C 168.789062 291.980469 168.789062 291.984375 168.792969 291.984375 C 169.484375 292.613281 170.277344 293.132812 171.09375 293.589844 C 171.90625 294.042969 172.773438 294.394531 173.679688 294.550781 C 174.128906 294.644531 174.59375 294.660156 175.042969 294.640625 C 175.269531 294.632812 175.496094 294.605469 175.71875 294.574219 C 175.9375 294.570312 176.195312 294.386719 176.535156 293.425781 Z M 198.976562 269.75 C 200.398438 280.328125 202.351562 294.8125 185.320312 299.984375 C 179.917969 301.625 171.480469 301.039062 165.707031 295.875 C 163.152344 293.589844 161.316406 290.566406 160.191406 286.898438 C 160 286.285156 159.835938 285.65625 159.6875 285.003906 C 159.539062 284.359375 159.414062 283.699219 159.304688 283.019531 C 159.21875 282.457031 159.144531 281.882812 159.085938 281.296875 C 158.6875 277.441406 158.890625 273.078125 159.699219 268.265625 L 170.210938 267.945312 L 171.84375 267.894531 L 173.625 267.839844 L 175.375 267.785156 L 198.628906 267.074219 C 198.730469 267.925781 198.851562 268.816406 198.976562 269.75 Z M 152.769531 246.363281 C 151.195312 249.164062 150.195312 256.144531 151.140625 265.445312 C 151.269531 266.726562 151.476562 268.074219 151.75 269.429688 C 152.488281 273.054688 153.730469 276.710938 155.421875 279.371094 C 155.367188 278.101562 155.359375 276.765625 155.414062 275.359375 C 155.519531 272.699219 155.839844 269.789062 156.425781 266.59375 C 157.144531 262.679688 155.734375 257.5 154.242188 252.015625 C 153.75 250.203125 153.238281 248.3125 152.769531 246.363281 Z M 112.984375 159.789062 C 112.882812 158.765625 112.785156 157.738281 112.695312 156.707031 C 112.6875 156.714844 112.675781 156.71875 112.664062 156.722656 C 111.816406 157.179688 110.921875 157.554688 110.039062 157.875 C 109.398438 158.109375 108.765625 158.320312 108.160156 158.519531 C 107.753906 158.65625 107.351562 158.785156 106.960938 158.921875 C 103.320312 160.1875 101.042969 161.613281 99.347656 163.695312 C 97.367188 166.125 96.207031 169.171875 96.089844 172.261719 C 96.03125 173.804688 96.382812 175.273438 96.800781 176.796875 C 98.097656 175.949219 99.292969 175.554688 100.355469 175.542969 C 101.003906 175.539062 101.597656 175.675781 102.140625 175.933594 C 102.664062 176.183594 103.132812 176.546875 103.546875 177.007812 C 105.933594 179.683594 106.402344 185.664062 103.867188 191.921875 C 101.882812 196.824219 98.089844 205.554688 94.628906 213.433594 C 94.371094 214.011719 94.117188 214.589844 93.867188 215.160156 C 93.609375 215.75 93.351562 216.332031 93.097656 216.90625 C 92.988281 217.152344 92.882812 217.390625 92.777344 217.632812 C 94.601562 218.71875 96.699219 219.503906 99 219.921875 C 99.03125 219.023438 99.132812 218.03125 99.304688 216.960938 C 99.394531 216.398438 99.507812 215.808594 99.636719 215.203125 C 99.753906 214.644531 99.886719 214.066406 100.035156 213.46875 C 101.796875 206.351562 105.609375 196.886719 109.984375 187.277344 C 105.855469 177.21875 107.984375 167.863281 113.085938 160.773438 C 113.050781 160.441406 113.019531 160.117188 112.984375 159.789062 Z M 168.726562 87.734375 C 169.15625 87.3125 169.574219 86.910156 169.988281 86.535156 C 170.441406 86.121094 170.882812 85.738281 171.316406 85.382812 C 172.480469 84.425781 173.570312 83.667969 174.621094 83.054688 C 175.847656 82.332031 177.144531 81.765625 178.46875 81.316406 C 178.105469 80.949219 177.746094 80.578125 177.394531 80.214844 C 174.773438 77.484375 172.511719 75.128906 168.640625 74.660156 C 168.09375 74.59375 167.546875 74.558594 167.003906 74.558594 C 164.339844 74.558594 161.746094 75.339844 159.585938 76.699219 C 159.011719 77.0625 158.46875 77.464844 157.964844 77.90625 C 157.878906 77.980469 157.796875 78.058594 157.710938 78.136719 C 157.304688 78.515625 156.921875 78.917969 156.570312 79.34375 C 156.105469 79.910156 155.6875 80.515625 155.339844 81.164062 C 154.710938 82.335938 154.285156 83.644531 153.945312 85.042969 C 153.644531 86.292969 153.410156 87.613281 153.175781 88.972656 C 153.117188 89.292969 153.0625 89.617188 153.003906 89.941406 C 157.867188 89.355469 162.914062 88.90625 167.890625 88.589844 C 168.175781 88.292969 168.453125 88.007812 168.726562 87.734375 Z M 224.132812 88.042969 C 227 93.3125 227.335938 100.910156 225.144531 107.335938 C 216.683594 96.089844 208.730469 87.242188 202.386719 83.097656 C 202.105469 82.914062 201.816406 82.734375 201.53125 82.566406 C 201.546875 82.558594 201.566406 82.550781 201.582031 82.539062 C 205.789062 80.800781 209.71875 80.15625 213.269531 80.625 C 218.089844 81.265625 221.84375 83.832031 224.132812 88.042969 " fill-opacity="1" fill-rule="nonzero"/></svg>