<svg xmlns="http://www.w3.org/2000/svg" xmlns:xlink="http://www.w3.org/1999/xlink" width="500" zoomAndPan="magnify" viewBox="0 0 375 374.999991" height="500" preserveAspectRatio="xMidYMid meet" version="1.0"><defs><clipPath id="id1"><path d="M 70 13 L 307.792969 13 L 307.792969 362.195312 L 70 362.195312 Z M 70 13 " clip-rule="nonzero"/></clipPath></defs><g clip-path="url(#id1)"><path fill="rgb(90.979004%, 39.219666%, 34.118652%)" d="M 279.421875 153.09375 C 279.917969 153.160156 280.359375 153.246094 280.726562 153.347656 C 281.175781 153.476562 281.617188 153.617188 282.046875 153.757812 C 282.953125 152.460938 283.613281 151.25 283.722656 150.285156 C 283.980469 148.113281 280.839844 145.921875 276.167969 143.96875 C 277.160156 146.808594 278.242188 149.84375 279.421875 153.09375 Z M 73.90625 156.929688 C 71.832031 152.5 71.515625 148.347656 72.972656 144.570312 C 74.230469 141.308594 76.761719 138.425781 80.527344 135.949219 C 80.277344 133.40625 80.316406 130.773438 80.828125 128.191406 C 83.304688 115.707031 102.195312 112.863281 118.5625 112.515625 C 122.832031 104.839844 126.824219 95.664062 132.101562 83.554688 C 134.945312 77.027344 138.164062 69.632812 141.960938 61.261719 C 155.394531 31.640625 171.574219 16.4375 191.101562 15.207031 C 193.257812 14.769531 204.472656 12.699219 217.507812 14.277344 C 236.566406 16.582031 250.195312 25.691406 256.910156 40.621094 C 262.515625 53.082031 263.121094 62.378906 264.445312 82.746094 C 264.753906 87.535156 265.109375 92.960938 265.574219 99.210938 C 266.144531 106.898438 267.179688 113.671875 269.277344 121.839844 C 276.144531 123.902344 285.050781 127.027344 292.492188 131.121094 C 302.605469 136.6875 307.707031 142.785156 307.652344 149.242188 C 307.609375 154.679688 302.667969 162.375 296.992188 168.503906 C 297.449219 169.863281 297.753906 171.136719 297.953125 172.238281 C 299.148438 178.859375 298.234375 184.113281 295.230469 187.859375 C 293.609375 189.878906 291.632812 191.128906 289.832031 191.90625 C 290.691406 201.953125 289.621094 212.433594 284.71875 222.492188 C 276.660156 239.011719 259.25 251.699219 232.960938 260.203125 C 232.824219 260.246094 232.675781 260.289062 232.539062 260.332031 C 233.847656 270.832031 236.484375 279.90625 238.933594 286.628906 C 239.640625 286.65625 240.363281 286.6875 241.109375 286.734375 C 243.546875 286.886719 251.804688 287.875 255.703125 294.1875 C 258.300781 298.390625 258.285156 303.910156 255.675781 310.613281 C 255.714844 310.746094 255.738281 310.886719 255.742188 311.027344 C 258.058594 313.476562 264.238281 321.003906 264.578125 331.964844 C 265.816406 332.550781 267.871094 333.855469 268.625 336.285156 C 269.472656 339.03125 268.410156 342.269531 265.460938 345.914062 C 260.371094 352.191406 248.628906 358.160156 236.242188 360.761719 C 231.550781 361.746094 226.921875 362.230469 222.425781 362.230469 C 211.941406 362.230469 202.1875 359.589844 194.097656 354.441406 C 190.824219 352.359375 188.835938 349.496094 188.773438 346.78125 C 188.738281 345.253906 189.289062 343.035156 192.035156 340.90625 C 192.542969 337.140625 196.160156 318.664062 218.253906 314.386719 C 216.464844 311.441406 213.582031 305.460938 215.121094 299.421875 C 215.960938 296.136719 217.980469 293.335938 221.144531 291.054688 C 217.15625 281.390625 215.382812 271.390625 214.601562 264.261719 C 206.269531 265.484375 196.984375 266.183594 187.613281 266.183594 C 174.847656 266.183594 161.9375 264.890625 151.097656 261.867188 C 150.347656 261.691406 149.578125 261.503906 148.792969 261.300781 C 150.214844 272.613281 153.503906 282.386719 156.546875 289.503906 C 161.214844 289.582031 166.824219 290.601562 170.625 293.84375 C 173.183594 296.023438 174.597656 298.925781 174.855469 302.472656 C 174.976562 302.613281 175.066406 302.78125 175.136719 302.957031 C 178.394531 304.832031 187.542969 311.78125 184.796875 329.464844 C 185.605469 330.496094 187.070312 332.828125 186.648438 335.746094 C 186.203125 338.808594 183.851562 341.523438 179.660156 343.804688 C 169.4375 349.375 150.800781 354.171875 134.335938 355.472656 C 131.296875 355.710938 128.054688 355.867188 124.707031 355.867188 C 111.457031 355.867188 96.734375 353.449219 87.941406 344.445312 C 86.292969 342.761719 83.640625 338.882812 84.136719 335.035156 C 84.40625 332.929688 85.539062 331.167969 87.507812 329.785156 C 87.429688 325.683594 88.132812 308.15625 105.894531 303.75 C 116.234375 301.1875 123.324219 305.882812 125.789062 307.90625 C 126.425781 307.449219 127.351562 306.871094 128.566406 306.316406 C 129.976562 305.671875 131.632812 305.269531 132.738281 305.050781 C 132.832031 302.648438 133.78125 297.605469 139.582031 293.84375 C 132.695312 278.648438 130.898438 263.953125 130.558594 254.679688 C 121.878906 250.488281 112.957031 244.457031 105.402344 235.785156 C 98.304688 227.632812 93.390625 218.273438 90.695312 207.785156 C 81.269531 206.871094 76.53125 200.464844 74.367188 197.53125 C 68.332031 189.355469 71.933594 183.125 73.9375 180.667969 C 67.433594 170.042969 72.171875 159.953125 73.90625 156.929688 " fill-opacity="1" fill-rule="nonzero"/></g><path fill="rgb(100%, 100%, 100%)" d="M 166.90625 78.296875 C 167.050781 77.929688 167.230469 77.574219 167.425781 77.234375 C 167.871094 76.554688 168.472656 75.957031 169.179688 75.558594 C 169.878906 75.164062 170.597656 74.925781 171.277344 74.785156 C 171.722656 74.703125 172.132812 74.59375 172.535156 74.519531 C 172.742188 74.480469 172.949219 74.449219 173.160156 74.441406 C 173.46875 74.433594 173.777344 74.488281 174.078125 74.617188 C 174.226562 74.683594 174.378906 74.777344 174.523438 74.855469 C 174.59375 74.882812 174.675781 75.007812 174.742188 75.253906 L 174.835938 75.722656 C 174.867188 75.945312 174.890625 76.226562 174.898438 76.476562 C 174.851562 76.726562 174.820312 77.003906 174.792969 77.230469 L 174.71875 77.695312 C 174.675781 77.941406 174.644531 78.0625 174.605469 78.09375 L 174.382812 78.371094 C 174.238281 78.539062 174.109375 78.648438 173.976562 78.730469 C 173.714844 78.867188 173.460938 78.949219 173.320312 79.1875 C 173.203125 79.441406 173.160156 79.679688 173.214844 79.898438 C 173.257812 80.101562 173.347656 80.242188 173.355469 80.332031 C 173.375 80.402344 173.382812 80.457031 173.351562 80.5 C 173.332031 80.558594 173.300781 80.648438 173.230469 80.714844 L 173.101562 80.828125 L 173 81 C 172.929688 81.117188 172.851562 81.238281 172.777344 81.367188 C 172.695312 81.671875 172.605469 81.988281 172.402344 82.359375 C 172.328125 82.550781 172.203125 82.757812 172.070312 82.976562 L 171.835938 83.316406 C 171.800781 83.421875 171.492188 83.585938 170.183594 84.015625 C 168.835938 84.226562 168.484375 84.167969 168.40625 84.058594 L 168.050781 83.742188 C 167.832031 83.523438 167.625 83.292969 167.460938 83.050781 C 167.160156 82.539062 167.027344 81.957031 166.878906 81.378906 L 166.804688 80.824219 L 166.75 80.414062 C 166.699219 80.089844 166.65625 79.75 166.707031 79.378906 C 166.742188 79.015625 166.777344 78.65625 166.90625 78.296875 Z M 142.078125 278.507812 L 142.3125 278.011719 C 142.347656 277.859375 142.667969 277.65625 144.0625 277.347656 C 145.496094 277.316406 145.863281 277.386719 145.9375 277.507812 L 146.292969 277.832031 C 146.503906 278.046875 146.71875 278.265625 146.886719 278.480469 C 147.21875 278.917969 147.441406 279.371094 147.679688 279.820312 C 147.921875 280.273438 148.210938 280.703125 148.476562 281.144531 C 148.726562 281.585938 148.878906 282.0625 148.976562 282.5625 C 149.21875 283.550781 149.121094 284.695312 149.265625 285.785156 C 149.324219 286.332031 149.558594 286.804688 149.707031 287.3125 C 149.773438 287.574219 149.804688 287.855469 149.785156 288.15625 L 149.726562 288.632812 C 149.730469 288.707031 149.648438 288.824219 149.457031 289.003906 L 149.078125 289.324219 L 148.441406 289.800781 L 147.699219 290.09375 L 147.222656 290.234375 C 146.964844 290.296875 146.816406 290.289062 146.753906 290.242188 C 146.605469 290.15625 146.445312 290.070312 146.304688 289.984375 C 146.03125 289.800781 145.808594 289.582031 145.632812 289.347656 C 145.289062 288.867188 145.050781 288.339844 144.648438 287.882812 C 143.878906 286.953125 142.945312 286.054688 142.417969 284.964844 C 142.140625 284.429688 141.925781 283.859375 141.851562 283.242188 C 141.769531 282.632812 141.769531 281.996094 141.722656 281.378906 C 141.691406 280.757812 141.640625 280.140625 141.777344 279.488281 C 141.832031 279.164062 141.9375 278.839844 142.078125 278.507812 Z M 231.515625 284.316406 C 231.585938 284.628906 231.601562 284.964844 231.574219 285.320312 C 231.558594 285.5 231.53125 285.679688 231.496094 285.867188 C 231.496094 285.953125 231.40625 286.078125 231.199219 286.253906 L 230.789062 286.566406 L 230.097656 287.015625 L 229.308594 287.230469 L 228.796875 287.3125 C 228.519531 287.339844 228.363281 287.308594 228.300781 287.242188 C 228.132812 287.117188 227.976562 286.992188 227.832031 286.863281 C 227.550781 286.59375 227.324219 286.304688 227.152344 285.996094 C 226.804688 285.375 226.578125 284.710938 226.183594 284.105469 C 225.417969 282.882812 224.503906 281.667969 224.03125 280.300781 C 223.769531 279.632812 223.605469 278.925781 223.554688 278.199219 C 223.53125 277.464844 223.550781 276.734375 223.558594 276 C 223.5625 275.273438 223.570312 274.542969 223.746094 273.800781 C 223.816406 273.433594 223.957031 273.058594 224.117188 272.691406 L 224.386719 272.136719 C 224.433594 271.957031 224.773438 271.753906 226.222656 271.496094 C 227.699219 271.574219 228.070312 271.699219 228.140625 271.855469 L 228.492188 272.300781 C 228.699219 272.601562 228.902344 272.894531 229.066406 273.191406 C 229.394531 273.777344 229.578125 274.375 229.8125 274.96875 C 230.011719 275.5625 230.324219 276.136719 230.550781 276.71875 C 230.800781 277.300781 230.910156 277.90625 230.992188 278.527344 C 231.183594 279.757812 231.019531 281.117188 231.121094 282.429688 C 231.160156 283.089844 231.386719 283.6875 231.515625 284.316406 Z M 123.503906 187.714844 C 123.527344 187.578125 123.640625 187.445312 123.898438 187.289062 L 124.382812 187.066406 C 124.613281 186.992188 124.898438 186.910156 125.160156 186.847656 C 125.167969 186.84375 125.175781 186.839844 125.183594 186.839844 L 126.007812 186.964844 L 126.523438 187.089844 C 126.789062 187.171875 126.933594 187.273438 126.976562 187.371094 C 127.101562 187.574219 127.226562 187.78125 127.332031 187.984375 C 127.355469 188.027344 127.371094 188.074219 127.394531 188.113281 C 127.578125 188.480469 127.738281 188.855469 127.847656 189.230469 C 128.105469 190.074219 128.277344 190.9375 128.679688 191.746094 C 129.445312 193.371094 130.503906 194.851562 131.265625 196.410156 C 131.683594 197.175781 132.015625 197.972656 132.308594 198.800781 C 132.453125 199.210938 132.566406 199.640625 132.695312 200.066406 L 133.148438 201.320312 C 133.441406 202.160156 133.84375 202.949219 134.078125 203.851562 C 134.195312 204.304688 134.324219 204.757812 134.414062 205.238281 L 134.535156 205.976562 C 134.613281 206.199219 134.445312 206.589844 133.378906 207.640625 C 132.050781 208.300781 131.617188 208.300781 131.433594 208.132812 L 130.761719 207.699219 C 130.335938 207.394531 129.886719 207.09375 129.535156 206.726562 C 128.808594 206.011719 128.164062 205.230469 127.59375 204.398438 C 126.992188 203.582031 126.378906 202.761719 125.839844 201.898438 C 125.277344 201.039062 124.914062 200.082031 124.585938 199.117188 C 123.933594 197.179688 123.800781 195.078125 123.617188 193.054688 C 123.613281 193.015625 123.601562 192.972656 123.601562 192.933594 C 123.503906 191.964844 123.308594 191.023438 123.230469 190.054688 C 123.214844 189.867188 123.21875 189.675781 123.222656 189.488281 C 123.226562 189.164062 123.25 188.835938 123.3125 188.503906 C 123.359375 188.242188 123.421875 187.980469 123.503906 187.714844 Z M 123.066406 174.925781 C 123.234375 172.109375 123.636719 169.28125 124.347656 166.53125 C 124.628906 165.445312 124.957031 164.375 125.335938 163.324219 C 125.375 163.21875 125.410156 163.109375 125.449219 163.003906 C 125.757812 162.183594 126.109375 161.382812 126.476562 160.589844 C 127.835938 157.683594 129.566406 154.957031 131.433594 152.386719 C 132.007812 151.550781 132.621094 150.746094 133.234375 149.945312 C 133.828125 149.128906 134.484375 148.351562 135.148438 147.59375 C 135.839844 146.847656 136.5625 146.136719 137.371094 145.503906 C 137.773438 145.1875 138.1875 144.886719 138.617188 144.597656 C 138.828125 144.445312 139.070312 144.335938 139.417969 144.339844 C 139.742188 144.324219 140.175781 144.425781 140.699219 144.699219 C 141.019531 145.855469 140.894531 146.339844 140.609375 146.71875 C 140.332031 147.085938 140.070312 147.476562 139.804688 147.855469 C 139.519531 148.21875 139.261719 148.609375 138.992188 148.980469 L 138.164062 150.089844 C 137.636719 150.851562 137.046875 151.554688 136.554688 152.339844 L 135.796875 153.496094 C 135.5625 153.898438 135.351562 154.308594 135.128906 154.710938 C 133.40625 157.992188 132.25 161.503906 131.136719 164.96875 C 130.871094 165.84375 130.65625 166.730469 130.382812 167.605469 C 130.21875 168.097656 130.078125 168.601562 129.941406 169.109375 C 129.839844 169.484375 129.742188 169.863281 129.636719 170.242188 C 129.417969 171.132812 129.109375 172.003906 128.894531 172.898438 L 128.847656 173.121094 L 128.332031 175.613281 L 128.046875 176.976562 L 127.867188 178.355469 C 127.847656 178.542969 127.808594 178.726562 127.78125 178.910156 C 127.679688 179.648438 127.574219 180.390625 127.433594 181.128906 C 127.261719 182.058594 127.179688 182.996094 127.011719 183.933594 L 126.757812 185.355469 C 126.703125 185.828125 126.429688 186.300781 125.191406 186.839844 C 123.945312 186.40625 123.664062 185.914062 123.605469 185.425781 L 123.332031 183.941406 C 123.1875 182.949219 122.980469 181.953125 122.953125 180.949219 C 122.910156 179.949219 122.898438 178.945312 122.917969 177.941406 L 122.933594 176.429688 Z M 293.472656 148.1875 C 293.375 147.898438 293.265625 147.601562 293.1875 147.296875 C 292.789062 146.105469 292.476562 144.660156 291.742188 143.335938 C 291.386719 142.667969 290.851562 142.136719 290.351562 141.570312 C 290.109375 141.277344 289.882812 140.964844 289.679688 140.605469 C 289.582031 140.425781 289.484375 140.246094 289.390625 140.046875 C 289.335938 139.957031 289.335938 139.808594 289.402344 139.542969 L 289.554688 139.058594 L 289.859375 138.320312 C 290.039062 138.128906 290.25 137.917969 290.429688 137.753906 L 290.84375 137.453125 C 291.082031 137.308594 291.257812 137.273438 291.367188 137.316406 C 291.613281 137.371094 291.859375 137.4375 292.089844 137.515625 C 292.546875 137.6875 292.980469 137.902344 293.355469 138.183594 C 294.128906 138.726562 294.777344 139.402344 295.535156 140.003906 C 297.019531 141.21875 298.597656 142.617188 299.5625 144.515625 C 299.789062 144.992188 300.027344 145.46875 300.199219 145.980469 C 300.347656 146.496094 300.457031 147.027344 300.542969 147.558594 C 300.640625 148.089844 300.582031 148.652344 300.597656 149.1875 L 300.59375 149.992188 L 300.5 150.789062 C 300.421875 151.320312 300.390625 151.847656 300.261719 152.355469 C 300.113281 152.859375 299.949219 153.355469 299.738281 153.832031 C 299.5625 154.320312 299.238281 154.746094 298.925781 155.15625 L 298.421875 155.75 C 298.296875 155.957031 297.890625 156.078125 296.503906 155.761719 C 295.246094 155.046875 294.96875 154.765625 294.96875 154.570312 L 294.84375 153.957031 C 294.785156 153.5625 294.742188 153.1875 294.652344 152.832031 C 294.578125 152.472656 294.542969 152.136719 294.535156 151.808594 C 294.492188 151.476562 294.417969 151.15625 294.367188 150.84375 L 294.285156 150.375 L 294.117188 149.925781 C 293.996094 149.628906 293.921875 149.332031 293.785156 149.050781 C 293.652344 148.765625 293.542969 148.484375 293.472656 148.1875 Z M 199.691406 242.527344 C 200 242.105469 200.324219 241.71875 200.640625 241.324219 C 201.28125 240.550781 202.011719 239.917969 202.671875 239.191406 C 203.003906 238.835938 203.347656 238.496094 203.664062 238.125 C 203.980469 237.757812 204.285156 237.378906 204.613281 237.027344 C 204.945312 236.679688 205.253906 236.3125 205.605469 235.984375 L 206.664062 235.011719 C 208.085938 233.730469 209.703125 232.582031 211.132812 231.222656 C 211.859375 230.550781 212.410156 229.746094 213.03125 228.996094 C 213.328125 228.613281 213.683594 228.257812 214.050781 227.921875 C 214.242188 227.753906 214.441406 227.59375 214.644531 227.433594 C 214.734375 227.347656 214.886719 227.292969 215.160156 227.308594 C 215.410156 227.308594 215.824219 227.402344 216.414062 227.554688 C 216.886719 227.941406 217.171875 228.257812 217.304688 228.480469 C 217.460938 228.722656 217.480469 228.886719 217.445312 229.023438 C 217.398438 229.308594 217.335938 229.589844 217.257812 229.859375 C 217.109375 230.402344 216.894531 230.902344 216.640625 231.382812 C 216.121094 232.328125 215.5 233.199219 214.972656 234.144531 C 213.914062 236.027344 212.886719 238.015625 211.433594 239.648438 C 210.71875 240.464844 209.964844 241.257812 209.085938 241.910156 C 208.199219 242.554688 207.296875 243.167969 206.378906 243.746094 C 205.476562 244.347656 204.539062 244.90625 203.539062 245.351562 C 203.050781 245.589844 202.503906 245.738281 201.96875 245.898438 L 201.148438 246.097656 C 200.890625 246.191406 200.503906 246.085938 199.554688 245.0625 C 199.03125 243.761719 199.066406 243.371094 199.238281 243.179688 Z M 253.402344 69.09375 C 253.300781 69.820312 253.132812 70.535156 252.855469 71.234375 C 252.730469 71.585938 252.507812 71.921875 252.296875 72.253906 L 251.941406 72.742188 C 251.867188 72.90625 251.507812 73.042969 250.097656 73.019531 C 248.722656 72.667969 248.398438 72.472656 248.359375 72.3125 L 248.109375 71.820312 C 247.960938 71.496094 247.84375 71.179688 247.734375 70.867188 C 247.511719 70.25 247.46875 69.652344 247.332031 69.0625 C 247.230469 68.46875 247.046875 67.886719 246.894531 67.3125 C 246.761719 66.738281 246.703125 66.167969 246.714844 65.582031 C 246.679688 64.429688 246.949219 63.183594 246.929688 61.953125 C 246.9375 61.332031 246.734375 60.769531 246.625 60.179688 C 246.5625 59.890625 246.546875 59.578125 246.570312 59.25 C 246.585938 59.089844 246.605469 58.917969 246.636719 58.746094 C 246.632812 58.664062 246.71875 58.542969 246.910156 58.367188 L 247.289062 58.050781 L 247.917969 57.585938 C 248.160156 57.492188 248.441406 57.398438 248.664062 57.332031 L 249.152344 57.234375 C 249.421875 57.207031 249.574219 57.234375 249.644531 57.304688 C 249.816406 57.429688 249.972656 57.558594 250.121094 57.695312 C 250.410156 57.972656 250.636719 58.269531 250.8125 58.59375 C 251.160156 59.242188 251.382812 59.933594 251.734375 60.582031 C 252.429688 61.882812 253.238281 63.230469 253.542969 64.6875 C 253.699219 65.410156 253.8125 66.148438 253.730469 66.890625 C 253.667969 67.632812 253.527344 68.367188 253.402344 69.09375 Z M 251.765625 55.019531 C 251.742188 55.421875 251.46875 55.855469 250.066406 56.324219 C 248.578125 56.035156 248.21875 55.710938 248.113281 55.355469 L 247.6875 54.308594 C 247.417969 53.617188 247.21875 52.925781 246.917969 52.261719 C 246.640625 51.59375 246.402344 50.929688 246.199219 50.253906 C 246.023438 49.574219 245.664062 48.957031 245.414062 48.304688 C 244.367188 45.707031 242.796875 43.4375 241.507812 41.023438 C 240.125 38.65625 238.722656 36.167969 236.835938 33.996094 C 236.359375 33.457031 235.84375 32.960938 235.324219 32.464844 L 233.6875 31.074219 C 233.132812 30.621094 232.601562 30.125 232.078125 29.621094 L 231.304688 28.828125 C 231.035156 28.558594 230.910156 28.128906 231.136719 26.8125 C 231.582031 26.332031 231.96875 26.054688 232.253906 25.945312 C 232.5625 25.808594 232.792969 25.816406 232.988281 25.882812 C 233.386719 26 233.789062 26.125 234.167969 26.28125 C 234.945312 26.570312 235.660156 26.957031 236.351562 27.382812 C 237.046875 27.804688 237.683594 28.3125 238.34375 28.78125 C 238.972656 29.289062 239.632812 29.765625 240.28125 30.261719 C 242.886719 32.21875 245.457031 34.4375 247.371094 37.203125 L 248.097656 38.238281 C 248.316406 38.597656 248.53125 38.957031 248.726562 39.328125 C 249.125 40.066406 249.527344 40.808594 249.828125 41.597656 C 250.398438 43.183594 250.953125 44.765625 251.292969 46.40625 C 251.726562 48.011719 251.960938 49.660156 252.050781 51.308594 C 252.140625 52.128906 252.015625 52.96875 251.9375 53.789062 Z M 96.871094 316.628906 C 97.175781 316.148438 97.46875 315.636719 97.875 315.242188 C 98.648438 314.410156 99.507812 313.652344 100.472656 313.027344 C 101.398438 312.332031 102.414062 311.777344 103.445312 311.214844 C 104.503906 310.738281 105.625 310.367188 106.777344 310.207031 C 109.070312 309.785156 111.414062 310.0625 113.601562 310.457031 C 114.152344 310.558594 114.695312 310.65625 115.242188 310.726562 C 115.78125 310.835938 116.332031 310.898438 116.863281 311.050781 C 117.398438 311.1875 117.921875 311.386719 118.417969 311.65625 C 118.671875 311.785156 118.914062 311.945312 119.15625 312.105469 C 119.273438 312.175781 119.382812 312.3125 119.445312 312.582031 C 119.507812 312.824219 119.527344 313.238281 119.453125 313.816406 C 118.832031 314.828125 118.558594 315.046875 118.304688 315.070312 L 117.574219 315.136719 C 117.09375 315.160156 116.621094 315.167969 116.160156 315.132812 L 114.78125 315.027344 C 114.320312 315.023438 113.859375 315.035156 113.398438 315.070312 C 111.546875 315.273438 109.824219 315.921875 108.183594 316.410156 C 106.570312 316.992188 104.851562 317.230469 103.214844 317.925781 C 102.371094 318.214844 101.621094 318.683594 100.742188 319.023438 C 100.296875 319.175781 99.878906 319.390625 99.417969 319.566406 L 98.707031 319.824219 C 98.492188 319.9375 98.121094 319.875 97.007812 319.105469 C 96.277344 318 96.285156 317.601562 96.445312 317.375 Z M 212.453125 323.867188 L 213.164062 323.332031 C 213.644531 322.996094 214.140625 322.664062 214.652344 322.378906 C 215.714844 321.875 216.835938 321.507812 217.972656 321.152344 C 220.28125 320.597656 222.769531 319.949219 225.304688 320.554688 C 227.832031 320.996094 230.207031 322.273438 232.167969 323.851562 C 232.667969 324.234375 233.152344 324.628906 233.617188 325.050781 C 234.09375 325.445312 234.535156 325.894531 234.945312 326.363281 C 235.339844 326.847656 235.695312 327.359375 235.949219 327.945312 C 236.082031 328.230469 236.195312 328.53125 236.285156 328.847656 C 236.34375 328.992188 236.347656 329.171875 236.21875 329.433594 C 236.113281 329.671875 235.863281 330.003906 235.414062 330.378906 C 234.265625 330.675781 233.925781 330.679688 233.714844 330.527344 L 233.113281 330.109375 C 232.734375 329.824219 232.339844 329.558594 232.003906 329.253906 C 231.628906 328.984375 231.3125 328.660156 230.917969 328.417969 C 230.730469 328.292969 230.546875 328.160156 230.351562 328.042969 L 229.730469 327.757812 C 228.035156 327.042969 226.222656 326.972656 224.484375 326.839844 C 224.039062 326.824219 223.597656 326.808594 223.160156 326.765625 C 222.707031 326.78125 222.25 326.761719 221.792969 326.722656 L 221.101562 326.652344 L 220.390625 326.65625 L 218.949219 326.660156 C 217.980469 326.75 217.003906 326.902344 215.976562 326.917969 C 215.472656 326.976562 214.941406 326.992188 214.40625 327 L 213.585938 326.988281 C 213.324219 327.015625 212.980469 326.820312 212.253906 325.6875 C 212.035156 324.378906 212.207031 324.011719 212.453125 323.867188 Z M 242.71875 181.707031 C 242.320312 181.347656 242.289062 180.734375 242.644531 180.332031 C 243.347656 179.550781 244.164062 178.875 245.050781 178.332031 C 245.925781 177.78125 246.859375 177.320312 247.816406 176.957031 C 248.78125 176.601562 249.761719 176.304688 250.761719 176.121094 C 251.769531 175.929688 252.769531 175.816406 253.839844 175.871094 C 254.113281 175.890625 254.371094 176.050781 254.492188 176.3125 C 254.667969 176.699219 254.503906 177.148438 254.117188 177.328125 L 254.074219 177.347656 C 253.21875 177.746094 252.316406 178.105469 251.445312 178.457031 C 250.574219 178.824219 249.710938 179.167969 248.855469 179.539062 C 247.996094 179.890625 247.164062 180.285156 246.328125 180.664062 C 245.484375 181.042969 244.679688 181.464844 243.8125 181.847656 L 243.753906 181.871094 C 243.417969 182.019531 243.011719 181.96875 242.71875 181.707031 Z M 248.851562 192.816406 C 249.339844 192 249.945312 191.253906 250.65625 190.625 C 251.347656 189.976562 252.128906 189.433594 252.941406 188.960938 C 253.765625 188.496094 254.621094 188.101562 255.519531 187.824219 C 256.421875 187.539062 257.316406 187.347656 258.332031 187.328125 C 258.683594 187.324219 259.027344 187.507812 259.203125 187.839844 C 259.457031 188.308594 259.28125 188.898438 258.808594 189.152344 L 258.714844 189.203125 C 258.011719 189.582031 257.226562 189.941406 256.488281 190.296875 C 255.742188 190.660156 255 191.019531 254.277344 191.40625 C 253.539062 191.769531 252.824219 192.171875 252.109375 192.582031 C 251.382812 192.980469 250.695312 193.441406 249.925781 193.859375 L 249.871094 193.886719 C 249.644531 194.007812 249.355469 194.011719 249.117188 193.871094 C 248.753906 193.652344 248.632812 193.179688 248.851562 192.816406 Z M 254.574219 166.359375 C 254.632812 166.769531 254.351562 167.152344 253.941406 167.214844 L 253.804688 167.234375 C 253.023438 167.351562 252.121094 167.488281 251.289062 167.640625 C 250.441406 167.800781 249.597656 167.964844 248.757812 168.160156 C 248.332031 168.25 247.910156 168.339844 247.488281 168.449219 C 247.0625 168.53125 246.644531 168.664062 246.210938 168.746094 C 245.355469 168.945312 244.5 169.15625 243.59375 169.292969 L 243.558594 169.296875 C 243.203125 169.351562 242.828125 169.203125 242.609375 168.882812 C 242.308594 168.4375 242.421875 167.828125 242.863281 167.523438 C 243.664062 166.980469 244.527344 166.550781 245.425781 166.207031 C 246.324219 165.859375 247.253906 165.605469 248.210938 165.425781 C 249.171875 165.269531 250.144531 165.167969 251.128906 165.207031 C 252.125 165.25 253.074219 165.363281 254.105469 165.769531 C 254.34375 165.867188 254.53125 166.082031 254.574219 166.359375 Z M 235.304688 208.179688 C 235.289062 208.226562 234.125 211.933594 235.277344 215.828125 C 235.523438 216.652344 235.871094 217.476562 236.351562 218.28125 C 236.46875 218.472656 236.574219 218.660156 236.703125 218.847656 C 236.964844 219.226562 237.261719 219.585938 237.574219 219.929688 C 240.546875 223.226562 245.8125 225.070312 253.265625 225.40625 L 253.660156 225.421875 C 259.875 225.707031 272.8125 226.296875 277.828125 219.765625 C 279.953125 216.992188 280.449219 213.0625 279.316406 208.070312 C 279.167969 208.191406 279.015625 208.316406 278.863281 208.441406 C 277.925781 209.15625 276.964844 209.832031 275.957031 210.429688 C 274.179688 211.492188 272.328125 212.40625 270.402344 213.128906 C 270.359375 213.308594 270.296875 213.488281 270.191406 213.652344 C 269.644531 214.539062 269.121094 215.261719 268.515625 216 C 267.917969 216.726562 267.277344 217.417969 266.605469 218.078125 C 265.9375 218.738281 265.214844 219.351562 264.453125 219.917969 C 263.6875 220.480469 262.851562 220.960938 261.980469 221.339844 C 261.601562 221.503906 261.140625 221.414062 260.855469 221.078125 C 260.515625 220.671875 260.5625 220.0625 260.96875 219.71875 L 261.019531 219.675781 C 261.652344 219.136719 262.277344 218.617188 262.855469 218.023438 C 263.4375 217.4375 263.996094 216.832031 264.503906 216.171875 C 264.910156 215.648438 265.289062 215.109375 265.652344 214.550781 C 264.738281 214.761719 263.820312 214.9375 262.890625 215.046875 C 261.753906 215.246094 260.59375 215.261719 259.453125 215.347656 C 258.304688 215.40625 257.15625 215.332031 256.015625 215.308594 C 255.527344 215.296875 255.117188 214.917969 255.078125 214.425781 C 255.035156 213.898438 255.429688 213.433594 255.957031 213.394531 L 256.042969 213.386719 L 257.671875 213.261719 C 258.136719 213.21875 258.605469 213.21875 259.066406 213.160156 C 259.136719 213.148438 259.214844 213.144531 259.289062 213.128906 C 260.359375 212.964844 261.433594 212.875 262.480469 212.609375 C 264.597656 212.226562 266.644531 211.550781 268.625 210.765625 C 270.605469 209.972656 272.476562 208.921875 274.230469 207.742188 C 274.769531 207.386719 275.285156 207 275.789062 206.605469 C 276.113281 206.355469 276.4375 206.097656 276.753906 205.839844 C 277.144531 205.492188 277.546875 205.152344 277.910156 204.789062 C 278.101562 204.609375 278.28125 204.429688 278.453125 204.246094 C 278.621094 204.074219 278.8125 203.859375 278.921875 203.730469 L 278.964844 203.679688 C 278.976562 203.664062 278.992188 203.648438 279.003906 203.636719 C 279.019531 203.617188 279.042969 203.601562 279.058594 203.585938 C 279.242188 203.40625 284.136719 198.574219 283.328125 193.242188 C 282.707031 193.257812 282.09375 193.25 281.464844 193.222656 C 280.328125 193.167969 279.195312 193.054688 278.066406 192.875 C 276.941406 192.699219 275.824219 192.433594 274.726562 192.089844 C 273.628906 191.734375 272.5625 191.25 271.570312 190.648438 C 271.203125 190.421875 271.019531 189.964844 271.15625 189.53125 C 271.316406 189.027344 271.855469 188.746094 272.367188 188.90625 L 272.421875 188.921875 C 273.386719 189.230469 274.347656 189.511719 275.347656 189.691406 C 276.347656 189.867188 277.351562 190.011719 278.375 190.050781 C 279.394531 190.101562 280.421875 190.09375 281.445312 190.027344 C 282.453125 189.960938 283.523438 189.867188 284.4375 189.703125 L 284.476562 189.695312 C 284.53125 189.683594 284.585938 189.675781 284.640625 189.671875 C 284.675781 189.667969 284.710938 189.675781 284.75 189.671875 C 284.960938 189.65625 285.425781 189.597656 286.058594 189.460938 C 286.546875 189.355469 287.121094 189.199219 287.753906 188.972656 C 288.289062 188.777344 288.855469 188.535156 289.429688 188.21875 C 290.515625 187.632812 291.613281 186.804688 292.535156 185.644531 C 294.859375 182.722656 295.527344 178.421875 294.523438 172.859375 C 294.4375 172.386719 294.328125 171.875 294.195312 171.339844 C 291.773438 173.636719 289.351562 175.546875 287.207031 176.808594 C 286.828125 177.03125 286.457031 177.242188 286.097656 177.421875 C 285.9375 177.5 285.769531 177.5625 285.605469 177.628906 C 285.070312 177.851562 284.511719 178.011719 283.929688 178.113281 C 283.40625 178.203125 282.871094 178.261719 282.324219 178.261719 C 279.449219 178.261719 276.398438 177.015625 274.449219 174.808594 C 273.125 173.3125 270.488281 169.183594 274.496094 163.183594 C 275.398438 161.832031 276.578125 160.421875 277.839844 158.941406 C 278.011719 158.742188 278.179688 158.546875 278.351562 158.347656 C 278.613281 158.039062 278.875 157.730469 279.140625 157.417969 C 279.34375 157.179688 279.546875 156.941406 279.75 156.699219 C 279.5 156.628906 279.183594 156.574219 278.816406 156.53125 C 278.28125 156.46875 277.636719 156.4375 276.929688 156.453125 C 274.359375 156.503906 270.976562 157.148438 269.035156 158.984375 C 269.027344 158.996094 269.015625 159 269.007812 159.007812 C 268.996094 159.019531 268.984375 159.035156 268.96875 159.046875 L 268.925781 159.085938 L 268.773438 159.207031 C 268.714844 159.253906 268.652344 159.308594 268.589844 159.367188 C 268.464844 159.480469 268.339844 159.597656 268.214844 159.722656 C 267.960938 159.960938 267.730469 160.238281 267.492188 160.5 C 267.25 160.789062 267.015625 161.089844 266.785156 161.394531 C 266.585938 161.667969 266.386719 161.945312 266.203125 162.230469 C 265.425781 163.449219 264.769531 164.769531 264.347656 166.179688 C 264.214844 166.523438 264.15625 166.890625 264.058594 167.242188 C 263.964844 167.601562 263.878906 167.960938 263.832031 168.328125 L 263.660156 169.429688 L 263.585938 170.546875 C 263.5 171.242188 263.574219 171.949219 263.566406 172.65625 C 263.566406 172.707031 263.570312 172.753906 263.566406 172.804688 C 263.601562 173.5625 263.703125 174.320312 263.753906 175.085938 L 263.761719 175.203125 C 263.796875 175.664062 263.484375 176.097656 263.019531 176.203125 C 262.503906 176.320312 261.992188 175.996094 261.875 175.484375 C 261.691406 174.671875 261.46875 173.863281 261.339844 173.039062 L 261.1875 171.785156 C 261.125 171.367188 261.109375 170.945312 261.109375 170.523438 L 261.09375 169.246094 L 261.195312 167.972656 C 261.214844 167.546875 261.285156 167.125 261.363281 166.703125 C 261.449219 166.28125 261.488281 165.847656 261.609375 165.433594 C 261.984375 163.753906 262.632812 162.128906 263.460938 160.597656 C 263.871094 159.832031 264.359375 159.101562 264.882812 158.398438 C 264.957031 158.308594 265.027344 158.21875 265.101562 158.128906 C 261.195312 156.113281 250.976562 152.355469 237.058594 158.453125 C 236.523438 158.6875 235.988281 158.933594 235.445312 159.199219 C 234.917969 159.453125 234.382812 159.726562 233.84375 160.011719 C 233.5625 160.160156 233.285156 160.296875 233.003906 160.453125 C 229.679688 162.292969 222.640625 167.875 222.105469 173.394531 C 221.867188 175.851562 222.9375 178.039062 225.367188 180.085938 C 225.890625 180.523438 226.109375 181.226562 225.925781 181.882812 C 225.875 182.074219 220.796875 201.085938 234.246094 205.996094 C 235.128906 206.320312 235.597656 207.285156 235.304688 208.179688 Z M 76.140625 183.445312 C 74.679688 185.457031 72.898438 189.667969 77.171875 195.457031 C 79.238281 198.257812 82.8125 203.085938 89.867188 204.195312 C 88.167969 195.910156 87.789062 186.957031 88.734375 177.375 C 89.875 165.855469 93.769531 155.585938 98.917969 145.640625 C 99.570312 144.386719 100.238281 143.136719 100.925781 141.890625 C 101.644531 140.582031 102.386719 139.277344 103.140625 137.976562 C 103.675781 137.046875 104.21875 136.121094 104.773438 135.195312 C 104.449219 134.976562 104.105469 134.765625 103.726562 134.574219 C 102.199219 133.796875 100.421875 133.410156 98.414062 133.410156 C 95.9375 133.410156 93.105469 134.003906 89.941406 135.183594 C 87.84375 135.972656 85.960938 136.835938 84.300781 137.761719 C 83.742188 138.074219 83.207031 138.390625 82.695312 138.71875 C 82.144531 139.074219 81.625 139.441406 81.132812 139.8125 C 78.71875 141.640625 77.058594 143.664062 76.226562 145.828125 C 75.308594 148.203125 75.363281 150.847656 76.363281 153.714844 C 76.527344 153.523438 76.6875 153.332031 76.851562 153.140625 C 77.667969 152.214844 78.503906 151.3125 79.359375 150.425781 C 80.585938 149.15625 81.867188 147.9375 83.195312 146.769531 C 83.664062 146.359375 84.136719 145.957031 84.613281 145.558594 C 84.675781 145.511719 84.730469 145.460938 84.792969 145.410156 C 85.242188 145.042969 85.914062 145.070312 86.332031 145.496094 C 86.765625 145.949219 86.757812 146.667969 86.304688 147.109375 L 86.296875 147.117188 C 86.035156 147.367188 85.792969 147.640625 85.539062 147.898438 C 85.089844 148.347656 84.648438 148.800781 84.21875 149.261719 C 83.285156 150.261719 82.371094 151.285156 81.507812 152.347656 C 80.757812 153.261719 80.03125 154.195312 79.328125 155.144531 C 78.628906 156.085938 77.929688 157.078125 77.320312 158.019531 L 77.304688 158.042969 C 77.296875 158.054688 77.289062 158.066406 77.28125 158.078125 C 76.65625 158.996094 70.160156 169.105469 77.566406 179.851562 C 78.167969 180.679688 78.824219 181.53125 79.480469 182.351562 C 80.160156 183.207031 80.863281 184.046875 81.574219 184.875 C 83.003906 186.53125 84.5 188.125 86.082031 189.613281 L 86.09375 189.621094 C 86.515625 190.019531 86.570312 190.683594 86.203125 191.152344 C 85.816406 191.648438 85.101562 191.734375 84.609375 191.34375 C 83.242188 190.273438 81.941406 189.128906 80.675781 187.957031 C 80.679688 187.996094 80.6875 188.039062 80.691406 188.074219 C 80.871094 189.535156 81.085938 190.992188 81.144531 192.480469 L 81.148438 192.488281 C 81.160156 192.890625 80.925781 193.277344 80.53125 193.433594 C 80.035156 193.628906 79.46875 193.386719 79.269531 192.882812 C 78.71875 191.496094 78.332031 190.078125 77.902344 188.664062 C 77.476562 187.25 77.070312 185.832031 76.679688 184.410156 C 76.660156 184.34375 76.644531 184.273438 76.632812 184.203125 C 76.625 184.121094 76.625 184.039062 76.625 183.960938 C 76.460938 183.789062 76.300781 183.617188 76.140625 183.445312 " fill-opacity="1" fill-rule="nonzero"/><path fill="rgb(100%, 38.42926%, 34.509277%)" d="M 233.445312 327.75 C 233.363281 327.9375 233.167969 328.191406 232.824219 328.480469 C 231.945312 328.707031 231.683594 328.710938 231.519531 328.589844 L 231.058594 328.269531 C 230.765625 328.054688 230.464844 327.847656 230.203125 327.613281 C 229.917969 327.40625 229.675781 327.15625 229.371094 326.972656 C 229.226562 326.875 229.085938 326.773438 228.9375 326.683594 L 228.460938 326.460938 C 227.15625 325.914062 225.761719 325.859375 224.425781 325.757812 C 224.085938 325.75 223.75 325.734375 223.410156 325.703125 C 223.058594 325.714844 222.710938 325.699219 222.359375 325.667969 L 221.828125 325.613281 L 221.28125 325.617188 L 220.175781 325.625 C 219.429688 325.6875 218.679688 325.804688 217.890625 325.816406 C 217.5 325.867188 217.097656 325.875 216.683594 325.886719 L 216.054688 325.875 C 215.851562 325.894531 215.589844 325.746094 215.03125 324.875 C 214.863281 323.867188 214.996094 323.585938 215.183594 323.472656 L 215.730469 323.0625 C 216.101562 322.804688 216.480469 322.550781 216.875 322.332031 C 217.691406 321.945312 218.550781 321.660156 219.421875 321.390625 C 221.199219 320.960938 223.109375 320.464844 225.0625 320.933594 C 227 321.269531 228.820312 322.25 230.332031 323.464844 C 230.714844 323.757812 231.089844 324.058594 231.441406 324.386719 C 231.8125 324.6875 232.148438 325.03125 232.464844 325.390625 C 232.769531 325.761719 233.042969 326.160156 233.238281 326.609375 C 233.339844 326.832031 233.429688 327.058594 233.496094 327.300781 C 233.539062 327.414062 233.542969 327.550781 233.445312 327.75 Z M 245.207031 317.28125 C 244.976562 316.796875 245.179688 316.222656 245.660156 315.996094 L 245.734375 315.960938 C 246.441406 315.621094 247.136719 315.320312 247.785156 314.914062 C 248.441406 314.535156 249.058594 314.097656 249.628906 313.601562 C 250.199219 313.113281 250.734375 312.582031 251.21875 312.007812 C 251.457031 311.722656 251.6875 311.429688 251.90625 311.132812 C 252.109375 310.851562 252.339844 310.5 252.453125 310.28125 C 252.488281 310.21875 252.527344 310.148438 252.570312 310.089844 C 252.710938 309.890625 252.886719 309.726562 253.078125 309.605469 C 255.355469 303.761719 255.441406 299.074219 253.332031 295.652344 C 250.054688 290.347656 242.433594 289.609375 240.9375 289.519531 C 240.625 289.5 240.316406 289.484375 240.011719 289.464844 C 241.753906 293.898438 243.273438 296.964844 243.964844 298.292969 C 244.609375 297.773438 245.214844 297.171875 245.753906 296.625 L 245.824219 296.554688 C 246.125 296.242188 246.613281 296.167969 247 296.402344 C 247.453125 296.679688 247.59375 297.265625 247.320312 297.714844 C 247.003906 298.238281 246.699219 298.664062 246.34375 299.09375 C 246 299.523438 245.632812 299.929688 245.25 300.328125 C 244.871094 300.722656 244.441406 301.070312 244.035156 301.445312 C 243.601562 301.785156 243.160156 302.117188 242.710938 302.441406 C 242.234375 302.730469 241.765625 303.03125 241.28125 303.300781 L 239.761719 304.019531 C 239.234375 304.210938 238.699219 304.378906 238.167969 304.558594 C 237.628906 304.722656 237.070312 304.804688 236.519531 304.921875 C 235.96875 305.050781 235.40625 305.058594 234.84375 305.09375 C 234.28125 305.121094 233.726562 305.183594 233.167969 305.101562 L 231.503906 304.953125 C 230.960938 304.839844 230.421875 304.703125 229.890625 304.578125 L 229.085938 304.378906 C 228.832031 304.289062 228.578125 304.1875 228.324219 304.082031 L 226.8125 303.472656 C 226.316406 303.257812 225.871094 302.949219 225.398438 302.695312 C 224.933594 302.429688 224.476562 302.15625 224.023438 301.871094 C 223.746094 301.695312 223.605469 301.351562 223.707031 301.019531 C 223.828125 300.628906 224.246094 300.410156 224.640625 300.527344 L 224.738281 300.558594 C 225.277344 300.722656 225.796875 300.921875 226.3125 301.117188 C 224.792969 298.722656 223.460938 296.226562 222.292969 293.6875 C 219.953125 295.5 218.457031 297.648438 217.828125 300.101562 C 216.410156 305.613281 219.636719 311.394531 221.070312 313.609375 C 221.617188 313.566406 222.125 313.546875 222.660156 313.546875 C 223.402344 313.53125 224.136719 313.566406 224.875 313.601562 C 225.609375 313.65625 226.339844 313.726562 227.066406 313.816406 C 227.792969 313.9375 228.523438 314.023438 229.238281 314.1875 C 232.109375 314.765625 234.914062 315.710938 237.507812 317.0625 C 240.089844 318.414062 242.5625 320.023438 244.652344 322.042969 C 245.761719 322.980469 246.667969 324.121094 247.632812 325.1875 C 248.578125 326.277344 249.34375 327.503906 250.1875 328.660156 C 250.476562 329.0625 250.414062 329.632812 250.027344 329.957031 C 249.621094 330.296875 249.015625 330.242188 248.679688 329.839844 L 248.605469 329.753906 L 247.292969 328.191406 C 246.847656 327.683594 246.472656 327.109375 245.96875 326.660156 C 244.996094 325.714844 244.097656 324.707031 243.015625 323.902344 C 240.996094 322.128906 238.679688 320.75 236.273438 319.621094 C 233.867188 318.488281 231.285156 317.742188 228.667969 317.324219 C 228.015625 317.203125 227.355469 317.160156 226.699219 317.074219 C 226.039062 317.015625 225.375 316.976562 224.71875 316.945312 C 224.058594 316.941406 223.402344 316.925781 222.75 316.960938 C 222.113281 316.980469 221.417969 317.050781 220.882812 317.125 L 220.78125 317.140625 C 220.765625 317.140625 220.753906 317.140625 220.738281 317.144531 C 220.382812 317.183594 220.042969 317.113281 219.75 316.960938 C 198.640625 320.539062 195.296875 337.339844 194.816406 341.054688 C 205.191406 349.328125 223.035156 349.984375 232.082031 349.03125 C 252.335938 346.910156 260.570312 334.574219 261.796875 332.550781 C 261.667969 323.125 256.617188 316.25 254.230469 313.519531 C 253.992188 313.769531 253.753906 314.015625 253.503906 314.246094 C 252.820312 314.871094 252.085938 315.429688 251.300781 315.914062 C 250.523438 316.402344 249.707031 316.828125 248.847656 317.152344 C 248 317.496094 247.101562 317.703125 246.203125 317.824219 C 245.800781 317.875 245.390625 317.667969 245.207031 317.28125 Z M 193.351562 343.4375 C 202.140625 350.257812 215.523438 352.148438 225.398438 352.148438 C 228.023438 352.148438 230.402344 352.015625 232.375 351.808594 C 252.484375 349.699219 261.386719 338.335938 263.761719 334.679688 C 264.546875 335.109375 265.585938 335.890625 265.964844 337.128906 C 266.503906 338.902344 265.578125 341.328125 263.292969 344.15625 C 257.714844 351.035156 240.546875 359.429688 222.257812 359.429688 C 213.222656 359.429688 203.914062 357.382812 195.597656 352.089844 C 193.675781 350.867188 191.605469 348.8125 191.5625 346.71875 C 191.535156 345.585938 192.140625 344.484375 193.351562 343.4375 Z M 137.847656 150.320312 C 137.617188 150.613281 137.410156 150.933594 137.191406 151.242188 C 136.960938 151.53125 136.757812 151.847656 136.535156 152.152344 L 135.871094 153.046875 C 135.441406 153.664062 134.960938 154.230469 134.566406 154.867188 L 133.953125 155.804688 C 133.765625 156.125 133.589844 156.460938 133.410156 156.789062 C 132.011719 159.441406 131.082031 162.28125 130.179688 165.085938 C 129.964844 165.792969 129.789062 166.515625 129.570312 167.21875 C 129.4375 167.621094 129.320312 168.027344 129.210938 168.433594 C 129.128906 168.742188 129.050781 169.046875 128.96875 169.355469 C 128.789062 170.074219 128.539062 170.78125 128.363281 171.503906 L 128.328125 171.683594 L 127.910156 173.699219 L 127.679688 174.804688 L 127.535156 175.921875 C 127.515625 176.070312 127.484375 176.222656 127.464844 176.367188 C 127.382812 176.96875 127.296875 177.5625 127.183594 178.164062 C 127.046875 178.914062 126.976562 179.671875 126.839844 180.4375 L 126.636719 181.582031 C 126.589844 181.96875 126.371094 182.351562 125.367188 182.785156 C 124.359375 182.4375 124.132812 182.039062 124.085938 181.640625 L 123.863281 180.441406 C 123.746094 179.636719 123.578125 178.832031 123.554688 178.019531 C 123.523438 177.210938 123.511719 176.394531 123.527344 175.582031 L 123.542969 174.359375 L 123.648438 173.144531 C 123.785156 170.863281 124.113281 168.578125 124.6875 166.351562 C 124.914062 165.472656 125.179688 164.605469 125.488281 163.753906 C 125.515625 163.667969 125.542969 163.582031 125.578125 163.496094 C 125.828125 162.835938 126.109375 162.183594 126.410156 161.542969 C 127.511719 159.191406 128.90625 156.984375 130.417969 154.90625 C 130.882812 154.230469 131.378906 153.578125 131.875 152.929688 C 132.355469 152.269531 132.886719 151.640625 133.425781 151.023438 C 133.984375 150.421875 134.570312 149.847656 135.222656 149.335938 C 135.550781 149.078125 135.886719 148.835938 136.234375 148.601562 C 136.402344 148.480469 136.597656 148.390625 136.878906 148.394531 C 137.140625 148.378906 137.492188 148.464844 137.917969 148.683594 C 138.175781 149.621094 138.074219 150.011719 137.847656 150.320312 Z M 125.3125 194.421875 C 125.25 193.769531 125.117188 193.132812 125.066406 192.476562 C 125.054688 192.351562 125.058594 192.222656 125.058594 192.09375 C 125.0625 191.875 125.074219 191.65625 125.121094 191.433594 C 125.152344 191.253906 125.191406 191.078125 125.25 190.894531 C 125.265625 190.808594 125.34375 190.714844 125.515625 190.613281 L 125.84375 190.460938 C 126 190.410156 126.191406 190.355469 126.367188 190.308594 C 126.371094 190.308594 126.378906 190.308594 126.386719 190.308594 L 126.941406 190.390625 L 127.289062 190.476562 C 127.46875 190.53125 127.566406 190.597656 127.59375 190.667969 C 127.679688 190.800781 127.765625 190.945312 127.835938 191.082031 C 127.851562 191.109375 127.863281 191.140625 127.878906 191.167969 C 128 191.414062 128.109375 191.667969 128.183594 191.921875 C 128.359375 192.492188 128.472656 193.078125 128.746094 193.621094 C 129.265625 194.71875 129.976562 195.71875 130.492188 196.773438 C 130.777344 197.292969 131 197.828125 131.199219 198.386719 C 131.296875 198.664062 131.371094 198.957031 131.460938 199.242188 L 131.765625 200.089844 C 131.964844 200.660156 132.234375 201.195312 132.394531 201.804688 C 132.472656 202.109375 132.558594 202.414062 132.621094 202.742188 L 132.703125 203.238281 C 132.757812 203.390625 132.640625 203.652344 131.921875 204.363281 C 131.023438 204.808594 130.730469 204.808594 130.605469 204.695312 L 130.152344 204.402344 C 129.863281 204.195312 129.5625 203.996094 129.324219 203.746094 C 128.832031 203.265625 128.398438 202.734375 128.011719 202.171875 C 127.605469 201.617188 127.1875 201.070312 126.824219 200.480469 C 126.449219 199.902344 126.199219 199.253906 125.980469 198.601562 C 125.535156 197.296875 125.449219 195.871094 125.324219 194.507812 C 125.324219 194.480469 125.316406 194.453125 125.3125 194.421875 Z M 204.664062 192.109375 C 206.304688 156.796875 187.683594 141.378906 173.382812 136.722656 C 172.816406 136.539062 172.257812 136.371094 171.699219 136.21875 C 171.125 136.0625 170.558594 135.921875 170.003906 135.796875 C 169.378906 135.660156 168.761719 135.535156 168.164062 135.441406 C 143.5 131.488281 129.261719 142.160156 122.089844 153.601562 C 121.734375 154.167969 121.390625 154.742188 121.070312 155.3125 C 120.730469 155.917969 120.40625 156.519531 120.105469 157.121094 C 118.210938 160.886719 117.042969 164.582031 116.484375 167.710938 C 114.367188 179.558594 115.054688 188.933594 117.3125 196.351562 C 117.492188 196.925781 117.675781 197.492188 117.871094 198.042969 C 118.066406 198.601562 118.269531 199.152344 118.484375 199.6875 C 126.039062 218.578125 144.253906 222.980469 147.082031 223.554688 C 149.976562 224.140625 152.777344 224.566406 155.503906 224.867188 C 156.082031 224.933594 156.667969 225.003906 157.238281 225.058594 C 157.828125 225.109375 158.402344 225.140625 158.984375 225.175781 C 172.410156 226.078125 183.566406 223.339844 191.644531 217.042969 C 203.0625 208.140625 204.496094 195.707031 204.664062 192.109375 Z M 116.753906 313.625 C 116.277344 314.398438 116.070312 314.566406 115.871094 314.582031 L 115.316406 314.636719 C 114.945312 314.65625 114.585938 314.664062 114.234375 314.632812 L 113.175781 314.554688 C 112.824219 314.546875 112.46875 314.554688 112.117188 314.585938 C 110.699219 314.742188 109.378906 315.238281 108.125 315.609375 C 106.886719 316.058594 105.574219 316.238281 104.320312 316.769531 C 103.671875 316.996094 103.097656 317.355469 102.425781 317.609375 C 102.082031 317.726562 101.765625 317.894531 101.410156 318.03125 L 100.867188 318.226562 C 100.703125 318.3125 100.417969 318.265625 99.566406 317.675781 C 99.003906 316.828125 99.015625 316.523438 99.132812 316.351562 L 99.460938 315.78125 C 99.695312 315.410156 99.917969 315.019531 100.230469 314.71875 C 100.824219 314.078125 101.480469 313.5 102.222656 313.019531 C 102.929688 312.488281 103.707031 312.0625 104.496094 311.636719 C 105.308594 311.269531 106.167969 310.980469 107.046875 310.859375 C 108.804688 310.539062 110.597656 310.746094 112.273438 311.054688 C 112.695312 311.132812 113.109375 311.207031 113.53125 311.261719 C 113.945312 311.34375 114.363281 311.390625 114.769531 311.507812 C 115.179688 311.613281 115.578125 311.765625 115.960938 311.972656 C 116.152344 312.070312 116.339844 312.191406 116.523438 312.316406 C 116.621094 312.367188 116.699219 312.472656 116.746094 312.683594 C 116.796875 312.863281 116.8125 313.179688 116.753906 313.625 Z M 123.957031 310.015625 C 121.847656 308.320312 115.59375 304.21875 106.5625 306.460938 C 89.945312 310.582031 90.15625 327.335938 90.300781 330.050781 C 101.59375 347.722656 134.09375 343.550781 140.527344 342.527344 C 171.78125 337.558594 180.550781 330.589844 182.003906 329.230469 C 184.355469 314.503906 178.0625 308.207031 174.804688 305.992188 C 174.800781 306 174.800781 306.003906 174.796875 306.011719 C 174.582031 306.707031 174.316406 307.382812 173.988281 308.027344 C 173.335938 309.320312 172.5 310.523438 171.46875 311.523438 C 171.230469 311.792969 170.941406 312.007812 170.675781 312.246094 C 170.402344 312.476562 170.132812 312.710938 169.832031 312.898438 L 168.953125 313.496094 L 168.019531 313.988281 C 167.710938 314.152344 167.398438 314.304688 167.070312 314.414062 L 166.097656 314.773438 C 165.445312 314.984375 164.769531 315.109375 164.113281 315.265625 C 163.675781 315.367188 163.214844 315.152344 163.023438 314.726562 C 162.804688 314.25 163.019531 313.683594 163.5 313.464844 L 163.621094 313.40625 C 164.175781 313.15625 164.738281 312.945312 165.277344 312.691406 C 165.785156 312.386719 166.347656 312.179688 166.808594 311.824219 L 167.535156 311.347656 L 168.195312 310.800781 C 168.425781 310.628906 168.617188 310.421875 168.8125 310.214844 C 169.003906 310.007812 169.226562 309.828125 169.386719 309.59375 C 170.121094 308.746094 170.671875 307.757812 171.078125 306.722656 C 171.277344 306.203125 171.4375 305.667969 171.566406 305.136719 C 171.617188 304.867188 171.679688 304.597656 171.710938 304.332031 C 171.753906 304.082031 171.773438 303.765625 171.777344 303.621094 L 171.777344 303.578125 C 171.777344 303.53125 171.78125 303.484375 171.78125 303.4375 C 171.808594 303.136719 171.921875 302.863281 172.078125 302.628906 C 171.867188 299.84375 170.796875 297.652344 168.816406 295.96875 C 165.933594 293.507812 161.636719 292.574219 157.8125 292.351562 C 159.894531 296.855469 161.699219 299.941406 162.464844 301.191406 C 163.128906 300.65625 163.757812 300.039062 164.3125 299.472656 L 164.382812 299.398438 C 164.683594 299.089844 165.171875 299.015625 165.558594 299.253906 C 166.011719 299.527344 166.15625 300.109375 165.878906 300.5625 C 165.566406 301.085938 165.257812 301.511719 164.902344 301.941406 C 164.558594 302.371094 164.191406 302.777344 163.808594 303.171875 C 163.433594 303.574219 163.003906 303.917969 162.597656 304.292969 C 162.164062 304.632812 161.71875 304.964844 161.269531 305.289062 C 160.796875 305.582031 160.328125 305.882812 159.839844 306.148438 L 158.324219 306.871094 C 157.792969 307.058594 157.257812 307.226562 156.726562 307.40625 C 156.191406 307.574219 155.628906 307.648438 155.078125 307.769531 C 154.527344 307.898438 153.964844 307.90625 153.402344 307.941406 C 152.84375 307.96875 152.285156 308.03125 151.726562 307.949219 L 150.0625 307.800781 C 149.519531 307.6875 148.984375 307.550781 148.449219 307.421875 L 147.648438 307.226562 C 147.390625 307.136719 147.136719 307.035156 146.882812 306.929688 L 145.371094 306.320312 C 144.875 306.109375 144.425781 305.796875 143.957031 305.542969 C 143.492188 305.277344 143.035156 305 142.582031 304.722656 C 142.304688 304.542969 142.167969 304.199219 142.265625 303.867188 C 142.390625 303.476562 142.804688 303.253906 143.199219 303.375 L 143.296875 303.40625 C 143.867188 303.582031 144.414062 303.792969 144.964844 303.996094 C 143.410156 301.464844 142.019531 298.917969 140.773438 296.375 C 136.246094 299.4375 135.554688 303.257812 135.5 305.03125 C 135.726562 305.3125 135.875 305.660156 135.890625 306.046875 C 135.898438 306.164062 135.929688 306.4375 135.972656 306.648438 C 136.011719 306.875 136.066406 307.105469 136.125 307.332031 C 136.246094 307.789062 136.402344 308.242188 136.578125 308.683594 C 136.941406 309.566406 137.433594 310.394531 138.058594 311.117188 C 138.679688 311.835938 139.40625 312.492188 140.261719 312.980469 C 140.65625 313.277344 141.128906 313.449219 141.574219 313.691406 C 142.03125 313.90625 142.519531 314.066406 142.996094 314.273438 L 143.136719 314.332031 C 143.535156 314.503906 143.777344 314.933594 143.695312 315.378906 C 143.605469 315.898438 143.105469 316.242188 142.589844 316.148438 C 142.003906 316.042969 141.402344 315.972656 140.820312 315.804688 C 140.242188 315.621094 139.652344 315.457031 139.097656 315.175781 C 137.964844 314.683594 136.929688 313.933594 136.007812 313.078125 C 135.085938 312.214844 134.3125 311.1875 133.710938 310.078125 C 133.558594 309.800781 133.421875 309.511719 133.285156 309.230469 C 133.164062 308.9375 133.035156 308.644531 132.933594 308.34375 C 132.882812 308.195312 132.839844 308.039062 132.792969 307.890625 C 131.875 308.089844 130.710938 308.40625 129.726562 308.851562 C 129.070312 309.152344 128.53125 309.453125 128.089844 309.730469 C 128.386719 310.082031 128.671875 310.441406 128.941406 310.8125 C 129.546875 311.644531 130.09375 312.515625 130.582031 313.414062 C 131.070312 314.3125 131.5 315.25 131.839844 316.21875 C 132.195312 317.179688 132.414062 318.195312 132.550781 319.207031 C 132.605469 319.625 132.378906 320.050781 131.972656 320.21875 C 131.484375 320.429688 130.917969 320.203125 130.707031 319.714844 L 130.679688 319.652344 C 130.324219 318.8125 130 317.984375 129.5625 317.195312 C 129.152344 316.402344 128.691406 315.632812 128.167969 314.90625 C 127.648438 314.179688 127.082031 313.484375 126.472656 312.832031 C 126.164062 312.511719 125.855469 312.191406 125.539062 311.882812 C 125.234375 311.589844 124.875 311.265625 124.605469 311.054688 L 124.589844 311.042969 C 124.542969 311.007812 124.5 310.96875 124.453125 310.925781 C 124.191406 310.671875 124.023438 310.351562 123.957031 310.015625 Z M 89.933594 342.496094 C 108.582031 361.585938 160.480469 351.074219 178.324219 341.355469 C 181.691406 339.519531 183.5625 337.507812 183.882812 335.367188 C 184.089844 333.992188 183.601562 332.773438 183.117188 331.949219 C 179.859375 334.539062 169.457031 340.753906 140.964844 345.28125 C 138.558594 345.664062 132.679688 346.460938 125.550781 346.460938 C 113.035156 346.460938 96.675781 343.996094 88.570312 332.488281 C 87.59375 333.320312 87.046875 334.277344 86.902344 335.394531 C 86.527344 338.292969 88.964844 341.503906 89.933594 342.496094 " fill-opacity="1" fill-rule="nonzero"/><path fill="rgb(100%, 59.999084%, 59.999084%)" d="M 295.417969 150.972656 C 295.367188 150.71875 295.34375 150.484375 295.335938 150.253906 C 295.308594 150.023438 295.253906 149.800781 295.21875 149.578125 L 295.164062 149.25 L 295.046875 148.9375 C 294.960938 148.730469 294.910156 148.523438 294.8125 148.324219 C 294.71875 148.125 294.644531 147.925781 294.597656 147.71875 C 294.523438 147.515625 294.445312 147.308594 294.394531 147.09375 C 294.113281 146.261719 293.898438 145.25 293.382812 144.320312 C 293.132812 143.855469 292.757812 143.484375 292.410156 143.082031 C 292.238281 142.882812 292.078125 142.664062 291.9375 142.410156 C 291.867188 142.285156 291.800781 142.15625 291.738281 142.019531 C 291.695312 141.957031 291.695312 141.851562 291.742188 141.667969 L 291.851562 141.328125 L 292.0625 140.8125 C 292.191406 140.675781 292.335938 140.527344 292.460938 140.414062 L 292.753906 140.199219 C 292.917969 140.101562 293.042969 140.074219 293.121094 140.109375 C 293.292969 140.144531 293.464844 140.191406 293.625 140.246094 C 293.945312 140.367188 294.25 140.515625 294.511719 140.714844 C 295.050781 141.09375 295.507812 141.570312 296.039062 141.988281 C 297.082031 142.839844 298.183594 143.820312 298.855469 145.148438 C 299.015625 145.484375 299.183594 145.820312 299.304688 146.171875 C 299.410156 146.535156 299.484375 146.910156 299.546875 147.28125 C 299.613281 147.652344 299.574219 148.042969 299.585938 148.421875 L 299.582031 148.984375 L 299.511719 149.542969 C 299.460938 149.914062 299.4375 150.285156 299.347656 150.636719 C 299.246094 150.992188 299.128906 151.339844 298.980469 151.671875 C 298.859375 152.015625 298.632812 152.3125 298.414062 152.597656 L 298.058594 153.015625 C 297.972656 153.160156 297.6875 153.246094 296.71875 153.023438 C 295.835938 152.523438 295.640625 152.328125 295.640625 152.1875 L 295.554688 151.761719 C 295.511719 151.484375 295.480469 151.222656 295.417969 150.972656 Z M 250.113281 70.707031 C 249.144531 70.460938 248.914062 70.324219 248.886719 70.210938 L 248.710938 69.859375 C 248.605469 69.628906 248.523438 69.410156 248.445312 69.1875 C 248.289062 68.75 248.257812 68.328125 248.160156 67.90625 C 248.085938 67.488281 247.957031 67.078125 247.847656 66.671875 C 247.757812 66.265625 247.714844 65.863281 247.722656 65.449219 C 247.699219 64.628906 247.886719 63.753906 247.875 62.878906 C 247.878906 62.4375 247.734375 62.042969 247.660156 61.628906 C 247.613281 61.421875 247.605469 61.199219 247.621094 60.96875 C 247.632812 60.851562 247.648438 60.730469 247.667969 60.609375 C 247.667969 60.554688 247.722656 60.46875 247.859375 60.347656 L 248.125 60.121094 L 248.574219 59.789062 C 248.746094 59.726562 248.941406 59.660156 249.101562 59.609375 L 249.449219 59.539062 C 249.636719 59.519531 249.746094 59.539062 249.792969 59.59375 C 249.917969 59.679688 250.027344 59.773438 250.132812 59.867188 C 250.339844 60.0625 250.5 60.277344 250.621094 60.503906 C 250.863281 60.964844 251.023438 61.449219 251.273438 61.910156 C 251.765625 62.832031 252.335938 63.78125 252.550781 64.816406 C 252.664062 65.324219 252.742188 65.847656 252.6875 66.375 C 252.644531 66.898438 252.542969 67.417969 252.453125 67.929688 C 252.378906 68.445312 252.265625 68.953125 252.066406 69.445312 C 251.976562 69.695312 251.816406 69.929688 251.671875 70.164062 L 251.417969 70.511719 C 251.367188 70.628906 251.113281 70.722656 250.113281 70.707031 Z M 249.539062 49.074219 L 249.421875 49.929688 C 249.402344 50.207031 249.214844 50.511719 248.238281 50.839844 C 247.203125 50.636719 246.953125 50.410156 246.878906 50.164062 L 246.582031 49.433594 C 246.398438 48.953125 246.253906 48.46875 246.050781 48.011719 C 245.855469 47.542969 245.6875 47.082031 245.546875 46.617188 C 245.425781 46.140625 245.175781 45.710938 245.003906 45.257812 C 244.273438 43.449219 243.179688 41.871094 242.28125 40.191406 C 241.320312 38.546875 240.34375 36.816406 239.03125 35.304688 C 238.703125 34.929688 238.34375 34.582031 237.980469 34.238281 L 236.84375 33.273438 C 236.460938 32.953125 236.089844 32.613281 235.722656 32.261719 L 235.183594 31.710938 C 235 31.523438 234.910156 31.222656 235.070312 30.304688 C 235.378906 29.972656 235.648438 29.78125 235.847656 29.703125 C 236.058594 29.609375 236.222656 29.613281 236.355469 29.660156 C 236.632812 29.742188 236.914062 29.828125 237.179688 29.9375 C 237.71875 30.136719 238.214844 30.40625 238.699219 30.703125 C 239.179688 31 239.621094 31.351562 240.082031 31.675781 C 240.519531 32.03125 240.980469 32.363281 241.433594 32.707031 C 243.242188 34.070312 245.03125 35.609375 246.363281 37.539062 L 246.867188 38.253906 C 247.019531 38.503906 247.167969 38.753906 247.304688 39.015625 C 247.585938 39.527344 247.863281 40.042969 248.074219 40.589844 C 248.46875 41.699219 248.855469 42.796875 249.089844 43.9375 C 249.394531 45.054688 249.554688 46.199219 249.617188 47.347656 C 249.679688 47.917969 249.59375 48.5 249.539062 49.074219 Z M 286.269531 173.292969 C 288.3125 171.964844 290.644531 170 292.9375 167.703125 C 293.375 167.269531 293.808594 166.820312 294.238281 166.363281 C 294.660156 165.910156 295.085938 165.449219 295.503906 164.976562 C 300.195312 159.683594 304.132812 153.449219 304.167969 149.214844 C 304.242188 140.484375 290.957031 133.46875 279.796875 129.117188 C 276.609375 127.875 273.394531 126.773438 270.347656 125.820312 C 269.675781 125.609375 269.015625 125.40625 268.363281 125.210938 C 267.695312 125.007812 267.042969 124.820312 266.398438 124.632812 C 259.257812 122.578125 253.675781 121.441406 252.652344 121.324219 C 252.058594 121.347656 251.472656 121.0625 251.128906 120.53125 C 250.609375 119.722656 250.839844 118.640625 251.648438 118.117188 C 252.261719 117.722656 252.425781 117.613281 256.996094 118.625 C 258.882812 119.039062 261.796875 119.730469 265.398438 120.726562 C 263.582031 113.21875 262.636719 106.753906 262.097656 99.472656 C 261.628906 93.207031 261.277344 87.769531 260.964844 82.972656 C 259.632812 62.4375 259.078125 53.9375 253.730469 42.050781 C 247.464844 28.128906 235.167969 19.949219 217.183594 17.75 C 213.855469 17.34375 210.632812 17.1875 207.65625 17.1875 C 207.574219 17.1875 207.5 17.191406 207.421875 17.191406 C 227.597656 23.199219 235.730469 42.996094 232.992188 79.402344 C 232.816406 81.710938 232.625 84.015625 232.429688 86.339844 C 230.894531 104.484375 229.320312 123.171875 236.277344 154.988281 C 252.40625 148.175781 264.097656 153.5 267.703125 155.582031 C 270.023438 153.925781 273.03125 153.195312 275.679688 153.003906 C 274.296875 149.175781 273.054688 145.664062 271.9375 142.394531 C 265.992188 140.40625 258.804688 138.796875 252.871094 137.902344 C 251.921875 137.761719 251.265625 136.871094 251.410156 135.921875 C 251.535156 135.074219 252.25 134.464844 253.074219 134.4375 C 253.179688 134.4375 253.28125 134.4375 253.390625 134.453125 C 256.023438 134.851562 263.359375 136.0625 270.53125 138.226562 C 271.21875 138.433594 271.90625 138.648438 272.585938 138.875 C 273.289062 139.105469 273.984375 139.34375 274.667969 139.597656 C 281.804688 142.210938 287.757812 145.863281 287.1875 150.695312 C 287.019531 152.109375 286.320312 153.59375 285.339844 155.105469 C 285.027344 155.582031 284.683594 156.066406 284.324219 156.554688 C 283.972656 157.023438 283.605469 157.496094 283.222656 157.96875 C 282.761719 158.535156 282.289062 159.101562 281.808594 159.664062 C 281.539062 159.980469 281.265625 160.300781 280.996094 160.617188 C 280.832031 160.808594 280.671875 161 280.503906 161.191406 C 280.054688 161.71875 279.621094 162.238281 279.207031 162.738281 C 278.519531 163.574219 277.894531 164.375 277.394531 165.117188 C 275.464844 168.007812 275.347656 170.5625 277.0625 172.503906 C 278.5 174.128906 280.992188 174.992188 283.046875 174.738281 C 283.578125 174.667969 284.085938 174.53125 284.53125 174.304688 C 284.589844 174.277344 284.648438 174.242188 284.707031 174.214844 C 285.203125 173.953125 285.726562 173.648438 286.269531 173.292969 Z M 174.886719 116.652344 C 175.621094 115.699219 176.351562 114.851562 177.070312 114.097656 C 182.035156 108.886719 186.585938 108.042969 189.257812 108.128906 C 189.046875 108.542969 188.84375 108.960938 188.65625 109.378906 C 187.996094 110.886719 187.40625 112.410156 187.0625 114.007812 C 186.949219 114.53125 187.28125 115.046875 187.804688 115.160156 C 188.226562 115.25 188.636719 115.058594 188.84375 114.710938 L 188.855469 114.695312 C 189.253906 114.023438 189.617188 113.347656 189.996094 112.683594 C 190.375 112.019531 190.757812 111.363281 191.171875 110.734375 C 191.585938 110.105469 192.003906 109.484375 192.453125 108.898438 C 192.679688 108.609375 192.90625 108.320312 193.136719 108.046875 C 193.351562 107.785156 193.628906 107.476562 193.796875 107.324219 C 193.890625 107.238281 193.976562 107.140625 194.046875 107.035156 C 212.855469 95.5625 215.472656 110.003906 215.472656 110.003906 C 213.75 112.886719 211.550781 115.191406 209.066406 117.046875 C 208.976562 117.109375 208.894531 117.171875 208.808594 117.234375 C 208.730469 117.292969 208.648438 117.351562 208.566406 117.40625 C 198.199219 124.753906 183.09375 124.429688 175.507812 123.683594 C 174.875 123.621094 174.296875 123.554688 173.773438 123.492188 C 173.089844 123.40625 172.507812 123.324219 172.046875 123.257812 C 171.242188 123.136719 170.792969 123.046875 170.792969 123.046875 C 171.386719 121.941406 171.984375 120.917969 172.582031 119.96875 C 173.351562 118.742188 174.121094 117.640625 174.886719 116.652344 Z M 167.890625 80.410156 L 167.847656 80.109375 C 167.8125 79.875 167.78125 79.628906 167.816406 79.359375 C 167.84375 79.089844 167.871094 78.832031 167.964844 78.570312 C 168.066406 78.304688 168.199219 78.042969 168.339844 77.796875 C 168.667969 77.300781 169.105469 76.867188 169.617188 76.578125 C 170.125 76.292969 170.652344 76.117188 171.144531 76.015625 C 171.46875 75.957031 171.765625 75.875 172.058594 75.820312 C 172.210938 75.792969 172.363281 75.769531 172.515625 75.765625 C 172.738281 75.757812 172.964844 75.800781 173.183594 75.890625 C 173.292969 75.9375 173.402344 76.007812 173.507812 76.066406 C 173.558594 76.085938 173.617188 76.175781 173.667969 76.351562 L 173.734375 76.695312 C 173.757812 76.859375 173.773438 77.0625 173.777344 77.246094 C 173.746094 77.425781 173.722656 77.628906 173.703125 77.792969 L 173.652344 78.132812 C 173.617188 78.3125 173.597656 78.398438 173.566406 78.421875 L 173.40625 78.625 C 173.300781 78.746094 173.207031 78.828125 173.113281 78.882812 C 172.917969 78.984375 172.734375 79.042969 172.632812 79.21875 C 172.546875 79.402344 172.515625 79.574219 172.554688 79.734375 C 172.589844 79.882812 172.652344 79.984375 172.65625 80.054688 C 172.671875 80.105469 172.679688 80.144531 172.652344 80.171875 C 172.640625 80.214844 172.617188 80.28125 172.566406 80.332031 L 172.472656 80.410156 L 172.398438 80.535156 C 172.347656 80.621094 172.289062 80.710938 172.238281 80.804688 C 172.175781 81.027344 172.113281 81.253906 171.964844 81.527344 C 171.910156 81.664062 171.816406 81.816406 171.71875 81.976562 L 171.550781 82.222656 C 171.527344 82.300781 171.300781 82.417969 170.351562 82.730469 C 169.371094 82.886719 169.113281 82.84375 169.054688 82.761719 L 168.796875 82.53125 C 168.640625 82.375 168.484375 82.203125 168.371094 82.027344 C 168.148438 81.65625 168.054688 81.234375 167.945312 80.8125 Z M 165.8125 78.820312 C 165.667969 79.5625 165.699219 80.300781 165.875 81.003906 C 166.1875 82.25 166.976562 83.386719 168.175781 84.242188 C 170.3125 85.761719 174.128906 86.5 178.429688 84.03125 C 178.449219 84.023438 178.46875 84.015625 178.488281 84.003906 C 178.652344 83.90625 178.835938 83.867188 179.011719 83.867188 L 182.390625 80.464844 L 179.03125 76.730469 C 178.65625 76.730469 178.296875 76.53125 178.109375 76.179688 C 177.316406 74.683594 175.242188 73.664062 172.992188 73.519531 C 172.410156 73.480469 171.8125 73.5 171.222656 73.585938 C 169.53125 73.839844 166.578125 74.855469 165.8125 78.820312 Z M 230.28125 283.414062 C 230.269531 283.535156 230.253906 283.660156 230.230469 283.785156 C 230.230469 283.847656 230.171875 283.929688 230.027344 284.046875 L 229.75 284.261719 L 229.285156 284.5625 L 228.75 284.710938 L 228.398438 284.765625 C 228.210938 284.785156 228.109375 284.765625 228.0625 284.71875 C 227.949219 284.636719 227.84375 284.550781 227.746094 284.460938 C 227.554688 284.28125 227.402344 284.085938 227.285156 283.875 C 227.050781 283.453125 226.898438 283.003906 226.628906 282.589844 C 226.109375 281.761719 225.488281 280.9375 225.167969 280.015625 C 224.992188 279.558594 224.882812 279.082031 224.847656 278.589844 C 224.832031 278.09375 224.84375 277.597656 224.851562 277.097656 C 224.855469 276.605469 224.855469 276.113281 224.976562 275.605469 C 225.027344 275.359375 225.121094 275.105469 225.230469 274.855469 L 225.410156 274.480469 C 225.441406 274.355469 225.671875 274.21875 226.65625 274.042969 C 227.65625 274.097656 227.90625 274.183594 227.957031 274.289062 L 228.191406 274.589844 C 228.335938 274.792969 228.472656 274.992188 228.582031 275.191406 C 228.804688 275.59375 228.929688 275.996094 229.085938 276.398438 C 229.226562 276.800781 229.433594 277.191406 229.589844 277.585938 C 229.757812 277.980469 229.832031 278.390625 229.890625 278.8125 C 230.019531 279.644531 229.910156 280.566406 229.972656 281.457031 C 230 281.902344 230.152344 282.308594 230.242188 282.738281 C 230.289062 282.949219 230.300781 283.175781 230.28125 283.414062 Z M 193.03125 262.640625 C 200.433594 262.421875 207.664062 261.78125 214.269531 260.800781 C 213.976562 257.058594 213.976562 254.632812 213.976562 254.300781 C 213.980469 253.34375 214.761719 252.570312 215.71875 252.570312 C 215.722656 252.570312 215.722656 252.570312 215.726562 252.570312 C 216.402344 252.570312 216.980469 252.960938 217.265625 253.527344 C 217.386719 253.765625 217.464844 254.03125 217.460938 254.320312 C 217.460938 254.398438 217.464844 256.644531 217.753906 260.242188 C 217.796875 260.792969 217.847656 261.375 217.90625 261.984375 C 217.957031 262.539062 218.019531 263.113281 218.085938 263.710938 C 218.835938 270.496094 220.503906 280.039062 224.183594 289.207031 C 224.355469 289.636719 224.53125 290.070312 224.714844 290.5 C 224.898438 290.925781 225.078125 291.355469 225.273438 291.78125 C 226.714844 294.996094 228.421875 298.128906 230.441406 301.035156 C 231.984375 301.28125 236.285156 301.660156 240.546875 299.289062 C 239.617188 297.472656 237.976562 294.0625 236.191406 289.390625 C 236.019531 288.9375 235.847656 288.476562 235.671875 288.003906 C 235.507812 287.554688 235.34375 287.09375 235.175781 286.625 C 232.824219 279.984375 230.410156 271.324219 229.136719 261.324219 C 229.058594 260.75 228.992188 260.164062 228.929688 259.578125 C 228.863281 259 228.804688 258.410156 228.746094 257.820312 C 228.4375 254.644531 228.253906 251.351562 228.226562 247.957031 C 228.226562 247.664062 228.21875 247.371094 228.21875 247.078125 C 228.21875 246.113281 228.996094 245.332031 229.960938 245.332031 C 230.921875 245.332031 231.703125 246.113281 231.703125 247.078125 C 231.703125 250.410156 231.871094 253.65625 232.160156 256.792969 C 257.359375 248.59375 273.988281 236.542969 281.582031 220.960938 C 285.347656 213.242188 286.691406 205.179688 286.59375 197.25 C 285.746094 200.980469 283.433594 203.960938 282.210938 205.328125 C 284.222656 212.300781 283.675781 217.867188 280.59375 221.886719 C 275.859375 228.050781 266.332031 229.066406 259.101562 229.066406 C 256.976562 229.066406 255.046875 228.976562 253.5 228.90625 L 253.109375 228.890625 C 245.59375 228.550781 239.945312 226.742188 236.242188 223.503906 C 232.917969 231.796875 228.210938 239.570312 221.941406 246.070312 C 215.617188 252.625 206.289062 259.316406 193.03125 262.640625 Z M 145.875 279.414062 L 146.125 279.640625 C 146.269531 279.792969 146.421875 279.941406 146.539062 280.09375 C 146.773438 280.398438 146.925781 280.714844 147.089844 281.027344 C 147.261719 281.34375 147.464844 281.644531 147.648438 281.949219 C 147.824219 282.257812 147.925781 282.589844 147.996094 282.9375 C 148.164062 283.628906 148.097656 284.429688 148.195312 285.1875 C 148.238281 285.570312 148.402344 285.898438 148.507812 286.253906 C 148.554688 286.433594 148.574219 286.628906 148.5625 286.839844 L 148.519531 287.171875 C 148.523438 287.222656 148.464844 287.304688 148.332031 287.429688 L 148.066406 287.65625 L 147.621094 287.988281 L 147.105469 288.191406 L 146.773438 288.289062 C 146.59375 288.332031 146.488281 288.328125 146.449219 288.292969 C 146.34375 288.234375 146.234375 288.179688 146.132812 288.117188 C 145.941406 287.984375 145.789062 287.835938 145.667969 287.671875 C 145.421875 287.335938 145.257812 286.96875 144.980469 286.648438 C 144.441406 286.003906 143.789062 285.378906 143.425781 284.613281 C 143.230469 284.242188 143.082031 283.84375 143.027344 283.414062 C 142.972656 282.992188 142.972656 282.546875 142.9375 282.117188 C 142.914062 281.679688 142.882812 281.253906 142.976562 280.792969 C 143.015625 280.570312 143.089844 280.34375 143.183594 280.109375 L 143.347656 279.769531 C 143.371094 279.660156 143.597656 279.519531 144.570312 279.304688 C 145.570312 279.28125 145.824219 279.332031 145.875 279.414062 Z M 145.144531 260.292969 C 141.671875 259.265625 137.972656 257.96875 134.179688 256.335938 C 134.691406 265.289062 136.609375 278.585938 142.6875 292.1875 C 142.878906 292.609375 143.066406 293.03125 143.265625 293.453125 C 143.457031 293.871094 143.65625 294.289062 143.859375 294.707031 C 145.351562 297.789062 147.0625 300.871094 149.03125 303.910156 C 150.597656 304.144531 154.828125 304.488281 159 302.21875 C 157.902344 300.386719 156 296.992188 153.925781 292.351562 C 153.730469 291.910156 153.535156 291.457031 153.332031 290.996094 C 153.140625 290.554688 152.953125 290.105469 152.761719 289.640625 C 149.640625 282.125 146.421875 272.015625 145.144531 260.292969 Z M 83.902344 134.019531 C 85.375 133.273438 86.980469 132.574219 88.722656 131.921875 C 95.433594 129.410156 101.039062 129.269531 105.375 131.5 C 105.804688 131.71875 106.195312 131.960938 106.570312 132.207031 C 108.050781 129.765625 109.566406 127.324219 111.097656 124.855469 C 112.859375 122.019531 114.675781 119.082031 116.460938 116.128906 C 102.097656 116.691406 86.132812 119.378906 84.246094 128.871094 C 83.910156 130.5625 83.828125 132.296875 83.902344 134.019531 " fill-opacity="1" fill-rule="nonzero"/><path fill="rgb(92.939758%, 92.549133%, 92.939758%)" d="M 121.640625 210.851562 C 130.230469 221.960938 141.90625 225.347656 146.53125 226.285156 C 149.449219 226.878906 152.289062 227.328125 155.050781 227.636719 C 155.632812 227.699219 156.214844 227.757812 156.789062 227.808594 C 157.375 227.863281 157.953125 227.910156 158.53125 227.949219 C 160.34375 228.078125 162.121094 228.148438 163.851562 228.148438 C 175.75 228.148438 185.777344 225.152344 193.359375 219.242188 C 201.699219 212.742188 206.964844 202.644531 207.449219 192.234375 C 209.183594 154.925781 189.085938 138.726562 173.839844 133.9375 C 173.269531 133.757812 172.707031 133.59375 172.152344 133.445312 C 171.574219 133.292969 171.007812 133.15625 170.453125 133.035156 C 169.824219 132.902344 169.207031 132.78125 168.605469 132.6875 C 152.566406 130.117188 138.671875 133.359375 128.421875 142.066406 C 125.40625 144.628906 122.726562 147.679688 120.476562 151.011719 C 120.117188 151.546875 119.769531 152.085938 119.433594 152.632812 C 119.089844 153.195312 118.757812 153.761719 118.4375 154.335938 C 116.160156 158.429688 114.523438 162.828125 113.738281 167.222656 C 111.667969 178.808594 112.042969 189.011719 114.820312 197.734375 C 115 198.296875 115.175781 198.855469 115.375 199.402344 C 115.574219 199.953125 115.792969 200.484375 116.011719 201.023438 C 117.457031 204.570312 119.324219 207.859375 121.640625 210.851562 Z M 201.894531 242.828125 C 202.589844 243.574219 202.875 243.652344 203.058594 243.582031 L 203.660156 243.4375 C 204.054688 243.324219 204.453125 243.214844 204.8125 243.039062 C 205.542969 242.710938 206.230469 242.304688 206.890625 241.863281 C 207.5625 241.4375 208.222656 240.988281 208.871094 240.519531 C 209.515625 240.042969 210.066406 239.460938 210.59375 238.863281 C 211.65625 237.667969 212.40625 236.214844 213.183594 234.835938 C 213.566406 234.140625 214.023438 233.5 214.402344 232.808594 C 214.589844 232.460938 214.746094 232.09375 214.855469 231.695312 C 214.914062 231.5 214.957031 231.292969 214.992188 231.085938 C 215.019531 230.984375 215.003906 230.863281 214.890625 230.683594 C 214.796875 230.519531 214.582031 230.292969 214.238281 230.007812 C 213.808594 229.894531 213.503906 229.828125 213.324219 229.828125 C 213.121094 229.8125 213.007812 229.855469 212.945312 229.917969 C 212.796875 230.035156 212.648438 230.15625 212.511719 230.277344 C 212.238281 230.527344 211.980469 230.78125 211.761719 231.0625 C 211.308594 231.613281 210.902344 232.199219 210.371094 232.695312 C 209.324219 233.6875 208.140625 234.527344 207.097656 235.46875 L 206.324219 236.179688 C 206.066406 236.417969 205.839844 236.6875 205.597656 236.945312 C 205.359375 237.199219 205.136719 237.480469 204.902344 237.75 C 204.667969 238.019531 204.417969 238.269531 204.175781 238.53125 C 203.695312 239.058594 203.15625 239.523438 202.691406 240.089844 C 202.457031 240.378906 202.222656 240.664062 201.996094 240.972656 L 201.664062 241.449219 C 201.539062 241.589844 201.511719 241.871094 201.894531 242.828125 Z M 219.359375 96.941406 C 218.402344 95.226562 216.320312 93.179688 211.839844 93.179688 C 209.078125 93.179688 205.617188 93.976562 201.566406 95.542969 L 201.523438 95.558594 C 196.621094 97.460938 191.066406 99.613281 181.808594 99.613281 C 181.039062 99.613281 180.238281 99.59375 179.4375 99.5625 C 179.03125 99.550781 178.625 99.535156 178.214844 99.511719 C 178.050781 99.503906 177.863281 99.488281 177.683594 99.476562 C 177.160156 99.441406 176.578125 99.386719 175.941406 99.328125 C 175.355469 99.269531 174.738281 99.210938 174.074219 99.144531 C 170.980469 98.828125 167.136719 98.433594 163.496094 98.433594 C 160.582031 98.433594 151.703125 98.433594 149.769531 104.4375 C 148.710938 107.707031 149.253906 111.285156 151.289062 114.5 C 154.742188 119.957031 161.945312 123.796875 171.695312 125.414062 C 172.257812 125.507812 172.835938 125.59375 173.417969 125.671875 C 173.507812 125.683594 173.59375 125.699219 173.679688 125.710938 C 174.171875 125.773438 174.660156 125.824219 175.152344 125.878906 C 177.863281 126.179688 180.59375 126.339844 183.289062 126.339844 C 194.484375 126.339844 209.464844 123.695312 217.253906 111.105469 C 219.679688 107.183594 221.6875 101.121094 219.359375 96.941406 Z M 219.890625 51.429688 C 219.042969 48.46875 216.515625 46.308594 213.457031 45.933594 C 210.398438 45.558594 207.425781 47.039062 205.882812 49.710938 C 205.59375 50.207031 205.765625 50.847656 206.265625 51.136719 C 206.765625 51.425781 207.402344 51.257812 207.691406 50.757812 C 208.816406 48.8125 210.980469 47.734375 213.203125 48.011719 C 215.425781 48.285156 217.261719 49.851562 217.882812 52.007812 C 218.015625 52.46875 218.433594 52.765625 218.886719 52.765625 C 218.980469 52.765625 219.078125 52.75 219.175781 52.722656 C 219.730469 52.5625 220.050781 51.984375 219.890625 51.429688 Z M 202.777344 72.234375 L 209.386719 75.296875 L 202.167969 75.730469 C 201.800781 81.042969 204 85.582031 207.488281 86.246094 C 211.355469 86.980469 215.339844 82.675781 216.390625 76.628906 C 217.4375 70.585938 215.152344 65.085938 211.285156 64.351562 C 207.796875 63.6875 204.214844 67.121094 202.777344 72.234375 Z M 179.023438 80.402344 L 179.03125 76.730469 C 179.195312 76.730469 179.363281 76.695312 179.523438 76.613281 C 179.570312 76.589844 179.613281 76.558594 179.652344 76.527344 C 180.0625 76.222656 180.203125 75.664062 179.957031 75.199219 C 179.9375 75.160156 179.910156 75.125 179.886719 75.085938 C 178.769531 73.101562 176.261719 71.746094 173.492188 71.464844 C 173.5 71.421875 173.511719 71.378906 173.519531 71.335938 C 174.570312 65.289062 172.28125 59.789062 168.414062 59.050781 C 164.925781 58.390625 161.34375 61.824219 159.90625 66.941406 L 166.519531 70.003906 L 159.300781 70.433594 C 158.964844 75.257812 160.75 79.429688 163.6875 80.65625 C 163.949219 82.707031 165.105469 84.617188 166.964844 85.945312 C 168.414062 86.976562 170.457031 87.734375 172.851562 87.734375 C 174.445312 87.734375 176.1875 87.390625 178.015625 86.582031 C 178.519531 86.359375 179.023438 86.113281 179.535156 85.816406 C 179.769531 85.679688 179.925781 85.46875 180.003906 85.234375 C 180.035156 85.132812 180.054688 85.023438 180.054688 84.914062 C 180.058594 84.734375 180.011719 84.550781 179.917969 84.382812 C 179.722656 84.050781 179.375 83.867188 179.011719 83.867188 Z M 177.777344 47.777344 C 176.925781 44.816406 174.398438 42.660156 171.339844 42.285156 C 168.28125 41.910156 165.3125 43.390625 163.765625 46.058594 C 163.476562 46.558594 163.648438 47.199219 164.148438 47.488281 C 164.648438 47.777344 165.289062 47.605469 165.578125 47.105469 C 166.699219 45.164062 168.863281 44.085938 171.085938 44.363281 C 173.308594 44.632812 175.144531 46.203125 175.765625 48.355469 C 175.898438 48.816406 176.316406 49.113281 176.773438 49.113281 C 176.867188 49.113281 176.960938 49.101562 177.0625 49.074219 C 177.617188 48.914062 177.933594 48.335938 177.777344 47.777344 Z M 92.203125 177.71875 C 93.550781 164.117188 99.007812 152.160156 105.816406 140.3125 C 106.308594 139.460938 106.804688 138.605469 107.308594 137.753906 C 107.597656 137.265625 107.890625 136.773438 108.183594 136.28125 C 108.214844 136.230469 108.246094 136.179688 108.273438 136.128906 C 108.589844 135.601562 108.910156 135.074219 109.226562 134.546875 C 109.710938 133.742188 110.203125 132.941406 110.695312 132.140625 C 111.804688 130.332031 112.929688 128.519531 114.058594 126.695312 C 115.902344 123.722656 117.8125 120.648438 119.679688 117.546875 C 119.984375 117.042969 120.28125 116.535156 120.578125 116.019531 C 120.917969 115.4375 121.253906 114.847656 121.585938 114.246094 C 121.910156 113.664062 122.234375 113.074219 122.554688 112.476562 C 126.550781 105.023438 130.371094 96.257812 135.296875 84.945312 C 138.132812 78.433594 141.347656 71.046875 145.136719 62.703125 C 152.082031 47.378906 159.46875 36.398438 167.714844 29.125 C 174.335938 23.28125 181.398438 19.894531 189.035156 18.914062 C 189.628906 18.835938 190.226562 18.773438 190.828125 18.726562 C 191.417969 18.679688 192.011719 18.652344 192.613281 18.632812 C 192.992188 18.621094 193.371094 18.605469 193.757812 18.605469 C 197.5625 18.605469 201.511719 19.167969 205.621094 20.289062 C 217.535156 23.542969 232.976562 33.179688 229.515625 79.140625 C 229.34375 81.441406 229.148438 83.734375 228.953125 86.046875 C 227.457031 103.746094 225.789062 123.523438 233.046875 156.484375 C 232.472656 156.773438 231.898438 157.082031 231.316406 157.402344 C 228.039062 159.214844 219.363281 165.566406 218.636719 173.058594 C 218.316406 176.375 219.546875 179.382812 222.300781 182.011719 C 220.496094 189.695312 220.472656 203.519531 231.601562 208.671875 C 231.125 211.152344 230.726562 216.101562 233.667969 220.566406 C 230.476562 229.066406 225.800781 237.050781 219.429688 243.648438 C 203.988281 259.648438 181.21875 264.878906 153.503906 258.828125 C 152.976562 258.714844 152.449219 258.601562 151.914062 258.476562 C 151.878906 258.46875 151.835938 258.460938 151.800781 258.453125 C 151.273438 258.324219 150.703125 258.1875 150.101562 258.035156 C 149.5625 257.894531 148.992188 257.742188 148.394531 257.578125 C 147.824219 257.421875 147.226562 257.25 146.605469 257.066406 C 146.027344 256.894531 145.429688 256.707031 144.8125 256.511719 C 141.601562 255.488281 137.921875 254.128906 134.027344 252.34375 C 133.441406 252.074219 132.851562 251.796875 132.257812 251.507812 C 131.671875 251.226562 131.082031 250.933594 130.492188 250.628906 C 116.300781 243.375 100.390625 230.441406 94.285156 207.863281 C 94.132812 207.300781 93.992188 206.730469 93.851562 206.152344 C 93.710938 205.582031 93.578125 205.003906 93.453125 204.421875 C 91.765625 196.640625 91.207031 187.792969 92.203125 177.71875 " fill-opacity="1" fill-rule="nonzero"/></svg>