<svg xmlns="http://www.w3.org/2000/svg" xmlns:xlink="http://www.w3.org/1999/xlink" width="500" zoomAndPan="magnify" viewBox="0 0 375 374.999991" height="500" preserveAspectRatio="xMidYMid meet" version="1.0"><defs><clipPath id="id1"><path d="M 37.902344 13.835938 L 354.375 13.835938 L 354.375 355.4375 L 37.902344 355.4375 Z M 37.902344 13.835938 " clip-rule="nonzero"/></clipPath></defs><g clip-path="url(#id1)"><path fill="rgb(90.979004%, 39.219666%, 34.118652%)" d="M 157.550781 146.605469 C 157.550781 133.082031 160.042969 122.261719 164.640625 115.332031 C 167.582031 121.347656 176.714844 143.898438 162.261719 167.34375 C 157.632812 158.222656 157.550781 146.75 157.550781 146.605469 Z M 163.757812 276.304688 C 159 276.363281 153.21875 277.382812 149.3125 280.710938 C 146.648438 282.980469 145.183594 286.007812 144.953125 289.714844 C 142.011719 291.382812 133.976562 297.292969 134.570312 311.761719 C 130.734375 308.683594 125.679688 306.105469 119.003906 304.761719 C 120.914062 301.542969 123.742188 295.382812 122.152344 289.160156 C 121.242188 285.59375 119.03125 282.574219 115.574219 280.128906 C 121.136719 266.539062 122.53125 252.367188 122.878906 245.695312 C 134.566406 249.367188 147.316406 251.394531 159.714844 251.417969 C 159.789062 251.417969 159.863281 251.417969 159.9375 251.417969 C 163.6875 251.417969 167.394531 251.234375 171.035156 250.871094 C 169.503906 260.980469 166.542969 269.742188 163.757812 276.304688 Z M 58.496094 182.121094 C 60.675781 188.667969 63.378906 194.820312 66.578125 200.554688 C 64.667969 199.492188 62.925781 198.085938 61.5625 196.207031 C 58.992188 192.683594 57.976562 187.972656 58.496094 182.121094 Z M 354.363281 31.058594 C 354.214844 28.949219 353.175781 27.40625 352.308594 26.464844 C 353.664062 23.050781 351.445312 18.953125 349.496094 17.351562 C 341.523438 10.792969 330.667969 15.125 327.546875 16.59375 C 312.769531 8.804688 303.785156 19.820312 299.425781 25.164062 L 299.316406 25.300781 C 295.101562 30.460938 291.476562 32.902344 288.277344 35.054688 L 287.59375 35.515625 C 283.75 38.113281 281.828125 36.28125 279.785156 34.335938 C 279.441406 34.007812 279.113281 33.699219 278.808594 33.441406 C 274.09375 29.460938 268.878906 27.617188 263.71875 28.121094 C 258.792969 28.597656 254.652344 31.183594 252.882812 33.386719 C 250.507812 36.355469 249.667969 39.183594 250.398438 41.800781 C 251.738281 46.636719 258.035156 48.964844 261.058594 50.085938 L 261.484375 50.242188 C 270.613281 53.65625 270.648438 56.09375 269.902344 60.464844 C 268.726562 67.320312 270.609375 72.355469 271.632812 74.457031 C 268.660156 78.71875 268.808594 83.410156 272.085938 88.425781 C 272.773438 89.476562 273.574219 90.398438 274.457031 91.210938 C 271.121094 97.3125 265.371094 104.886719 255.703125 111.113281 C 254.855469 107.289062 253.832031 103.332031 252.597656 99.316406 C 252.488281 98.945312 252.367188 98.574219 252.25 98.203125 C 252.117188 97.773438 251.980469 97.34375 251.839844 96.917969 C 251.625 96.253906 251.402344 95.59375 251.175781 94.929688 C 245.269531 77.699219 235.339844 59.839844 218.691406 46.648438 C 212.402344 41.664062 206.308594 39.546875 199.800781 40.230469 C 184.882812 34.253906 167.574219 31.75 148.039062 32.773438 C 98.109375 35.378906 66.800781 62.207031 54.984375 112.503906 C 52.945312 121.183594 51.945312 130.707031 51.960938 140.40625 C 36.984375 169.667969 33.945312 191.941406 42.957031 206.71875 C 50.625 219.296875 65.085938 223.328125 74.953125 224.574219 C 77.335938 227.753906 81.078125 230.875 86.898438 233.339844 C 88.179688 235.054688 93.203125 240.800781 104.25 242.929688 C 103.214844 256.03125 100.042969 267.378906 97.089844 275.53125 C 96.273438 275.550781 95.433594 275.589844 94.5625 275.644531 C 91.96875 275.808594 83.183594 276.863281 79.019531 283.589844 C 76.238281 288.09375 76.253906 294.007812 79.070312 301.175781 C 76.660156 303.710938 70.074219 311.664062 69.660156 323.25 C 68.304688 323.914062 66.199219 325.316406 65.40625 327.871094 C 64.488281 330.835938 65.625 334.3125 68.78125 338.207031 C 74.164062 344.84375 86.570312 351.144531 99.648438 353.890625 C 104.597656 354.925781 109.488281 355.441406 114.238281 355.441406 C 125.304688 355.441406 135.613281 352.648438 144.160156 347.222656 C 147.671875 344.984375 149.808594 341.90625 149.875 338.972656 C 149.902344 337.820312 149.613281 336.300781 148.441406 334.707031 C 158.90625 338.648438 172.980469 341.753906 185.753906 342.765625 C 188.792969 343.003906 192.042969 343.15625 195.386719 343.15625 C 208.699219 343.15625 223.496094 340.726562 232.359375 331.667969 C 234.042969 329.945312 236.757812 325.976562 236.246094 322.015625 C 236.050781 320.503906 235.292969 318.414062 232.878906 316.652344 C 232.9375 312.210938 232 294.921875 214.269531 290.53125 C 204.066406 288.003906 196.976562 292.457031 194.304688 294.585938 C 193.667969 294.148438 192.792969 293.621094 191.667969 293.109375 C 190.335938 292.5 188.789062 292.105469 187.675781 291.875 C 187.523438 289.308594 186.410156 284.347656 180.640625 280.644531 C 185.8125 269.140625 188.070312 257.941406 188.996094 249.199219 C 193.289062 249.042969 197.789062 248.3125 202.5 247.015625 C 231.445312 239.054688 261.660156 207.492188 259.65625 142.78125 C 259.566406 139.902344 259.375 136.390625 259.007812 132.417969 C 262.203125 130.816406 266.085938 128.523438 270.226562 125.328125 C 277.257812 119.890625 286.027344 110.949219 292.695312 97.058594 C 297.492188 96.984375 300.996094 95.648438 303.082031 93.070312 C 304.738281 91.027344 305.085938 88.695312 305.089844 87.125 C 316.296875 85.03125 320.90625 74.84375 323.707031 68.648438 C 324 68.003906 324.277344 67.394531 324.542969 66.828125 C 328.089844 59.304688 339.964844 48.769531 347.054688 42.476562 C 347.902344 41.722656 348.691406 41.023438 349.40625 40.382812 C 352.914062 37.234375 354.582031 34.097656 354.363281 31.058594 " fill-opacity="1" fill-rule="nonzero"/></g><path fill="rgb(100%, 100%, 100%)" d="M 94.523438 210.871094 C 95.53125 210.859375 96.539062 210.875 97.5625 210.882812 C 98.585938 210.902344 99.613281 210.902344 100.691406 211.027344 L 100.714844 211.03125 C 101.070312 211.074219 101.320312 211.394531 101.28125 211.75 C 101.253906 211.964844 101.117188 212.148438 100.9375 212.246094 C 99.941406 212.761719 98.878906 213.105469 97.792969 213.308594 C 96.710938 213.542969 95.601562 213.613281 94.5 213.601562 C 94.113281 213.597656 93.722656 213.570312 93.339844 213.535156 C 92.621094 213.472656 91.910156 213.363281 91.207031 213.195312 C 91.105469 213.171875 91.003906 213.140625 90.902344 213.113281 C 90.039062 212.890625 89.203125 212.589844 88.398438 212.132812 C 88.292969 212.074219 88.183594 212.023438 88.078125 211.957031 C 87.828125 211.800781 87.75 211.46875 87.90625 211.214844 C 87.921875 211.195312 87.945312 211.183594 87.957031 211.164062 C 88.054688 211.050781 88.1875 210.972656 88.332031 210.960938 L 88.382812 210.960938 C 88.828125 210.933594 89.273438 210.917969 89.714844 210.910156 C 90.3125 210.894531 90.902344 210.886719 91.484375 210.886719 L 91.609375 210.886719 Z M 102.765625 223.070312 C 102.738281 223.292969 102.59375 223.476562 102.40625 223.570312 C 101.328125 224.085938 100.160156 224.421875 98.976562 224.554688 C 97.792969 224.722656 96.597656 224.71875 95.421875 224.585938 C 94.242188 224.453125 93.078125 224.210938 91.964844 223.8125 C 90.847656 223.425781 89.777344 222.933594 88.792969 222.1875 C 88.554688 222.007812 88.507812 221.667969 88.6875 221.433594 C 88.800781 221.285156 88.972656 221.210938 89.148438 221.222656 L 89.195312 221.222656 C 90.308594 221.296875 91.410156 221.425781 92.488281 221.542969 L 95.695312 221.867188 C 96.761719 221.96875 97.820312 222.046875 98.886719 222.121094 C 99.601562 222.179688 100.316406 222.207031 101.042969 222.253906 C 101.414062 222.277344 101.785156 222.308594 102.167969 222.351562 L 102.207031 222.359375 C 102.429688 222.386719 102.601562 222.53125 102.695312 222.714844 C 102.746094 222.824219 102.78125 222.941406 102.765625 223.070312 Z M 107.546875 233.058594 C 106.664062 233.417969 105.714844 233.636719 104.765625 233.707031 C 104.742188 233.710938 104.714844 233.710938 104.683594 233.710938 C 104.402344 233.734375 104.113281 233.746094 103.828125 233.75 C 102.933594 233.757812 102.042969 233.675781 101.179688 233.5 C 100.507812 233.363281 99.847656 233.183594 99.203125 232.960938 C 98.730469 232.800781 98.261719 232.617188 97.808594 232.40625 C 96.734375 231.90625 95.726562 231.3125 94.828125 230.476562 C 94.664062 230.328125 94.617188 230.097656 94.6875 229.898438 C 94.710938 229.832031 94.75 229.769531 94.800781 229.714844 C 94.925781 229.578125 95.109375 229.523438 95.28125 229.550781 L 95.320312 229.558594 C 96.210938 229.703125 97.085938 229.886719 97.945312 230.074219 C 98.148438 230.117188 98.351562 230.160156 98.554688 230.199219 C 99.613281 230.414062 100.648438 230.628906 101.683594 230.816406 C 102.71875 231.011719 103.742188 231.132812 104.78125 231.273438 C 105.824219 231.398438 106.851562 231.433594 107.96875 231.535156 L 108.019531 231.539062 C 108.371094 231.570312 108.628906 231.878906 108.597656 232.230469 C 108.574219 232.453125 108.441406 232.640625 108.253906 232.738281 C 108.023438 232.859375 107.789062 232.960938 107.546875 233.058594 Z M 160.464844 194.246094 C 159.414062 193.773438 156.910156 193.398438 151.925781 196.136719 C 150.738281 196.964844 149.605469 197.664062 148.414062 198.355469 C 147.796875 198.710938 147.167969 199.046875 146.546875 199.386719 L 144.640625 200.347656 C 142.082031 201.585938 139.433594 202.632812 136.730469 203.503906 C 135.386719 203.964844 134.003906 204.304688 132.632812 204.667969 C 131.941406 204.832031 131.242188 204.964844 130.546875 205.113281 L 129.503906 205.332031 L 128.449219 205.480469 L 126.339844 205.765625 L 124.210938 205.925781 C 123.859375 205.949219 123.503906 205.984375 123.148438 205.996094 L 122.082031 205.996094 L 119.957031 205.980469 C 119.4375 205.976562 119.019531 205.550781 119.027344 205.03125 C 119.027344 204.539062 119.410156 204.136719 119.894531 204.101562 L 119.96875 204.097656 C 122.675781 203.898438 125.378906 203.714844 128.023438 203.09375 L 129.019531 202.898438 L 130.003906 202.648438 C 130.65625 202.480469 131.316406 202.328125 131.96875 202.144531 C 133.261719 201.738281 134.558594 201.367188 135.820312 200.871094 C 138.359375 199.9375 140.839844 198.835938 143.222656 197.558594 L 144.992188 196.574219 C 145.570312 196.230469 146.160156 195.890625 146.726562 195.535156 C 147.84375 194.84375 148.988281 194.082031 149.972656 193.335938 C 151.371094 192.128906 154.925781 188.351562 155.046875 184.933594 C 155.097656 183.539062 154.578125 182.324219 153.457031 181.21875 C 151.5625 179.351562 147.296875 180.195312 139.636719 183.949219 C 134.644531 186.394531 129.601562 187.699219 121.964844 189.675781 C 120.648438 190.015625 119.25 190.378906 117.769531 190.769531 C 117.75 190.773438 117.734375 190.78125 117.71875 190.785156 C 117.664062 190.804688 117.605469 190.8125 117.546875 190.824219 C 117.472656 190.835938 117.398438 190.84375 117.324219 190.859375 C 117.320312 190.859375 117.320312 190.859375 117.320312 190.859375 C 115.742188 191.121094 114.183594 191.339844 112.609375 191.527344 C 110.960938 191.71875 109.316406 191.929688 107.644531 191.960938 C 107.121094 191.972656 106.683594 191.554688 106.671875 191.03125 C 106.664062 190.601562 106.945312 190.234375 107.332031 190.105469 C 108.90625 189.59375 110.496094 189.214844 112.074219 188.78125 L 116.3125 187.621094 C 118.253906 185.78125 122.34375 181.039062 121.835938 177.339844 C 121.601562 175.636719 120.390625 174.261719 118.128906 173.140625 C 115.476562 171.824219 110.472656 173.78125 106.410156 179.992188 C 105.507812 181.375 100.871094 188.304688 97.257812 190.652344 C 97.210938 190.683594 97.167969 190.71875 97.117188 190.75 C 97.101562 190.761719 97.085938 190.769531 97.066406 190.777344 L 97.015625 190.804688 C 97.011719 190.808594 97.007812 190.8125 96.996094 190.8125 C 96.601562 191.054688 96.1875 191.292969 95.75 191.519531 C 95.199219 191.855469 94.644531 192.210938 94.109375 192.570312 C 94.070312 192.597656 94.027344 192.625 93.984375 192.652344 C 92.992188 193.332031 92.023438 194.058594 91.089844 194.824219 C 91.003906 194.894531 90.921875 194.972656 90.832031 195.046875 C 90.070312 195.683594 89.335938 196.355469 88.636719 197.054688 C 87.898438 197.796875 87.207031 198.570312 86.550781 199.375 C 86.390625 199.574219 86.222656 199.765625 86.0625 199.96875 C 85.226562 201.070312 84.480469 202.238281 83.851562 203.464844 C 83.550781 204.042969 83.277344 204.640625 83.035156 205.242188 C 82.910156 205.558594 82.789062 205.875 82.679688 206.195312 C 82.585938 206.460938 82.5 206.730469 82.417969 207 C 81.949219 208.566406 81.730469 210.195312 81.6875 211.84375 C 81.679688 212.292969 81.679688 212.742188 81.695312 213.199219 L 81.695312 213.214844 C 81.710938 213.734375 81.308594 214.171875 80.789062 214.191406 C 80.300781 214.210938 79.886719 213.851562 79.820312 213.382812 C 79.519531 211.296875 79.59375 209.140625 79.996094 207.046875 C 80.097656 206.523438 80.214844 205.996094 80.359375 205.476562 C 80.375 205.425781 80.390625 205.378906 80.40625 205.328125 C 80.574219 204.742188 80.765625 204.167969 80.984375 203.605469 C 81.703125 201.734375 82.6875 199.972656 83.8125 198.332031 C 84.320312 197.605469 84.871094 196.90625 85.4375 196.222656 C 82.171875 197.933594 79.132812 200.125 77.050781 203.46875 C 76.726562 203.984375 76.421875 204.53125 76.148438 205.109375 C 75.898438 205.636719 75.667969 206.1875 75.460938 206.769531 C 75.355469 207.0625 75.257812 207.363281 75.167969 207.671875 C 74.949219 208.402344 74.773438 209.179688 74.628906 210 C 74.605469 210.128906 74.578125 210.257812 74.5625 210.386719 C 74.480469 210.898438 74.40625 211.613281 74.394531 212.46875 C 74.371094 214.714844 74.816406 217.972656 76.910156 221.316406 C 77.296875 221.933594 77.746094 222.554688 78.253906 223.175781 C 78.765625 223.796875 79.34375 224.417969 79.992188 225.027344 C 80.929688 225.90625 82.027344 226.765625 83.292969 227.585938 C 83.289062 227.585938 83.285156 227.582031 83.285156 227.578125 C 82.894531 226.78125 82.566406 225.949219 82.265625 225.105469 C 82.203125 224.925781 82.128906 224.75 82.066406 224.5625 C 81.941406 224.175781 81.839844 223.773438 81.746094 223.371094 C 81.609375 222.800781 81.507812 222.226562 81.441406 221.644531 C 81.429688 221.550781 81.417969 221.457031 81.40625 221.359375 C 81.382812 221.140625 81.445312 220.9375 81.550781 220.765625 C 81.703125 220.527344 81.957031 220.359375 82.257812 220.328125 C 82.695312 220.285156 83.09375 220.550781 83.238281 220.949219 L 83.253906 221.003906 C 83.320312 221.1875 83.394531 221.367188 83.460938 221.550781 C 83.683594 222.167969 83.929688 222.777344 84.199219 223.375 C 84.203125 223.382812 84.203125 223.386719 84.207031 223.390625 C 84.25 223.488281 84.289062 223.589844 84.335938 223.6875 C 84.5625 224.15625 84.796875 224.621094 85.046875 225.078125 C 85.261719 225.472656 85.484375 225.863281 85.730469 226.242188 C 86.25 227.066406 86.808594 227.863281 87.414062 228.632812 C 88.011719 229.382812 88.660156 230.175781 89.277344 230.804688 L 89.304688 230.832031 C 89.417969 230.945312 89.503906 231.078125 89.578125 231.214844 C 90.335938 232.269531 94.5 237.457031 104.464844 239.496094 C 105.011719 239.605469 105.582031 239.707031 106.167969 239.796875 C 106.714844 239.882812 107.285156 239.960938 107.867188 240.027344 C 108.097656 240.054688 108.320312 240.082031 108.554688 240.105469 C 109.976562 240.242188 111.488281 240.320312 113.101562 240.320312 C 113.136719 240.320312 113.171875 240.316406 113.207031 240.316406 C 114.1875 240.316406 115.203125 240.289062 116.253906 240.226562 C 116.640625 240.203125 117.054688 240.175781 117.488281 240.148438 C 117.625 240.140625 117.773438 240.128906 117.914062 240.117188 C 124.175781 239.675781 134.378906 238.597656 139.441406 237.554688 C 143.1875 236.78125 148.734375 234.914062 152.90625 232.285156 C 153.398438 231.972656 153.878906 231.652344 154.328125 231.324219 C 154.800781 230.972656 155.242188 230.613281 155.65625 230.242188 C 156.695312 229.304688 157.527344 228.308594 158.042969 227.25 C 158.875 225.542969 158.824219 223.804688 157.894531 221.929688 C 157 220.125 153.160156 219.3125 147.796875 221.347656 C 147.074219 221.621094 146.214844 221.90625 145.261719 222.183594 C 144.378906 222.445312 143.417969 222.699219 142.402344 222.941406 C 141.195312 223.226562 139.914062 223.492188 138.605469 223.71875 C 133.75 224.5625 128.523438 224.882812 125.394531 223.734375 C 125.1875 223.660156 125.011719 223.535156 124.855469 223.398438 C 124.613281 223.179688 124.421875 222.902344 124.335938 222.574219 C 124.257812 222.292969 124.261719 222 124.328125 221.71875 C 124.390625 221.476562 124.5 221.242188 124.667969 221.042969 C 124.828125 220.847656 125.050781 220.582031 126.808594 219.851562 C 128.316406 219.222656 130.953125 218.257812 135.65625 216.699219 C 149.59375 212.089844 163.832031 204.277344 162.003906 196.179688 C 161.863281 195.550781 161.480469 194.703125 160.464844 194.246094 Z M 350.953125 31.335938 C 351.074219 33.234375 349.746094 35.484375 347.121094 37.839844 C 346.414062 38.476562 345.625 39.171875 344.78125 39.917969 C 337.023438 46.804688 325.296875 57.214844 321.445312 65.371094 C 321.175781 65.949219 320.890625 66.578125 320.59375 67.242188 C 317.617188 73.8125 313.542969 82.8125 303.085938 83.96875 C 302.296875 84.042969 301.359375 84.058594 300.484375 84.042969 C 299.597656 84.007812 298.707031 83.957031 297.832031 83.828125 C 297.828125 83.828125 297.824219 83.828125 297.824219 83.828125 C 297.25 83.746094 296.691406 83.640625 296.128906 83.519531 C 295.566406 83.398438 295.015625 83.25 294.472656 83.082031 C 293.910156 82.902344 293.355469 82.703125 292.824219 82.464844 C 292.492188 82.316406 292.171875 82.144531 291.855469 81.972656 C 291.027344 81.507812 290.269531 80.953125 289.609375 80.304688 C 289.355469 80.058594 289.109375 79.796875 288.886719 79.519531 C 288.652344 79.242188 288.441406 78.9375 288.246094 78.625 C 287.566406 77.546875 287.085938 76.296875 286.773438 74.996094 C 286.375 73.3125 286.273438 71.539062 286.417969 69.785156 C 286.476562 69.347656 286.488281 68.902344 286.578125 68.472656 L 286.828125 67.164062 C 287.074219 66.3125 287.292969 65.453125 287.640625 64.632812 C 287.792969 64.210938 287.949219 63.796875 288.160156 63.402344 C 288.363281 63 288.542969 62.59375 288.757812 62.195312 C 289.230469 61.4375 289.652344 60.640625 290.222656 59.933594 C 291.257812 58.457031 292.558594 57.171875 293.886719 55.914062 L 293.933594 55.867188 C 294.289062 55.53125 294.328125 54.972656 294.007812 54.585938 C 293.679688 54.1875 293.085938 54.132812 292.683594 54.464844 C 291.179688 55.710938 289.691406 57.027344 288.488281 58.609375 C 287.832031 59.359375 287.324219 60.214844 286.761719 61.039062 C 286.507812 61.46875 286.28125 61.917969 286.039062 62.355469 C 285.785156 62.785156 285.585938 63.246094 285.394531 63.707031 C 284.960938 64.617188 284.683594 65.585938 284.378906 66.542969 L 284.046875 68.019531 C 283.933594 68.511719 283.898438 69.019531 283.820312 69.519531 C 283.589844 71.527344 283.640625 73.578125 284.054688 75.59375 C 284.269531 76.632812 284.582031 77.679688 285.011719 78.691406 C 285.261719 79.269531 285.558594 79.835938 285.894531 80.378906 C 286.097656 80.707031 286.3125 81.027344 286.550781 81.332031 C 286.738281 81.585938 286.941406 81.832031 287.152344 82.066406 C 288.371094 83.4375 289.886719 84.519531 291.488281 85.292969 C 292.140625 85.613281 292.8125 85.875 293.492188 86.109375 C 294.035156 86.296875 294.578125 86.460938 295.132812 86.605469 C 295.691406 86.746094 296.25 86.871094 296.8125 86.972656 C 296.996094 87.003906 297.171875 87.046875 297.351562 87.074219 C 298.351562 87.25 299.351562 87.328125 300.355469 87.390625 C 300.796875 87.410156 301.226562 87.421875 301.660156 87.421875 C 301.617188 88.421875 301.351562 89.789062 300.402344 90.945312 C 299.195312 92.417969 297.132812 93.285156 294.28125 93.554688 C 293.6875 93.609375 293.0625 93.648438 292.394531 93.652344 C 292.351562 93.652344 292.316406 93.65625 292.273438 93.65625 C 292.269531 93.65625 292.269531 93.65625 292.265625 93.65625 C 291.707031 93.65625 291.121094 93.632812 290.53125 93.597656 C 286.6875 93.367188 282.265625 92.371094 278.859375 90.246094 C 278.351562 89.925781 277.863281 89.589844 277.40625 89.222656 C 276.925781 88.835938 276.488281 88.417969 276.074219 87.972656 C 275.664062 87.527344 275.277344 87.0625 274.949219 86.558594 C 272.683594 83.089844 272.351562 80.089844 273.929688 77.246094 C 274.019531 77.320312 274.101562 77.402344 274.195312 77.476562 C 274.867188 78.007812 275.5625 78.5 276.304688 78.910156 C 277.105469 79.371094 277.945312 79.765625 278.808594 80.082031 C 279.34375 80.277344 279.894531 80.433594 280.449219 80.554688 C 280.628906 80.59375 280.804688 80.644531 280.984375 80.675781 C 281.257812 80.71875 281.535156 80.636719 281.746094 80.464844 C 281.835938 80.386719 281.917969 80.300781 281.980469 80.191406 C 282.226562 79.730469 282.058594 79.15625 281.597656 78.902344 L 281.554688 78.878906 C 281.484375 78.839844 281.40625 78.800781 281.335938 78.761719 C 280.753906 78.453125 280.179688 78.160156 279.636719 77.816406 C 279.011719 77.453125 278.425781 77.035156 277.867188 76.589844 C 277.308594 76.144531 276.789062 75.664062 276.304688 75.15625 C 276.0625 74.902344 275.835938 74.640625 275.613281 74.378906 C 275.433594 74.160156 275.234375 73.894531 275.109375 73.707031 C 275.109375 73.699219 275.105469 73.695312 275.101562 73.691406 C 275.070312 73.640625 271.972656 68.640625 273.273438 61.042969 C 274.492188 53.898438 271.917969 50.496094 262.683594 47.039062 L 262.25 46.878906 C 259.757812 45.957031 254.566406 44.039062 253.695312 40.890625 C 253.277344 39.390625 253.902344 37.582031 255.554688 35.523438 C 256.667969 34.136719 259.84375 31.929688 264.046875 31.519531 C 264.503906 31.476562 264.960938 31.457031 265.417969 31.457031 C 269.230469 31.457031 272.984375 32.996094 276.597656 36.054688 C 276.859375 36.273438 277.132812 36.535156 277.425781 36.8125 C 278.417969 37.753906 279.8125 39.082031 281.660156 39.773438 C 280.824219 40.441406 280 41.136719 279.203125 41.886719 C 278.382812 42.683594 277.574219 43.507812 276.929688 44.609375 C 276.714844 44.980469 276.773438 45.464844 277.097656 45.773438 C 277.476562 46.128906 278.074219 46.113281 278.433594 45.734375 L 278.476562 45.691406 C 279.113281 45.015625 279.9375 44.355469 280.777344 43.738281 C 281.617188 43.117188 282.488281 42.507812 283.394531 41.941406 C 284.296875 41.371094 285.214844 40.8125 286.144531 40.28125 C 286.769531 39.925781 287.398438 39.570312 288.019531 39.222656 C 288.289062 39.085938 288.5625 38.9375 288.839844 38.769531 C 288.875 38.753906 288.910156 38.730469 288.941406 38.710938 L 288.957031 38.707031 C 289 38.683594 289.042969 38.65625 289.085938 38.628906 C 289.113281 38.609375 289.132812 38.589844 289.160156 38.570312 C 289.277344 38.496094 289.394531 38.425781 289.511719 38.34375 L 290.1875 37.890625 C 293.414062 35.71875 297.4375 33.015625 301.964844 27.460938 L 302.078125 27.324219 C 306.183594 22.289062 312.855469 14.121094 323.953125 18.691406 C 322.710938 19.488281 321.5 20.308594 320.304688 21.175781 C 318.253906 22.652344 316.265625 24.207031 314.347656 25.847656 C 312.429688 27.480469 310.5625 29.175781 308.800781 30.976562 C 307.027344 32.765625 305.359375 34.660156 303.785156 36.625 C 303.492188 36.996094 303.511719 37.539062 303.859375 37.878906 C 304.230469 38.246094 304.824219 38.242188 305.191406 37.871094 L 305.214844 37.851562 C 306.941406 36.105469 308.632812 34.339844 310.480469 32.726562 C 312.289062 31.074219 314.164062 29.5 316.105469 28.007812 C 318.035156 26.507812 320.035156 25.089844 322.078125 23.753906 C 324.113281 22.429688 326.230469 21.121094 328.308594 20.035156 L 328.359375 20.007812 C 328.367188 20.003906 328.371094 20.003906 328.378906 20 C 329.203125 19.566406 340.125 14.074219 347.320312 19.988281 C 348.210938 20.722656 349.488281 22.886719 349.265625 24.609375 C 348.953125 24.503906 348.640625 24.410156 348.328125 24.316406 C 347.882812 24.210938 347.441406 24.089844 346.992188 24.019531 C 346.546875 23.933594 346.09375 23.867188 345.640625 23.832031 C 343.832031 23.648438 341.992188 23.777344 340.234375 24.195312 C 338.457031 24.582031 336.808594 25.351562 335.277344 26.230469 C 334.53125 26.707031 333.777344 27.167969 333.109375 27.742188 C 332.769531 28.011719 332.417969 28.28125 332.089844 28.558594 C 331.773438 28.847656 331.449219 29.125 331.148438 29.417969 C 328.691406 31.75 326.535156 34.222656 324.324219 36.636719 C 322.148438 39.074219 319.910156 41.445312 317.671875 43.824219 C 317.34375 44.179688 317.332031 44.738281 317.664062 45.101562 C 318.011719 45.488281 318.609375 45.515625 318.992188 45.167969 C 321.433594 42.953125 323.769531 40.628906 326.089844 38.304688 C 328.402344 35.972656 330.636719 33.570312 333.019531 31.476562 C 333.316406 31.210938 333.625 30.964844 333.921875 30.710938 C 334.230469 30.472656 334.539062 30.253906 334.84375 30.027344 C 335.441406 29.542969 336.105469 29.179688 336.753906 28.796875 C 338.078125 28.097656 339.457031 27.503906 340.910156 27.25 C 342.351562 26.964844 343.824219 26.90625 345.269531 27.09375 C 345.636719 27.128906 345.992188 27.191406 346.351562 27.273438 C 346.710938 27.335938 347.058594 27.445312 347.40625 27.539062 C 347.75 27.652344 348.097656 27.757812 348.425781 27.894531 C 348.59375 27.960938 348.753906 28.03125 348.910156 28.105469 C 349.019531 28.152344 349.152344 28.21875 349.242188 28.265625 C 349.484375 28.445312 350.84375 29.527344 350.953125 31.335938 Z M 202.695312 91.335938 C 203.078125 92.296875 203.292969 93.386719 203.128906 94.320312 C 203.050781 95.324219 202.652344 96.085938 202.382812 96.902344 C 202.050781 97.628906 201.671875 98.300781 201.191406 98.894531 C 201.183594 98.902344 201.179688 98.917969 201.167969 98.925781 C 200.894531 99.199219 200.59375 99.449219 200.265625 99.667969 L 200.125 99.761719 L 199.761719 99.992188 C 199.632812 100.117188 199.25 100.109375 197.964844 99.539062 C 196.824219 98.691406 196.585938 98.40625 196.597656 98.253906 L 196.523438 97.746094 C 196.484375 97.460938 196.476562 97.207031 196.480469 96.953125 C 196.484375 96.917969 196.476562 96.871094 196.476562 96.835938 C 196.429688 96.277344 196.5 95.796875 196.519531 95.355469 C 196.507812 95.285156 196.5 95.214844 196.492188 95.148438 C 196.449219 94.800781 196.417969 94.460938 196.277344 94.253906 C 196.210938 93.941406 196.144531 93.796875 196.1875 93.570312 C 196.164062 93.484375 196.207031 93.367188 196.207031 93.246094 C 196.1875 93.128906 196.222656 92.976562 196.199219 92.8125 C 196.15625 92.65625 196.148438 92.464844 196.070312 92.28125 C 195.96875 92.113281 195.902344 91.90625 195.757812 91.730469 C 195.488281 91.367188 195.070312 91.148438 194.648438 90.898438 C 194.445312 90.753906 194.238281 90.597656 194.039062 90.371094 C 193.9375 90.265625 193.835938 90.148438 193.734375 90.015625 C 193.679688 89.96875 193.648438 89.835938 193.632812 89.578125 L 193.625 89.085938 C 193.636719 88.851562 193.652344 88.5625 193.648438 88.300781 C 193.726562 88.054688 193.816406 87.777344 193.902344 87.558594 L 194.125 87.113281 C 194.261719 86.886719 194.386719 86.78125 194.480469 86.769531 C 194.679688 86.71875 194.882812 86.671875 195.082031 86.644531 C 195.476562 86.601562 195.867188 86.617188 196.238281 86.707031 C 196.984375 86.882812 197.679688 87.242188 198.464844 87.535156 C 199.253906 87.839844 200.054688 88.277344 200.84375 88.875 C 201.226562 89.179688 201.570312 89.574219 201.910156 89.964844 C 202.222656 90.375 202.460938 90.859375 202.695312 91.335938 Z M 51.890625 198.414062 C 51.96875 198.644531 51.8125 199.039062 50.753906 200.3125 C 49.375 201.171875 48.902344 201.148438 48.664062 200.960938 L 47.851562 200.449219 C 47.28125 200.105469 46.863281 199.65625 46.429688 199.195312 C 45.535156 198.273438 45 197.175781 44.402344 196.085938 C 43.914062 194.984375 43.347656 193.871094 43.007812 192.722656 C 42.597656 191.570312 42.496094 190.394531 42.433594 189.21875 C 42.320312 186.871094 42.914062 184.589844 43.402344 182.40625 C 43.660156 181.308594 43.753906 180.214844 44.015625 179.136719 C 44.128906 178.597656 44.339844 178.070312 44.597656 177.554688 C 44.730469 177.300781 44.886719 177.046875 45.050781 176.796875 C 45.113281 176.671875 45.261719 176.554688 45.578125 176.480469 C 45.863281 176.402344 46.355469 176.359375 47.070312 176.390625 C 47.722656 176.675781 48.167969 176.886719 48.398438 177.066406 C 48.664062 177.246094 48.753906 177.386719 48.773438 177.515625 C 48.84375 177.78125 48.898438 178.039062 48.945312 178.296875 C 49.042969 178.8125 49.074219 179.308594 49.070312 179.808594 C 49.050781 180.792969 48.941406 181.773438 49.078125 182.757812 C 49.324219 184.730469 49.910156 186.628906 50.230469 188.429688 C 50.4375 189.316406 50.539062 190.21875 50.636719 191.09375 C 50.664062 192 50.769531 192.863281 50.902344 193.75 C 51.121094 194.574219 51.285156 195.457031 51.515625 196.300781 C 51.613281 196.734375 51.644531 197.234375 51.761719 197.683594 Z M 81.6875 145.335938 C 81.308594 142.796875 81.996094 140.402344 82.746094 138.324219 C 83.132812 137.273438 83.398438 136.226562 83.84375 135.238281 C 84.070312 134.746094 84.359375 134.28125 84.71875 133.851562 C 84.898438 133.640625 85.09375 133.433594 85.308594 133.238281 C 85.394531 133.132812 85.578125 133.066406 85.878906 133.066406 L 86.4375 133.121094 C 86.695312 133.175781 87.003906 133.261719 87.277344 133.339844 L 87.953125 133.882812 L 88.347656 134.261719 C 88.550781 134.480469 88.628906 134.636719 88.613281 134.746094 C 88.625 134.992188 88.628906 135.234375 88.625 135.464844 C 88.617188 135.933594 88.5625 136.375 88.480469 136.800781 C 88.300781 137.648438 88.074219 138.476562 88.097656 139.332031 C 88.121094 141.050781 88.660156 142.605469 89.050781 143.871094 C 89.269531 144.511719 89.460938 145.101562 89.644531 145.71875 C 89.820312 146.335938 90.019531 146.992188 90.382812 147.59375 C 90.761719 148.1875 91.183594 148.789062 91.683594 149.4375 C 91.902344 149.789062 92.179688 150.121094 92.417969 150.527344 C 92.535156 150.734375 92.683594 150.914062 92.816406 151.117188 C 92.984375 151.269531 92.992188 151.699219 92.539062 153.1875 C 91.65625 154.453125 91.234375 154.65625 90.96875 154.585938 C 90.683594 154.550781 90.382812 154.539062 90.09375 154.480469 C 89.519531 154.359375 88.9375 154.230469 88.398438 153.976562 C 87.292969 153.53125 86.316406 152.773438 85.390625 151.9375 C 84.476562 151.078125 83.609375 150.097656 82.921875 148.984375 C 82.230469 147.867188 81.855469 146.589844 81.6875 145.335938 Z M 96.789062 98.378906 C 96.675781 97.878906 96.691406 97.378906 96.761719 96.867188 C 96.863281 95.851562 97.371094 94.8125 97.65625 93.761719 C 97.816406 93.238281 97.78125 92.722656 97.851562 92.203125 C 97.894531 91.941406 97.980469 91.675781 98.128906 91.410156 L 98.390625 91.003906 C 98.417969 90.9375 98.546875 90.863281 98.804688 90.785156 L 99.300781 90.652344 L 100.101562 90.5 L 100.921875 90.546875 L 101.433594 90.613281 C 101.695312 90.664062 101.835938 90.722656 101.871094 90.785156 C 101.972656 90.914062 102.082031 91.042969 102.179688 91.171875 C 102.355469 91.425781 102.472656 91.6875 102.542969 91.953125 C 102.667969 92.480469 102.683594 93.019531 102.886719 93.542969 C 103.261719 94.601562 103.832031 95.664062 103.96875 96.753906 C 104.058594 97.296875 104.078125 97.847656 103.964844 98.398438 C 103.84375 98.953125 103.667969 99.5 103.527344 100.0625 C 103.390625 100.613281 103.25 101.1875 102.957031 101.738281 C 102.8125 102.023438 102.609375 102.300781 102.398438 102.570312 L 102.03125 102.976562 C 101.949219 103.117188 101.574219 103.222656 100.101562 103.113281 C 98.671875 102.746094 98.328125 102.589844 98.285156 102.46875 L 98.019531 102.097656 C 97.851562 101.839844 97.699219 101.59375 97.597656 101.351562 C 97.367188 100.855469 97.292969 100.375 97.175781 99.875 C 97.074219 99.382812 96.902344 98.875 96.789062 98.378906 Z M 99.738281 83.960938 C 99.628906 83.265625 99.511719 82.558594 99.480469 81.847656 C 99.433594 80.425781 99.585938 78.988281 99.898438 77.550781 C 100.179688 76.105469 100.628906 74.648438 101.246094 73.230469 C 101.855469 71.804688 102.84375 70.53125 103.9375 69.40625 C 105.042969 68.277344 106.367188 67.378906 107.738281 66.683594 C 109.132812 66.019531 110.5625 65.527344 111.996094 65.191406 C 113.421875 64.859375 114.8125 64.515625 116.238281 64.398438 C 116.945312 64.332031 117.664062 64.355469 118.375 64.472656 C 118.730469 64.523438 119.085938 64.605469 119.441406 64.703125 C 119.613281 64.734375 119.796875 64.84375 119.960938 65.101562 C 120.132812 65.332031 120.296875 65.75 120.414062 66.363281 C 120.210938 66.949219 120.050781 67.359375 119.898438 67.578125 C 119.746094 67.828125 119.601562 67.929688 119.457031 67.96875 L 118.589844 68.261719 C 118.019531 68.441406 117.453125 68.601562 116.890625 68.734375 C 115.769531 69.003906 114.648438 69.265625 113.652344 69.796875 C 111.632812 70.851562 110.148438 72.421875 108.914062 73.957031 C 108.585938 74.328125 108.316406 74.753906 108.023438 75.15625 C 107.886719 75.367188 107.738281 75.570312 107.585938 75.773438 C 107.449219 75.988281 107.3125 76.203125 107.160156 76.414062 C 106.585938 77.269531 106.019531 78.195312 105.617188 79.234375 C 105.164062 80.25 104.882812 81.359375 104.472656 82.476562 C 104.292969 83.046875 104.089844 83.621094 103.855469 84.207031 L 103.535156 85.105469 C 103.460938 85.410156 103.140625 85.695312 101.738281 86.011719 C 100.351562 85.683594 100.050781 85.332031 100 84.992188 Z M 104.117188 270.832031 C 104.1875 269.65625 104.007812 268.445312 104.171875 267.355469 C 104.242188 266.804688 104.335938 266.265625 104.5625 265.753906 C 104.773438 265.242188 105.058594 264.734375 105.246094 264.210938 C 105.453125 263.6875 105.632812 263.160156 105.929688 262.640625 C 106.085938 262.378906 106.265625 262.121094 106.476562 261.859375 L 106.804688 261.464844 C 106.871094 261.328125 107.222656 261.214844 108.625 261.152344 C 110 261.386719 110.328125 261.570312 110.371094 261.730469 L 110.628906 262.226562 C 110.792969 262.558594 110.914062 262.890625 110.992188 263.222656 C 111.15625 263.886719 111.171875 264.539062 111.179688 265.191406 C 111.199219 265.84375 111.21875 266.503906 111.207031 267.160156 C 111.171875 267.808594 111.019531 268.4375 110.78125 269.039062 C 110.355469 270.257812 109.507812 271.332031 108.804688 272.417969 C 108.445312 272.957031 108.242188 273.546875 107.929688 274.101562 C 107.765625 274.375 107.5625 274.632812 107.296875 274.863281 C 107.167969 274.980469 107.023438 275.09375 106.867188 275.195312 C 106.808594 275.257812 106.664062 275.28125 106.398438 275.253906 L 105.917969 275.167969 L 105.171875 274.953125 L 104.511719 274.535156 L 104.121094 274.25 C 103.921875 274.085938 103.835938 273.96875 103.832031 273.894531 C 103.792969 273.726562 103.769531 273.566406 103.746094 273.402344 C 103.714844 273.085938 103.726562 272.789062 103.777344 272.507812 C 103.894531 271.945312 104.09375 271.417969 104.117188 270.832031 Z M 123.257812 316.5625 C 122.5 317.773438 122.160156 317.984375 121.894531 317.960938 L 121.074219 317.992188 C 120.535156 318.003906 120.015625 317.984375 119.507812 317.941406 C 118.488281 317.929688 117.519531 317.796875 116.5625 317.710938 L 115.140625 317.722656 L 114.4375 317.726562 L 113.753906 317.800781 C 113.304688 317.84375 112.859375 317.867188 112.410156 317.847656 C 111.980469 317.894531 111.550781 317.914062 111.113281 317.917969 C 109.410156 318.039062 107.625 318.066406 105.941406 318.75 L 105.328125 319.023438 C 105.140625 319.140625 104.957031 319.265625 104.765625 319.390625 C 104.378906 319.621094 104.070312 319.941406 103.699219 320.207031 C 103.363281 320.5 102.972656 320.761719 102.589844 321.03125 L 101.980469 321.429688 C 101.890625 321.503906 101.738281 321.539062 101.464844 321.507812 C 101.214844 321.492188 100.804688 321.378906 100.203125 321.226562 C 99.730469 320.835938 99.457031 320.492188 99.34375 320.25 C 99.199219 319.980469 99.203125 319.796875 99.257812 319.648438 C 99.34375 319.332031 99.453125 319.027344 99.582031 318.738281 C 99.828125 318.144531 100.179688 317.625 100.578125 317.140625 C 100.988281 316.667969 101.425781 316.21875 101.910156 315.820312 C 102.371094 315.394531 102.855469 314.996094 103.359375 314.613281 C 105.316406 313.015625 107.703125 311.707031 110.238281 311.257812 C 112.792969 310.640625 115.289062 311.300781 117.597656 311.878906 C 118.734375 312.230469 119.851562 312.617188 120.914062 313.125 C 121.421875 313.417969 121.917969 313.746094 122.394531 314.101562 L 123.097656 314.652344 C 123.339844 314.800781 123.503906 315.183594 123.257812 316.5625 Z M 178.519531 266.796875 C 178.675781 267.445312 178.640625 268.050781 178.625 268.667969 C 178.585938 269.273438 178.605469 269.902344 178.539062 270.507812 C 178.472656 271.113281 178.261719 271.667969 177.980469 272.195312 C 177.453125 273.257812 176.484375 274.113281 175.699219 275.003906 C 175.292969 275.441406 175.0625 275.960938 174.714844 276.421875 C 174.535156 276.648438 174.308594 276.855469 174.023438 277.023438 C 173.878906 277.109375 173.710938 277.183594 173.558594 277.261719 C 173.496094 277.308594 173.335938 277.304688 173.058594 277.234375 L 172.542969 277.070312 L 171.742188 276.738281 L 171.042969 276.230469 L 170.625 275.894531 C 170.410156 275.703125 170.316406 275.582031 170.316406 275.511719 L 170.230469 275.039062 C 170.195312 274.734375 170.214844 274.460938 170.273438 274.207031 C 170.402344 273.710938 170.628906 273.257812 170.671875 272.722656 C 170.769531 271.65625 170.617188 270.527344 170.832031 269.578125 C 170.917969 269.09375 171.058594 268.636719 171.316406 268.21875 C 171.585938 267.800781 171.882812 267.398438 172.128906 266.96875 C 172.371094 266.542969 172.597656 266.113281 172.949219 265.703125 C 173.125 265.496094 173.355469 265.296875 173.582031 265.09375 L 173.960938 264.785156 C 174.039062 264.671875 174.433594 264.609375 175.996094 264.664062 C 177.519531 264.984375 177.871094 265.183594 177.914062 265.335938 L 178.175781 265.828125 C 178.332031 266.15625 178.453125 266.476562 178.519531 266.796875 Z M 223.21875 304.203125 C 223.367188 304.421875 223.355469 304.828125 222.546875 305.992188 C 221.382812 306.832031 221.011719 306.917969 220.800781 306.820312 L 220.105469 306.601562 C 219.652344 306.457031 219.257812 306.261719 218.824219 306.136719 C 217.988281 305.835938 217.273438 305.414062 216.480469 305.152344 C 215.726562 304.8125 214.898438 304.675781 214.132812 304.457031 C 213.742188 304.351562 213.34375 304.285156 212.972656 304.152344 C 212.597656 304.015625 212.214844 303.898438 211.828125 303.789062 C 210.304688 303.316406 208.695312 302.652344 206.953125 302.421875 C 206.523438 302.375 206.089844 302.363281 205.652344 302.363281 L 204.351562 302.449219 C 203.917969 302.480469 203.472656 302.460938 203.015625 302.417969 C 202.78125 302.390625 202.558594 302.363281 202.320312 302.324219 C 202.203125 302.316406 202.074219 302.246094 201.894531 302.035156 C 201.722656 301.855469 201.496094 301.488281 201.175781 300.960938 C 201.082031 300.347656 201.089844 299.910156 201.144531 299.65625 C 201.191406 299.371094 201.296875 299.234375 201.410156 299.164062 C 201.640625 298.996094 201.875 298.835938 202.109375 298.703125 C 202.585938 298.429688 203.089844 298.230469 203.601562 298.09375 C 204.113281 297.9375 204.636719 297.878906 205.160156 297.773438 C 205.683594 297.699219 206.207031 297.601562 206.738281 297.5 C 208.839844 297.082031 211.105469 296.769531 213.328125 297.164062 L 214.160156 297.304688 C 214.433594 297.371094 214.707031 297.449219 214.976562 297.539062 C 215.511719 297.707031 216.046875 297.890625 216.550781 298.144531 C 217.550781 298.691406 218.519531 299.253906 219.40625 299.925781 C 220.335938 300.535156 221.15625 301.28125 221.890625 302.09375 C 222.273438 302.488281 222.554688 302.980469 222.832031 303.464844 Z M 191.191406 82.804688 C 191.121094 82.40625 191.058594 82 191.011719 81.589844 C 190.304688 75.746094 191.738281 70.144531 194.933594 66.222656 C 197.253906 63.367188 200.257812 61.710938 203.613281 61.425781 C 203.949219 61.398438 204.289062 61.382812 204.625 61.382812 C 212.480469 61.382812 219.640625 69.097656 220.851562 79.132812 C 221.558594 84.976562 220.128906 90.582031 216.933594 94.503906 C 214.609375 97.355469 211.609375 99.011719 208.25 99.296875 C 207.523438 99.359375 206.800781 99.347656 206.089844 99.28125 C 206.996094 97.597656 207.421875 95.699219 207.265625 93.746094 C 207.238281 93.363281 207.191406 92.988281 207.132812 92.617188 C 208.34375 93.265625 209.652344 93.59375 210.984375 93.511719 C 215.597656 93.214844 218.976562 88.183594 219.105469 81.875 L 209.765625 80.363281 L 218.71875 77.679688 C 217.429688 71.460938 213.160156 66.921875 208.550781 67.214844 C 203.433594 67.542969 199.835938 73.691406 200.503906 80.953125 C 200.605469 82 200.792969 83.003906 201.042969 83.964844 C 200.203125 83.535156 199.285156 83.179688 198.304688 82.917969 C 195.917969 82.28125 193.425781 82.285156 191.191406 82.804688 Z M 162.082031 93.5625 C 156.957031 93.554688 152.644531 87.613281 152.449219 80.289062 C 152.253906 72.96875 156.25 67.03125 161.375 67.039062 C 166 67.046875 169.957031 71.875 170.832031 78.195312 L 161.730469 80.300781 L 170.945312 82.421875 C 170.40625 88.742188 166.703125 93.566406 162.082031 93.5625 Z M 173.363281 78.800781 C 172.933594 72.558594 170.324219 66.949219 166.195312 63.410156 C 163.496094 61.089844 160.40625 59.882812 157.207031 59.882812 C 156.847656 59.882812 156.488281 59.902344 156.125 59.929688 C 147.363281 60.667969 140.855469 70.347656 141.613281 81.511719 C 142.039062 87.753906 144.652344 93.363281 148.777344 96.902344 C 151.785156 99.480469 155.273438 100.683594 158.847656 100.382812 C 167.609375 99.644531 174.121094 89.964844 173.363281 78.800781 " fill-opacity="1" fill-rule="nonzero"/><path fill="rgb(100%, 38.42926%, 34.509277%)" d="M 250.421875 125.515625 C 250.429688 126.464844 249.875 127.371094 248.941406 127.765625 L 248.566406 127.925781 L 238.503906 132.175781 C 238.199219 132.300781 237.878906 132.363281 237.566406 132.363281 C 236.621094 132.363281 235.726562 131.8125 235.335938 130.886719 C 234.816406 129.660156 235.390625 128.238281 236.621094 127.71875 L 247.058594 123.3125 C 247.136719 123.28125 247.21875 123.261719 247.296875 123.238281 C 248.390625 122.902344 249.5625 123.382812 250.113281 124.382812 C 250.152344 124.453125 250.195312 124.519531 250.230469 124.597656 C 250.355469 124.898438 250.417969 125.210938 250.421875 125.515625 Z M 111.894531 150.402344 C 112.863281 149.167969 114.648438 148.949219 115.886719 149.921875 L 124.183594 156.433594 C 125.414062 157.402344 125.628906 159.183594 124.660156 160.417969 C 124.097656 161.132812 123.265625 161.503906 122.421875 161.503906 C 121.808594 161.503906 121.191406 161.304688 120.667969 160.898438 L 112.375 154.382812 C 111.140625 153.417969 110.929688 151.632812 111.894531 150.402344 Z M 236.5625 201.871094 C 237.585938 202.800781 237.660156 204.386719 236.730469 205.410156 C 236.234375 205.949219 235.558594 206.226562 234.875 206.226562 C 234.273438 206.226562 233.671875 206.011719 233.191406 205.574219 L 224.671875 197.832031 C 223.648438 196.902344 223.574219 195.316406 224.503906 194.296875 C 225.4375 193.273438 227.019531 193.199219 228.042969 194.128906 Z M 117.316406 103.222656 C 116.246094 102.136719 116.261719 100.390625 117.34375 99.324219 L 126.558594 90.261719 C 127.648438 89.191406 129.394531 89.207031 130.460938 90.292969 C 131.535156 91.378906 131.519531 93.125 130.433594 94.195312 L 121.21875 103.253906 C 120.679688 103.785156 119.984375 104.046875 119.28125 104.046875 C 118.570312 104.046875 117.855469 103.769531 117.316406 103.222656 Z M 173.429688 62.101562 C 172.117188 60.980469 171.964844 59.011719 173.089844 57.699219 C 174.214844 56.390625 176.1875 56.238281 177.496094 57.359375 L 184.34375 63.226562 C 185.652344 64.347656 185.804688 66.320312 184.683594 67.628906 C 184.0625 68.347656 183.1875 68.71875 182.308594 68.71875 C 181.589844 68.71875 180.863281 68.472656 180.277344 67.96875 Z M 172.179688 205.300781 L 176.84375 193.78125 C 177.40625 192.398438 178.980469 191.730469 180.355469 192.289062 C 181.742188 192.847656 182.40625 194.421875 181.847656 195.800781 L 177.179688 207.324219 C 176.757812 208.371094 175.746094 209.007812 174.679688 209.007812 C 174.339844 209.007812 173.996094 208.945312 173.667969 208.808594 C 172.285156 208.253906 171.621094 206.679688 172.179688 205.300781 Z M 101.132812 318.457031 C 101.203125 318.199219 101.289062 317.953125 101.394531 317.722656 C 101.597656 317.238281 101.882812 316.816406 102.203125 316.421875 C 102.539062 316.039062 102.894531 315.671875 103.285156 315.351562 C 103.660156 315.003906 104.054688 314.683594 104.460938 314.367188 C 106.054688 313.074219 107.992188 312.007812 110.050781 311.644531 C 112.125 311.144531 114.152344 311.679688 116.027344 312.148438 C 116.949219 312.433594 117.859375 312.746094 118.71875 313.15625 C 119.128906 313.402344 119.535156 313.664062 119.917969 313.953125 L 120.492188 314.398438 C 120.6875 314.523438 120.820312 314.832031 120.621094 315.953125 C 120.007812 316.933594 119.730469 317.105469 119.511719 317.089844 L 118.851562 317.113281 C 118.410156 317.121094 117.988281 317.109375 117.578125 317.070312 C 116.75 317.0625 115.964844 316.953125 115.183594 316.886719 L 114.03125 316.894531 L 113.457031 316.898438 L 112.90625 316.957031 C 112.539062 316.992188 112.179688 317.011719 111.816406 316.996094 C 111.464844 317.035156 111.113281 317.050781 110.757812 317.054688 C 109.378906 317.148438 107.925781 317.175781 106.5625 317.726562 L 106.0625 317.949219 C 105.910156 318.042969 105.757812 318.148438 105.609375 318.246094 C 105.292969 318.4375 105.039062 318.695312 104.742188 318.910156 C 104.46875 319.148438 104.148438 319.359375 103.839844 319.582031 L 103.34375 319.90625 C 103.269531 319.964844 103.144531 319.996094 102.925781 319.964844 C 102.722656 319.957031 102.386719 319.863281 101.902344 319.738281 C 101.515625 319.425781 101.296875 319.144531 101.203125 318.945312 C 101.085938 318.726562 101.085938 318.578125 101.132812 318.457031 Z M 104.0625 341.429688 C 113.519531 342.421875 132.085938 341.753906 143.0625 333.246094 C 143.039062 333.027344 143 332.742188 142.945312 332.394531 C 142.855469 331.839844 142.71875 331.121094 142.519531 330.289062 C 142.351562 329.601562 142.144531 328.847656 141.875 328.023438 C 141.03125 325.441406 139.609375 322.296875 137.257812 319.234375 C 137.175781 319.128906 137.089844 319.023438 137.003906 318.917969 C 136.71875 318.554688 136.421875 318.195312 136.105469 317.839844 C 135.910156 317.613281 135.710938 317.386719 135.503906 317.164062 C 135.3125 316.960938 135.113281 316.765625 134.914062 316.566406 C 130.875 312.511719 124.867188 308.984375 115.894531 307.695312 C 115.890625 307.695312 115.890625 307.695312 115.890625 307.695312 L 115.875 307.691406 C 115.300781 307.613281 114.570312 307.542969 113.894531 307.519531 C 113.207031 307.484375 112.511719 307.5 111.816406 307.511719 C 111.121094 307.539062 110.421875 307.582031 109.726562 307.644531 C 109.035156 307.738281 108.335938 307.789062 107.644531 307.914062 C 104.886719 308.355469 102.164062 309.148438 99.621094 310.347656 C 97.089844 311.539062 94.644531 312.996094 92.519531 314.867188 C 91.378906 315.714844 90.433594 316.785156 89.414062 317.777344 C 88.882812 318.253906 88.488281 318.859375 88.015625 319.394531 L 86.636719 321.042969 L 86.578125 321.113281 C 86.246094 321.511719 85.652344 321.566406 85.253906 321.234375 C 84.878906 320.917969 84.808594 320.363281 85.089844 319.96875 L 86.398438 318.128906 L 87.0625 317.210938 C 87.175781 317.0625 87.28125 316.902344 87.398438 316.757812 L 87.777344 316.332031 C 88.796875 315.21875 89.746094 314.027344 90.914062 313.046875 C 93.109375 310.933594 95.703125 309.25 98.414062 307.839844 C 101.136719 306.425781 104.074219 305.441406 107.085938 304.835938 C 107.839844 304.667969 108.601562 304.582031 109.363281 304.449219 C 110.125 304.359375 110.894531 304.289062 111.664062 304.230469 C 112.433594 304.195312 113.203125 304.15625 113.984375 304.171875 C 114.429688 304.175781 114.855469 304.191406 115.300781 304.21875 C 116.699219 302.121094 120.351562 295.890625 118.832031 289.988281 C 118.179688 287.445312 116.613281 285.226562 114.167969 283.34375 C 112.925781 286.027344 111.5 288.664062 109.875 291.183594 C 110.527344 290.964844 111.179688 290.726562 111.824219 290.457031 L 111.832031 290.457031 C 112.207031 290.296875 112.636719 290.476562 112.792969 290.855469 C 112.929688 291.183594 112.808594 291.554688 112.527344 291.746094 C 110.679688 293 108.609375 293.992188 106.371094 294.574219 C 104.148438 295.171875 101.746094 295.304688 99.425781 294.914062 C 98.265625 294.714844 97.125 294.394531 96.035156 293.960938 C 94.953125 293.507812 93.910156 292.964844 92.953125 292.3125 C 91.011719 291 89.386719 289.398438 88.101562 287.386719 C 87.824219 286.953125 87.953125 286.375 88.390625 286.09375 C 88.773438 285.851562 89.269531 285.921875 89.574219 286.242188 L 89.644531 286.316406 C 90.234375 286.941406 90.917969 287.609375 91.632812 288.1875 C 92.332031 286.859375 93.929688 283.65625 95.773438 279.003906 C 95.445312 279.019531 95.113281 279.035156 94.777344 279.058594 C 93.226562 279.152344 85.316406 279.917969 81.933594 285.386719 C 79.632812 289.101562 79.867188 294.296875 82.625 300.832031 C 82.761719 301.0625 82.957031 301.351562 83.132812 301.597656 C 83.367188 301.910156 83.609375 302.21875 83.863281 302.519531 C 84.375 303.128906 84.945312 303.6875 85.554688 304.199219 C 86.164062 304.71875 86.824219 305.175781 87.523438 305.570312 C 88.210938 305.992188 88.949219 306.308594 89.703125 306.65625 L 89.769531 306.6875 C 90.242188 306.90625 90.449219 307.46875 90.230469 307.941406 C 90.050781 308.332031 89.640625 308.539062 89.238281 308.480469 C 88.304688 308.347656 87.363281 308.128906 86.476562 307.765625 C 85.585938 307.421875 84.734375 306.972656 83.921875 306.457031 C 83.113281 305.941406 82.34375 305.359375 81.628906 304.710938 C 81.421875 304.523438 81.230469 304.3125 81.03125 304.109375 C 78.539062 306.933594 73.058594 314.292969 73.058594 324.398438 C 73.058594 324.449219 73.050781 324.5 73.046875 324.554688 C 75.101562 327.707031 83.980469 339.328125 104.0625 341.429688 Z M 146.457031 338.894531 C 146.40625 341.003906 144.199219 343.144531 142.320312 344.335938 C 115.972656 361.082031 80.15625 346.804688 71.4375 336.054688 C 69.085938 333.15625 68.128906 330.683594 68.671875 328.902344 C 69.058594 327.625 70.175781 326.828125 70.976562 326.410156 C 73.660156 330.445312 83.042969 341.976562 103.777344 344.152344 C 105.851562 344.367188 108.347656 344.503906 111.105469 344.503906 C 121.398438 344.503906 135.320312 342.554688 144.542969 335.539062 C 145.832031 336.621094 146.480469 337.746094 146.457031 338.894531 Z M 232.851562 322.453125 C 233.210938 325.222656 230.851562 328.320312 229.914062 329.277344 C 221.984375 337.386719 206.394531 340.964844 186.023438 339.359375 C 169.910156 338.085938 154.929688 333.914062 145.90625 329.980469 C 145.441406 328.023438 144.625 325.425781 143.238281 322.617188 C 149.414062 325.542969 160.328125 329.265625 179.160156 332.253906 C 181.558594 332.636719 187.433594 333.433594 194.554688 333.433594 C 206.960938 333.433594 223.140625 331.007812 231.292969 319.75 C 232.207031 320.53125 232.71875 321.421875 232.851562 322.453125 Z M 203.316406 299.644531 C 203.355469 299.414062 203.4375 299.300781 203.53125 299.246094 C 203.714844 299.117188 203.902344 298.980469 204.09375 298.878906 C 204.476562 298.65625 204.878906 298.5 205.292969 298.386719 C 205.703125 298.261719 206.125 298.214844 206.542969 298.128906 C 206.964844 298.074219 207.386719 297.992188 207.808594 297.910156 C 209.5 297.578125 211.320312 297.324219 213.105469 297.640625 L 213.777344 297.753906 C 213.996094 297.808594 214.214844 297.871094 214.425781 297.941406 C 214.859375 298.078125 215.289062 298.222656 215.695312 298.429688 C 216.496094 298.867188 217.273438 299.320312 217.988281 299.863281 C 218.738281 300.347656 219.394531 300.945312 219.988281 301.601562 C 220.292969 301.917969 220.519531 302.3125 220.742188 302.703125 L 221.054688 303.300781 C 221.171875 303.472656 221.160156 303.800781 220.511719 304.734375 C 219.578125 305.410156 219.277344 305.476562 219.105469 305.398438 L 218.550781 305.222656 C 218.1875 305.105469 217.867188 304.949219 217.519531 304.847656 C 216.851562 304.609375 216.273438 304.273438 215.636719 304.058594 C 215.035156 303.785156 214.367188 303.675781 213.75 303.5 C 213.4375 303.414062 213.121094 303.363281 212.820312 303.253906 C 212.519531 303.144531 212.210938 303.050781 211.898438 302.964844 C 210.675781 302.585938 209.382812 302.050781 207.988281 301.867188 C 207.640625 301.828125 207.289062 301.816406 206.9375 301.820312 L 205.894531 301.886719 C 205.546875 301.910156 205.1875 301.894531 204.820312 301.863281 C 204.636719 301.839844 204.453125 301.820312 204.261719 301.789062 C 204.167969 301.78125 204.066406 301.722656 203.921875 301.554688 C 203.78125 301.410156 203.601562 301.117188 203.34375 300.691406 C 203.265625 300.199219 203.273438 299.851562 203.316406 299.644531 Z M 140.484375 318.015625 C 144.816406 320.734375 155.539062 325.738281 179.589844 329.554688 C 185.953125 330.566406 217.855469 334.648438 229.441406 317.605469 C 229.441406 317.535156 229.425781 317.46875 229.433594 317.398438 C 229.5 316.617188 230.871094 298.164062 213.445312 293.847656 C 203.144531 291.292969 196.53125 297.109375 195.683594 297.910156 C 195.664062 297.929688 195.648438 297.957031 195.625 297.976562 C 195.582031 298.019531 195.539062 298.054688 195.496094 298.089844 L 195.480469 298.101562 C 195.207031 298.3125 194.851562 298.636719 194.542969 298.933594 C 194.226562 299.242188 193.917969 299.558594 193.609375 299.882812 C 193 300.535156 192.4375 301.230469 191.917969 301.960938 C 191.394531 302.683594 190.933594 303.453125 190.527344 304.246094 C 190.089844 305.03125 189.765625 305.863281 189.410156 306.703125 L 189.382812 306.761719 C 189.179688 307.242188 188.628906 307.464844 188.148438 307.261719 C 187.746094 307.09375 187.523438 306.675781 187.578125 306.265625 C 187.714844 305.257812 187.9375 304.246094 188.292969 303.289062 C 188.628906 302.324219 189.058594 301.390625 189.550781 300.496094 C 190.039062 299.597656 190.582031 298.726562 191.1875 297.902344 C 191.394531 297.617188 191.621094 297.34375 191.847656 297.070312 C 191.414062 296.804688 190.890625 296.507812 190.25 296.21875 C 189.308594 295.789062 188.140625 295.472656 187.195312 295.269531 C 187.179688 295.3125 187.167969 295.363281 187.148438 295.410156 C 187.046875 295.710938 186.917969 296.003906 186.800781 296.292969 C 186.660156 296.578125 186.527344 296.863281 186.378906 297.140625 C 185.777344 298.246094 185.007812 299.269531 184.085938 300.128906 C 183.167969 300.984375 182.140625 301.730469 181.003906 302.21875 C 180.457031 302.5 179.867188 302.664062 179.289062 302.847656 C 178.710938 303.015625 178.109375 303.085938 177.527344 303.191406 C 177.019531 303.285156 176.53125 302.949219 176.4375 302.441406 C 176.359375 302.003906 176.597656 301.582031 176.988281 301.410156 L 177.128906 301.351562 C 177.609375 301.148438 178.097656 300.992188 178.554688 300.777344 C 179 300.535156 179.46875 300.363281 179.871094 300.070312 C 180.726562 299.578125 181.453125 298.921875 182.078125 298.203125 C 182.703125 297.480469 183.199219 296.65625 183.5625 295.773438 C 183.738281 295.328125 183.898438 294.878906 184.019531 294.421875 C 184.078125 294.195312 184.132812 293.964844 184.171875 293.738281 C 184.210938 293.527344 184.246094 293.253906 184.253906 293.132812 C 184.253906 293.109375 184.261719 293.089844 184.261719 293.066406 C 184.261719 293.058594 184.261719 293.046875 184.265625 293.042969 C 184.304688 292.753906 184.90625 287.644531 179.175781 283.757812 C 177.957031 286.214844 176.605469 288.675781 175.097656 291.125 C 175.667969 290.914062 176.238281 290.6875 176.832031 290.503906 L 176.925781 290.476562 C 177.3125 290.355469 177.722656 290.570312 177.839844 290.957031 C 177.941406 291.28125 177.804688 291.621094 177.527344 291.792969 C 177.078125 292.074219 176.621094 292.347656 176.15625 292.609375 C 175.6875 292.863281 175.242188 293.175781 174.742188 293.386719 L 173.234375 293.992188 C 172.980469 294.09375 172.726562 294.195312 172.472656 294.285156 L 171.671875 294.484375 C 171.136719 294.609375 170.601562 294.746094 170.0625 294.855469 L 168.402344 295.007812 C 167.84375 295.085938 167.285156 295.023438 166.726562 294.996094 C 166.167969 294.960938 165.605469 294.953125 165.058594 294.820312 C 164.511719 294.703125 163.949219 294.625 163.414062 294.460938 C 162.882812 294.285156 162.347656 294.113281 161.820312 293.925781 L 160.304688 293.210938 C 159.820312 292.941406 159.351562 292.644531 158.882812 292.351562 C 158.433594 292.03125 157.988281 291.699219 157.554688 291.363281 C 157.148438 290.988281 156.722656 290.644531 156.34375 290.246094 C 155.960938 289.851562 155.59375 289.445312 155.25 289.019531 C 154.894531 288.59375 154.589844 288.167969 154.273438 287.648438 C 154.007812 287.207031 154.144531 286.628906 154.589844 286.363281 C 154.96875 286.128906 155.449219 286.203125 155.746094 286.507812 L 155.816406 286.578125 C 156.375 287.152344 157.011719 287.785156 157.6875 288.320312 C 158.425781 287.117188 160.171875 284.144531 162.207031 279.785156 C 158.476562 280.015625 154.324219 280.933594 151.535156 283.3125 C 149.386719 285.140625 148.34375 287.578125 148.34375 290.761719 C 148.347656 290.921875 148.367188 291.195312 148.402344 291.421875 C 148.4375 291.691406 148.496094 291.957031 148.550781 292.226562 C 148.679688 292.761719 148.84375 293.292969 149.042969 293.816406 C 149.449219 294.847656 150.003906 295.835938 150.738281 296.6875 C 150.902344 296.921875 151.121094 297.101562 151.316406 297.308594 C 151.511719 297.511719 151.703125 297.722656 151.933594 297.890625 L 152.597656 298.4375 L 153.320312 298.914062 C 153.785156 299.269531 154.347656 299.472656 154.859375 299.777344 C 155.394531 300.03125 155.960938 300.238281 156.511719 300.492188 L 156.632812 300.542969 C 157.105469 300.757812 157.316406 301.3125 157.101562 301.785156 C 156.910156 302.199219 156.460938 302.410156 156.03125 302.308594 C 155.375 302.152344 154.703125 302.027344 154.050781 301.820312 L 153.082031 301.460938 C 152.753906 301.347656 152.441406 301.199219 152.132812 301.03125 L 151.207031 300.542969 L 150.328125 299.953125 C 150.027344 299.761719 149.757812 299.527344 149.488281 299.296875 C 149.222656 299.058594 148.933594 298.847656 148.699219 298.578125 C 147.667969 297.582031 146.832031 296.382812 146.1875 295.097656 C 145.90625 294.542969 145.679688 293.960938 145.480469 293.371094 C 142.347656 295.511719 136.40625 301.503906 138.332031 315.324219 C 139.121094 316.210938 139.839844 317.109375 140.484375 318.015625 " fill-opacity="1" fill-rule="nonzero"/><path fill="rgb(100%, 59.999084%, 59.999084%)" d="M 146.644531 128.953125 C 147.003906 130.238281 146.25 131.566406 144.96875 131.925781 L 144.320312 132.105469 L 141.90625 132.773438 L 135.914062 134.4375 C 135.699219 134.5 135.480469 134.527344 135.265625 134.527344 C 134.210938 134.527344 133.238281 133.828125 132.941406 132.761719 C 132.585938 131.480469 133.335938 130.148438 134.617188 129.792969 L 141.90625 127.769531 L 143.671875 127.277344 C 143.890625 127.214844 144.105469 127.199219 144.320312 127.199219 C 145.375 127.199219 146.347656 127.886719 146.644531 128.953125 Z M 231.730469 169.789062 C 232.4375 171.328125 231.761719 173.148438 230.222656 173.855469 C 229.804688 174.046875 229.375 174.136719 228.941406 174.136719 C 227.78125 174.136719 226.667969 173.472656 226.148438 172.347656 L 220.59375 160.25 C 219.886719 158.710938 220.5625 156.890625 222.101562 156.183594 C 223.644531 155.476562 225.46875 156.152344 226.175781 157.691406 Z M 235.34375 84.265625 L 231.53125 95.734375 C 231.117188 96.976562 229.957031 97.765625 228.714844 97.765625 C 228.402344 97.765625 228.085938 97.71875 227.773438 97.613281 C 226.214844 97.097656 225.375 95.417969 225.890625 93.863281 L 229.703125 82.394531 C 230.21875 80.839844 231.898438 79.996094 233.460938 80.515625 C 235.019531 81.03125 235.859375 82.710938 235.34375 84.265625 Z M 212.332031 220.230469 C 212.851562 221.929688 211.890625 223.730469 210.191406 224.25 L 195.546875 228.703125 C 195.234375 228.800781 194.917969 228.84375 194.609375 228.84375 C 193.230469 228.84375 191.949219 227.949219 191.527344 226.5625 C 191.007812 224.863281 191.972656 223.0625 193.671875 222.546875 L 208.3125 218.09375 C 210.019531 217.578125 211.816406 218.53125 212.332031 220.230469 Z M 196.714844 93.789062 C 196.664062 93.539062 196.613281 93.425781 196.644531 93.246094 C 196.628906 93.175781 196.664062 93.085938 196.664062 92.988281 C 196.644531 92.894531 196.671875 92.777344 196.65625 92.644531 C 196.621094 92.523438 196.613281 92.367188 196.550781 92.222656 C 196.472656 92.089844 196.417969 91.925781 196.308594 91.785156 C 196.089844 91.492188 195.761719 91.324219 195.425781 91.125 C 195.261719 91.011719 195.097656 90.886719 194.9375 90.707031 C 194.859375 90.625 194.78125 90.527344 194.699219 90.425781 C 194.65625 90.386719 194.632812 90.28125 194.617188 90.074219 L 194.609375 89.6875 C 194.621094 89.5 194.632812 89.273438 194.632812 89.0625 C 194.691406 88.867188 194.765625 88.648438 194.835938 88.472656 L 195.007812 88.121094 C 195.117188 87.941406 195.214844 87.855469 195.292969 87.847656 C 195.449219 87.804688 195.609375 87.769531 195.765625 87.75 C 196.078125 87.714844 196.390625 87.726562 196.6875 87.796875 C 197.28125 87.9375 197.828125 88.222656 198.453125 88.457031 C 199.078125 88.695312 199.714844 89.042969 200.339844 89.519531 C 200.644531 89.761719 200.917969 90.074219 201.183594 90.386719 C 201.4375 90.707031 201.621094 91.09375 201.808594 91.472656 C 202.113281 92.234375 202.28125 93.097656 202.152344 93.839844 C 202.09375 94.640625 201.773438 95.242188 201.5625 95.890625 C 201.300781 96.464844 201 97 200.617188 97.46875 C 200.609375 97.476562 200.605469 97.488281 200.597656 97.5 C 200.378906 97.710938 200.140625 97.910156 199.878906 98.085938 L 199.769531 98.160156 L 199.480469 98.34375 C 199.378906 98.441406 199.074219 98.433594 198.058594 97.980469 C 197.152344 97.308594 196.960938 97.082031 196.972656 96.960938 L 196.910156 96.5625 C 196.882812 96.335938 196.875 96.128906 196.878906 95.933594 C 196.878906 95.898438 196.875 95.863281 196.875 95.835938 C 196.835938 95.394531 196.890625 95.015625 196.90625 94.660156 C 196.898438 94.605469 196.890625 94.550781 196.882812 94.496094 C 196.851562 94.222656 196.824219 93.949219 196.714844 93.789062 Z M 190.808594 85.738281 C 190.476562 85.847656 190.164062 85.976562 189.859375 86.117188 C 188.757812 86.628906 187.847656 87.324219 187.257812 88.183594 C 186.964844 88.617188 186.464844 88.816406 185.980469 88.769531 L 180.527344 94.074219 L 184.832031 99.148438 C 185.066406 99.171875 185.296875 99.25 185.5 99.398438 C 191.292969 103.683594 196.917969 103.238281 200.246094 101.394531 C 200.820312 101.078125 201.34375 100.714844 201.808594 100.3125 C 202.097656 100.066406 202.367188 99.808594 202.613281 99.535156 C 202.859375 99.261719 203.082031 98.976562 203.28125 98.683594 C 204.226562 97.296875 204.675781 95.671875 204.542969 93.960938 C 204.082031 88.140625 199.992188 86.199219 197.59375 85.5625 C 195.65625 85.042969 193.605469 85.042969 191.796875 85.460938 C 191.460938 85.539062 191.128906 85.628906 190.808594 85.738281 Z M 171.503906 247.351562 C 154.691406 249.09375 138.585938 246.671875 125.664062 242.875 C 130.917969 242.34375 136.589844 241.632812 140.132812 240.902344 C 143.929688 240.121094 150.332031 238.09375 155.234375 234.851562 C 160.257812 240.117188 165.703125 243.929688 171.613281 246.296875 C 172.160156 246.515625 172.710938 246.730469 173.269531 246.925781 C 173.4375 246.984375 173.605469 247.035156 173.769531 247.089844 C 173.597656 247.109375 173.421875 247.132812 173.246094 247.152344 C 172.667969 247.222656 172.085938 247.289062 171.503906 247.351562 Z M 174.027344 39.019531 C 172.21875 38.015625 169.878906 37.054688 167.214844 36.375 C 177.214844 37.140625 186.042969 38.972656 193.84375 41.589844 C 192.21875 42.152344 190.566406 42.871094 188.867188 43.75 C 185.195312 45.640625 182.058594 43.914062 177.246094 40.941406 C 176.207031 40.296875 175.132812 39.632812 174.027344 39.019531 Z M 49.664062 196.796875 C 48.707031 197.398438 48.375 197.382812 48.210938 197.25 L 47.640625 196.894531 C 47.246094 196.65625 46.953125 196.339844 46.652344 196.019531 C 46.03125 195.378906 45.660156 194.613281 45.238281 193.855469 C 44.898438 193.085938 44.503906 192.3125 44.265625 191.511719 C 43.984375 190.710938 43.910156 189.886719 43.867188 189.070312 C 43.789062 187.433594 44.203125 185.839844 44.542969 184.320312 C 44.71875 183.554688 44.789062 182.792969 44.96875 182.042969 C 45.050781 181.664062 45.195312 181.296875 45.375 180.941406 C 45.46875 180.761719 45.574219 180.585938 45.691406 180.414062 C 45.734375 180.324219 45.835938 180.242188 46.058594 180.191406 C 46.253906 180.136719 46.601562 180.105469 47.097656 180.128906 C 47.554688 180.328125 47.863281 180.476562 48.019531 180.601562 C 48.207031 180.726562 48.273438 180.820312 48.285156 180.914062 C 48.332031 181.097656 48.375 181.277344 48.40625 181.457031 C 48.476562 181.816406 48.492188 182.164062 48.492188 182.507812 C 48.476562 183.195312 48.402344 183.878906 48.496094 184.566406 C 48.667969 185.941406 49.078125 187.265625 49.296875 188.519531 C 49.445312 189.136719 49.515625 189.765625 49.582031 190.375 C 49.601562 191.007812 49.679688 191.609375 49.769531 192.226562 C 49.921875 192.800781 50.035156 193.417969 50.195312 194 C 50.265625 194.304688 50.285156 194.65625 50.363281 194.96875 L 50.457031 195.476562 C 50.511719 195.636719 50.402344 195.910156 49.664062 196.796875 Z M 136.789062 48.484375 C 141.742188 40.90625 147.914062 37.296875 153.957031 35.996094 C 152.078125 36.027344 150.171875 36.082031 148.21875 36.183594 C 99.992188 38.707031 69.746094 64.648438 58.320312 113.285156 C 56.882812 119.382812 55.898438 126.304688 55.527344 133.710938 C 56.765625 131.46875 58.066406 129.191406 59.4375 126.875 C 59.917969 126.0625 60.96875 125.792969 61.78125 126.273438 C 62.59375 126.753906 62.863281 127.800781 62.382812 128.613281 C 62.035156 129.199219 61.707031 129.777344 61.367188 130.359375 C 59.191406 134.097656 57.179688 137.734375 55.359375 141.261719 C 54.804688 142.328125 54.265625 143.386719 53.75 144.4375 C 53.203125 145.539062 52.675781 146.621094 52.167969 147.699219 C 40.21875 172.960938 38.089844 192.167969 45.878906 204.941406 C 52.113281 215.164062 63.71875 219.179688 72.6875 220.730469 C 70.59375 216.058594 70.882812 211.78125 71.179688 209.863281 C 71.257812 209.367188 71.351562 208.886719 71.453125 208.417969 C 71.617188 207.671875 71.804688 206.960938 72.023438 206.277344 C 72.03125 206.25 72.042969 206.222656 72.050781 206.195312 C 72.019531 206.191406 71.988281 206.183594 71.960938 206.175781 C 71.152344 205.996094 70.34375 205.78125 69.535156 205.527344 C 65.542969 204.277344 61.605469 202.066406 58.800781 198.230469 C 54.734375 192.660156 53.910156 184.792969 56.316406 174.730469 C 56.582031 173.632812 56.886719 172.503906 57.226562 171.351562 C 57.539062 170.289062 57.886719 169.207031 58.265625 168.097656 C 59.734375 163.816406 61.683594 159.210938 64.132812 154.28125 C 64.382812 153.773438 64.851562 153.449219 65.371094 153.359375 C 65.714844 153.296875 66.085938 153.335938 66.421875 153.503906 C 67.269531 153.925781 67.617188 154.949219 67.199219 155.796875 C 63.71875 162.804688 61.273438 169.074219 59.847656 174.59375 C 62.480469 184.238281 66.375 193.761719 71.8125 202.597656 C 72.34375 202.734375 72.875 202.851562 73.40625 202.957031 C 76.847656 196.414062 83.148438 193.324219 88.441406 191.050781 C 88.820312 189.914062 89.214844 188.871094 89.59375 187.957031 C 96.753906 170.550781 93.097656 168.121094 85.085938 162.800781 C 77.027344 157.449219 72.519531 151.457031 71.691406 144.992188 C 70.820312 138.191406 73.875 130.996094 81.027344 122.992188 C 92.199219 110.492188 90.785156 100.246094 89.535156 91.210938 C 89.175781 88.617188 88.839844 86.167969 88.820312 83.808594 C 88.757812 74.859375 91.007812 68.007812 95.511719 63.457031 C 102.402344 56.492188 113.03125 56.4375 119.382812 56.40625 L 120.21875 56.402344 C 130.867188 56.324219 133.695312 53.21875 136.789062 48.484375 Z M 200.21875 141.695312 C 200.011719 168.644531 189.203125 178.335938 179.160156 178.417969 C 179.101562 178.421875 179.039062 178.421875 178.976562 178.421875 C 174.078125 178.421875 169.921875 176.769531 166.625 173.503906 C 165.742188 172.625 164.945312 171.660156 164.222656 170.632812 C 174.222656 155.40625 174.53125 140.542969 172.96875 130.636719 C 171.414062 120.777344 167.835938 113.933594 166.957031 112.359375 C 167.4375 111.84375 167.929688 111.347656 168.445312 110.898438 C 171.425781 108.285156 174.871094 106.9375 178.507812 106.9375 C 179.164062 106.9375 179.828125 106.984375 180.492188 107.070312 C 196.261719 109.15625 200.308594 129.816406 200.21875 141.695312 Z M 288.964844 96.894531 C 282.703125 109.382812 274.71875 117.507812 268.265625 122.519531 C 264.78125 125.226562 261.464844 127.253906 258.632812 128.75 C 258.140625 124.449219 257.445312 119.714844 256.453125 114.707031 C 267.214844 108.128906 273.585938 99.980469 277.285156 93.316406 C 281.21875 95.6875 285.824219 96.570312 288.964844 96.894531 Z M 104.511719 271.648438 C 104.605469 271.203125 104.765625 270.777344 104.785156 270.308594 C 104.84375 269.367188 104.699219 268.398438 104.828125 267.523438 C 104.886719 267.085938 104.960938 266.652344 105.144531 266.246094 C 105.308594 265.835938 105.535156 265.429688 105.6875 265.007812 C 105.859375 264.589844 106 264.167969 106.238281 263.75 C 106.367188 263.542969 106.507812 263.335938 106.671875 263.125 L 106.9375 262.808594 C 106.992188 262.699219 107.273438 262.609375 108.394531 262.558594 C 109.496094 262.746094 109.757812 262.894531 109.792969 263.023438 L 109.996094 263.417969 C 110.128906 263.683594 110.226562 263.953125 110.289062 264.214844 C 110.421875 264.746094 110.433594 265.269531 110.4375 265.792969 C 110.453125 266.316406 110.472656 266.839844 110.460938 267.367188 C 110.429688 267.886719 110.308594 268.390625 110.121094 268.875 C 109.777344 269.847656 109.101562 270.707031 108.539062 271.578125 C 108.25 272.007812 108.085938 272.484375 107.839844 272.921875 C 107.707031 273.144531 107.542969 273.351562 107.332031 273.539062 C 107.230469 273.628906 107.109375 273.71875 106.988281 273.800781 C 106.941406 273.851562 106.824219 273.867188 106.613281 273.847656 L 106.230469 273.777344 L 105.628906 273.605469 L 105.105469 273.277344 L 104.789062 273.042969 C 104.632812 272.914062 104.558594 272.824219 104.558594 272.761719 C 104.53125 272.625 104.503906 272.496094 104.488281 272.367188 C 104.460938 272.113281 104.46875 271.875 104.511719 271.648438 Z M 116.453125 243.640625 C 115.300781 243.707031 114.1875 243.738281 113.113281 243.738281 C 111.164062 243.738281 109.347656 243.628906 107.644531 243.441406 C 106.628906 256.257812 103.667969 267.335938 100.777344 275.53125 C 100.574219 276.105469 100.371094 276.671875 100.171875 277.21875 C 99.953125 277.800781 99.738281 278.367188 99.527344 278.917969 C 97.664062 283.765625 95.957031 287.285156 95.007812 289.125 C 99.578125 291.699219 104.261719 291.273438 105.875 291.019531 C 107.96875 288.019531 109.742188 284.789062 111.246094 281.472656 C 111.484375 280.949219 111.714844 280.425781 111.933594 279.902344 C 112.160156 279.378906 112.378906 278.847656 112.585938 278.316406 C 118.003906 264.730469 119.222656 250.429688 119.496094 244.578125 C 118.601562 244.265625 117.714844 243.945312 116.835938 243.617188 C 116.710938 243.621094 116.574219 243.632812 116.453125 243.640625 Z M 171.445312 273.292969 C 171.539062 272.9375 171.703125 272.613281 171.730469 272.226562 C 171.804688 271.460938 171.695312 270.652344 171.847656 269.96875 C 171.910156 269.625 172.011719 269.296875 172.195312 268.996094 C 172.386719 268.695312 172.601562 268.40625 172.777344 268.097656 C 172.953125 267.792969 173.113281 267.484375 173.367188 267.191406 C 173.488281 267.042969 173.660156 266.898438 173.820312 266.753906 L 174.089844 266.53125 C 174.148438 266.453125 174.429688 266.40625 175.550781 266.445312 C 176.644531 266.671875 176.898438 266.820312 176.925781 266.929688 L 177.113281 267.277344 C 177.226562 267.515625 177.316406 267.746094 177.363281 267.976562 C 177.476562 268.441406 177.449219 268.875 177.4375 269.320312 C 177.410156 269.75 177.425781 270.207031 177.375 270.636719 C 177.332031 271.074219 177.179688 271.472656 176.976562 271.847656 C 176.597656 272.613281 175.902344 273.226562 175.339844 273.863281 C 175.046875 274.179688 174.878906 274.546875 174.632812 274.882812 C 174.503906 275.042969 174.34375 275.191406 174.136719 275.3125 C 174.03125 275.371094 173.914062 275.429688 173.804688 275.480469 C 173.761719 275.515625 173.644531 275.515625 173.445312 275.464844 L 173.074219 275.34375 L 172.5 275.109375 L 172 274.746094 L 171.699219 274.5 C 171.542969 274.367188 171.476562 274.28125 171.476562 274.226562 L 171.417969 273.886719 C 171.390625 273.667969 171.402344 273.472656 171.445312 273.292969 Z M 174.574219 250.453125 C 173.136719 260.730469 170.273438 269.632812 167.464844 276.449219 C 167.230469 277.019531 166.996094 277.570312 166.765625 278.109375 C 166.515625 278.679688 166.273438 279.234375 166.035156 279.769531 C 164.007812 284.257812 162.15625 287.546875 161.089844 289.320312 C 165.316406 291.632812 169.5625 291.273438 171.113281 291.03125 C 173.023438 288.085938 174.691406 285.101562 176.15625 282.117188 C 176.40625 281.601562 176.644531 281.089844 176.886719 280.574219 C 177.128906 280.054688 177.359375 279.539062 177.589844 279.023438 C 182.394531 268.179688 184.558594 257.550781 185.488281 249.1875 C 184.601562 249.15625 183.722656 249.101562 182.851562 249.015625 C 180.132812 249.601562 177.375 250.082031 174.574219 250.453125 " fill-opacity="1" fill-rule="nonzero"/><path fill="rgb(92.939758%, 92.549133%, 92.939758%)" d="M 164.210938 175.925781 C 163.222656 174.945312 162.335938 173.878906 161.53125 172.753906 C 161.132812 172.195312 160.761719 171.625 160.40625 171.042969 C 160.0625 170.484375 159.738281 169.914062 159.433594 169.335938 C 154.210938 159.445312 154.128906 147.242188 154.128906 146.605469 C 154.128906 130.75 157.273438 120.816406 161.027344 114.605469 C 161.394531 114 161.765625 113.433594 162.140625 112.894531 C 162.570312 112.285156 163.003906 111.714844 163.433594 111.1875 C 164.359375 110.0625 165.289062 109.113281 166.1875 108.328125 C 170.472656 104.578125 175.578125 102.972656 180.941406 103.683594 C 199.074219 106.082031 203.742188 128.722656 203.640625 141.722656 C 203.410156 171.148438 190.859375 181.738281 179.1875 181.835938 C 179.117188 181.839844 179.042969 181.839844 178.972656 181.839844 C 173.136719 181.839844 168.171875 179.851562 164.210938 175.925781 Z M 137.046875 133.398438 C 136.894531 133.441406 136.738281 133.460938 136.585938 133.460938 C 135.835938 133.460938 135.152344 132.964844 134.9375 132.207031 C 134.683594 131.300781 135.21875 130.359375 136.128906 130.105469 L 141.289062 128.671875 L 142.542969 128.320312 C 142.695312 128.277344 142.851562 128.265625 143 128.265625 C 143.75 128.265625 144.4375 128.753906 144.648438 129.511719 C 144.902344 130.417969 144.367188 131.363281 143.460938 131.617188 L 143 131.742188 L 141.289062 132.214844 Z M 127.945312 95.167969 L 122.234375 100.785156 C 121.902344 101.113281 121.46875 101.273438 121.035156 101.273438 C 120.59375 101.273438 120.152344 101.105469 119.816406 100.765625 C 119.15625 100.089844 119.164062 99.011719 119.835938 98.347656 L 125.542969 92.734375 C 126.21875 92.070312 127.300781 92.082031 127.964844 92.75 C 128.625 93.425781 128.617188 94.503906 127.945312 95.167969 Z M 122.121094 158.425781 C 121.78125 158.855469 121.277344 159.078125 120.773438 159.078125 C 120.402344 159.078125 120.03125 158.957031 119.71875 158.710938 L 114.722656 154.792969 C 113.980469 154.207031 113.851562 153.132812 114.433594 152.390625 C 115.015625 151.648438 116.089844 151.519531 116.835938 152.105469 L 121.832031 156.027344 C 122.574219 156.609375 122.703125 157.683594 122.121094 158.425781 Z M 107.78125 73.359375 C 107.511719 73.660156 107.296875 74.003906 107.058594 74.332031 C 106.949219 74.503906 106.828125 74.667969 106.703125 74.832031 C 106.59375 75.003906 106.484375 75.179688 106.363281 75.347656 C 105.894531 76.042969 105.4375 76.789062 105.109375 77.628906 C 104.75 78.453125 104.515625 79.351562 104.1875 80.253906 C 104.039062 80.714844 103.875 81.183594 103.6875 81.652344 L 103.429688 82.378906 C 103.367188 82.625 103.109375 82.859375 101.972656 83.113281 C 100.851562 82.851562 100.609375 82.5625 100.566406 82.289062 L 100.355469 81.453125 C 100.265625 80.894531 100.171875 80.320312 100.144531 79.746094 C 100.113281 78.59375 100.234375 77.433594 100.484375 76.265625 C 100.710938 75.097656 101.078125 73.917969 101.574219 72.773438 C 102.066406 71.617188 102.867188 70.589844 103.75 69.679688 C 104.644531 68.761719 105.714844 68.039062 106.832031 67.476562 C 107.957031 66.9375 109.117188 66.542969 110.273438 66.269531 C 111.425781 66 112.554688 65.722656 113.703125 65.625 C 114.28125 65.574219 114.859375 65.59375 115.433594 65.683594 C 115.722656 65.730469 116.007812 65.792969 116.292969 65.875 C 116.4375 65.898438 116.582031 65.988281 116.71875 66.195312 C 116.855469 66.382812 116.988281 66.71875 117.082031 67.214844 C 116.917969 67.691406 116.792969 68.019531 116.667969 68.195312 C 116.542969 68.402344 116.429688 68.480469 116.3125 68.515625 L 115.609375 68.753906 C 115.144531 68.898438 114.6875 69.03125 114.234375 69.136719 C 113.324219 69.351562 112.417969 69.5625 111.613281 69.996094 C 109.980469 70.847656 108.777344 72.117188 107.78125 73.359375 Z M 103.09375 98.019531 C 103 98.4375 102.871094 98.851562 102.761719 99.277344 C 102.660156 99.695312 102.554688 100.128906 102.332031 100.546875 C 102.222656 100.765625 102.066406 100.976562 101.90625 101.179688 L 101.628906 101.488281 C 101.566406 101.59375 101.28125 101.675781 100.171875 101.59375 C 99.082031 101.3125 98.824219 101.195312 98.792969 101.101562 L 98.589844 100.820312 C 98.464844 100.625 98.347656 100.4375 98.269531 100.257812 C 98.097656 99.878906 98.039062 99.515625 97.953125 99.136719 C 97.878906 98.765625 97.742188 98.382812 97.65625 98.003906 C 97.574219 97.625 97.582031 97.246094 97.636719 96.859375 C 97.714844 96.089844 98.101562 95.300781 98.316406 94.507812 C 98.4375 94.109375 98.410156 93.71875 98.460938 93.324219 C 98.496094 93.125 98.5625 92.925781 98.671875 92.722656 L 98.871094 92.417969 C 98.890625 92.367188 98.988281 92.3125 99.183594 92.25 L 99.5625 92.152344 L 100.171875 92.035156 L 100.789062 92.070312 L 101.175781 92.121094 C 101.378906 92.160156 101.480469 92.203125 101.507812 92.253906 C 101.585938 92.347656 101.667969 92.445312 101.742188 92.542969 C 101.878906 92.738281 101.964844 92.9375 102.015625 93.136719 C 102.113281 93.535156 102.125 93.941406 102.277344 94.34375 C 102.5625 95.140625 102.996094 95.949219 103.097656 96.773438 C 103.167969 97.183594 103.179688 97.601562 103.09375 98.019531 Z M 155.953125 57.886719 C 160.042969 57.542969 164.148438 58.953125 167.535156 61.855469 C 172.078125 65.75 174.945312 71.875 175.410156 78.664062 C 176.242188 90.933594 168.894531 101.59375 159.019531 102.425781 C 158.621094 102.460938 158.214844 102.476562 157.8125 102.476562 C 154.132812 102.476562 150.492188 101.074219 147.441406 98.457031 C 142.898438 94.5625 140.027344 88.4375 139.566406 81.648438 C 138.730469 69.378906 146.082031 58.71875 155.953125 57.886719 Z M 148.242188 51.328125 C 149.238281 48.417969 151.863281 46.398438 154.929688 46.171875 C 158.007812 45.949219 160.890625 47.570312 162.296875 50.304688 C 162.554688 50.808594 162.359375 51.425781 161.851562 51.683594 C 161.351562 51.941406 160.730469 51.746094 160.472656 51.242188 C 159.441406 49.242188 157.332031 48.054688 155.082031 48.21875 C 152.835938 48.382812 150.914062 49.863281 150.183594 51.992188 C 150.039062 52.417969 149.640625 52.6875 149.214844 52.6875 C 149.105469 52.6875 148.992188 52.667969 148.882812 52.628906 C 148.34375 52.445312 148.058594 51.863281 148.242188 51.328125 Z M 175.714844 59.949219 C 176.328125 59.234375 177.40625 59.148438 178.128906 59.765625 L 181.871094 62.972656 C 182.589844 63.585938 182.671875 64.664062 182.058594 65.378906 C 181.71875 65.773438 181.242188 65.976562 180.757812 65.976562 C 180.363281 65.976562 179.96875 65.839844 179.644531 65.566406 L 175.902344 62.355469 C 175.183594 61.746094 175.097656 60.667969 175.714844 59.949219 Z M 183.585938 99.6875 C 183.882812 99.28125 184.363281 99.097656 184.832031 99.148438 L 185.980469 88.769531 C 185.761719 88.742188 185.550781 88.675781 185.359375 88.539062 C 184.734375 88.117188 184.574219 87.265625 185 86.640625 C 185.957031 85.242188 187.449219 84.152344 189.21875 83.429688 C 189.125 82.902344 189.039062 82.375 188.972656 81.835938 C 188.203125 75.445312 189.792969 69.277344 193.339844 64.925781 C 195.984375 61.679688 199.570312 59.710938 203.441406 59.382812 C 212.765625 58.589844 221.5 67.339844 222.890625 78.886719 C 223.660156 85.28125 222.070312 91.445312 218.523438 95.796875 C 215.878906 99.046875 212.292969 101.011719 208.425781 101.339844 C 208.03125 101.375 207.640625 101.390625 207.25 101.390625 C 206.421875 101.390625 205.601562 101.316406 204.792969 101.171875 C 203.917969 102.195312 202.839844 103.085938 201.574219 103.789062 C 199.761719 104.789062 197.417969 105.46875 194.769531 105.46875 C 191.457031 105.46875 187.671875 104.40625 183.871094 101.597656 C 183.261719 101.148438 183.132812 100.292969 183.585938 99.6875 Z M 194.886719 51.03125 C 196.089844 48.207031 198.855469 46.375 201.929688 46.375 C 205.007812 46.375 207.773438 48.207031 208.976562 51.03125 C 209.199219 51.554688 208.957031 52.15625 208.433594 52.378906 C 208.304688 52.433594 208.167969 52.460938 208.035156 52.460938 C 207.632812 52.460938 207.253906 52.226562 207.089844 51.835938 C 206.207031 49.765625 204.183594 48.425781 201.929688 48.425781 C 199.679688 48.425781 197.65625 49.765625 196.773438 51.835938 C 196.550781 52.355469 195.953125 52.601562 195.425781 52.378906 C 194.90625 52.15625 194.664062 51.554688 194.886719 51.03125 Z M 245.804688 124.613281 C 245.859375 124.589844 245.917969 124.578125 245.972656 124.5625 C 246.75 124.324219 247.574219 124.660156 247.964844 125.367188 C 247.992188 125.417969 248.023438 125.464844 248.046875 125.519531 C 248.136719 125.734375 248.179688 125.953125 248.179688 126.171875 C 248.1875 126.839844 247.796875 127.480469 247.136719 127.761719 L 246.867188 127.871094 L 239.757812 130.875 C 239.542969 130.96875 239.316406 131.011719 239.09375 131.011719 C 238.429688 131.011719 237.792969 130.621094 237.515625 129.96875 C 237.152344 129.097656 237.558594 128.09375 238.429688 127.726562 Z M 229.265625 167.675781 C 229.660156 168.535156 229.28125 169.546875 228.425781 169.945312 C 228.191406 170.046875 227.953125 170.097656 227.710938 170.097656 C 227.0625 170.097656 226.445312 169.730469 226.15625 169.101562 L 223.058594 162.363281 C 222.664062 161.503906 223.042969 160.492188 223.902344 160.097656 C 224.761719 159.703125 225.777344 160.078125 226.167969 160.9375 Z M 234.675781 201.230469 C 235.375 201.867188 235.425781 202.945312 234.789062 203.644531 C 234.453125 204.015625 233.988281 204.203125 233.523438 204.203125 C 233.113281 204.203125 232.699219 204.054688 232.375 203.757812 L 226.558594 198.472656 C 225.859375 197.839844 225.808594 196.757812 226.445312 196.058594 C 227.082031 195.359375 228.164062 195.308594 228.863281 195.945312 Z M 233.339844 86.300781 L 231.144531 92.902344 C 230.90625 93.621094 230.238281 94.074219 229.519531 94.074219 C 229.339844 94.074219 229.160156 94.046875 228.980469 93.988281 C 228.085938 93.6875 227.597656 92.722656 227.898438 91.828125 L 230.09375 85.222656 C 230.390625 84.328125 231.355469 83.839844 232.253906 84.140625 C 233.148438 84.4375 233.636719 85.40625 233.339844 86.300781 Z M 197.542969 222.945312 L 205.320312 220.582031 C 206.226562 220.304688 207.179688 220.816406 207.453125 221.714844 C 207.730469 222.621094 207.222656 223.574219 206.316406 223.847656 L 198.542969 226.214844 C 198.375 226.265625 198.210938 226.289062 198.042969 226.289062 C 197.308594 226.289062 196.632812 225.8125 196.410156 225.078125 C 196.132812 224.175781 196.644531 223.222656 197.542969 222.945312 Z M 173.949219 203.5625 L 176.90625 196.257812 C 177.261719 195.382812 178.261719 194.960938 179.132812 195.316406 C 180.007812 195.667969 180.429688 196.664062 180.078125 197.539062 L 177.121094 204.84375 C 176.847656 205.507812 176.210938 205.910156 175.53125 205.910156 C 175.320312 205.910156 175.101562 205.875 174.894531 205.789062 C 174.015625 205.433594 173.59375 204.4375 173.949219 203.5625 Z M 90.347656 150.636719 C 89.707031 151.558594 89.398438 151.707031 89.203125 151.652344 C 88.996094 151.628906 88.78125 151.621094 88.566406 151.574219 C 88.152344 151.488281 87.730469 151.394531 87.335938 151.210938 C 86.53125 150.886719 85.824219 150.332031 85.148438 149.726562 C 84.484375 149.101562 83.855469 148.390625 83.355469 147.578125 C 82.851562 146.765625 82.574219 145.835938 82.453125 144.925781 C 82.179688 143.078125 82.679688 141.335938 83.222656 139.824219 C 83.507812 139.0625 83.699219 138.300781 84.023438 137.582031 C 84.1875 137.226562 84.398438 136.886719 84.65625 136.574219 C 84.792969 136.417969 84.933594 136.269531 85.089844 136.128906 C 85.148438 136.046875 85.285156 136.003906 85.503906 136.003906 L 85.910156 136.042969 C 86.097656 136.082031 86.320312 136.144531 86.519531 136.199219 L 87.011719 136.59375 L 87.300781 136.871094 C 87.445312 137.03125 87.5 137.144531 87.492188 137.226562 C 87.5 137.402344 87.503906 137.578125 87.5 137.746094 C 87.492188 138.089844 87.457031 138.410156 87.398438 138.71875 C 87.265625 139.335938 87.101562 139.9375 87.117188 140.5625 C 87.136719 141.808594 87.527344 142.941406 87.808594 143.859375 C 87.96875 144.324219 88.109375 144.753906 88.242188 145.203125 C 88.371094 145.652344 88.515625 146.128906 88.78125 146.570312 C 89.054688 147 89.363281 147.4375 89.726562 147.910156 C 89.886719 148.164062 90.085938 148.40625 90.261719 148.699219 C 90.34375 148.855469 90.453125 148.984375 90.550781 149.128906 C 90.671875 149.242188 90.675781 149.554688 90.347656 150.636719 Z M 256.234375 142.886719 C 256.15625 140.363281 256 137.347656 255.710938 133.953125 C 255.660156 133.363281 255.609375 132.765625 255.550781 132.152344 C 255.492188 131.566406 255.433594 130.964844 255.367188 130.355469 C 254.917969 126.136719 254.269531 121.464844 253.324219 116.503906 C 253.210938 115.917969 253.097656 115.328125 252.976562 114.734375 C 252.859375 114.15625 252.738281 113.570312 252.613281 112.984375 C 251.707031 108.753906 250.585938 104.351562 249.199219 99.882812 C 248.78125 98.53125 248.339844 97.167969 247.867188 95.804688 C 244.039062 84.699219 238.496094 73.359375 230.488281 63.28125 C 226.492188 58.253906 221.882812 53.539062 216.566406 49.328125 C 211.929688 45.648438 207.609375 43.742188 203.09375 43.519531 C 201.910156 43.457031 200.707031 43.511719 199.488281 43.6875 C 196.632812 44.09375 193.65625 45.121094 190.4375 46.785156 C 184.855469 49.664062 180.074219 46.707031 175.445312 43.84375 C 174.441406 43.226562 173.402344 42.585938 172.363281 42.007812 C 165.449219 38.164062 149.707031 34.964844 139.652344 50.351562 C 136.300781 55.480469 132.527344 59.730469 120.242188 59.820312 L 119.398438 59.824219 C 113.203125 59.855469 103.839844 59.902344 97.945312 65.859375 C 94.105469 69.742188 92.1875 75.773438 92.242188 83.789062 C 92.257812 85.925781 92.578125 88.261719 92.921875 90.742188 C 94.207031 100.03125 95.804688 111.589844 83.582031 125.265625 C 77.125 132.488281 74.347656 138.796875 75.085938 144.554688 C 75.785156 149.996094 79.785156 155.175781 86.976562 159.953125 C 96.914062 166.550781 100.230469 171.050781 92.792969 189.164062 C 93.730469 188.730469 94.585938 188.296875 95.3125 187.839844 C 97.496094 186.480469 101.109375 181.851562 103.546875 178.125 C 108.984375 169.808594 115.707031 168.121094 119.648438 170.078125 C 122.957031 171.71875 124.835938 174.011719 125.226562 176.882812 C 125.675781 180.175781 123.964844 183.546875 122.132812 186.101562 C 129 184.320312 133.667969 183.066406 138.128906 180.878906 C 145.019531 177.507812 151.933594 174.917969 155.855469 178.785156 C 157.675781 180.578125 158.554688 182.691406 158.46875 185.066406 C 158.390625 187.082031 157.597656 189.023438 156.597656 190.691406 C 158.609375 190.3125 160.371094 190.457031 161.867188 191.125 C 163.664062 191.933594 164.898438 193.460938 165.34375 195.425781 C 168.199219 208.066406 146.285156 216.785156 136.734375 219.949219 C 136.707031 219.953125 136.683594 219.960938 136.660156 219.96875 C 137.335938 220.046875 138.003906 220.136719 138.671875 220.253906 C 141.667969 219.695312 144.542969 218.925781 146.585938 218.152344 C 153.253906 215.621094 159.035156 216.527344 160.960938 220.410156 C 162.375 223.257812 162.429688 226.0625 161.117188 228.75 C 160.402344 230.214844 159.296875 231.554688 157.949219 232.765625 C 162.300781 237.28125 166.925781 240.613281 171.910156 242.785156 C 172.460938 243.023438 173.015625 243.246094 173.578125 243.457031 C 174.132812 243.667969 174.691406 243.863281 175.253906 244.042969 C 177.59375 244.800781 180.015625 245.3125 182.519531 245.59375 C 183.601562 245.714844 184.695312 245.792969 185.808594 245.824219 C 186.382812 245.839844 186.960938 245.84375 187.546875 245.839844 C 187.945312 245.835938 188.347656 245.828125 188.75 245.8125 C 188.933594 245.804688 189.121094 245.796875 189.300781 245.789062 C 191.871094 245.660156 194.527344 245.3125 197.277344 244.75 C 198.691406 244.460938 200.128906 244.125 201.59375 243.71875 C 222.847656 237.875 244.8125 218.550781 252.996094 181.511719 C 254.667969 173.9375 255.761719 165.617188 256.160156 156.523438 C 256.347656 152.15625 256.378906 147.617188 256.234375 142.886719 " fill-opacity="1" fill-rule="nonzero"/></svg>