<svg width="2536" height="695" viewBox="0 0 2536 695" fill="none" xmlns="http://www.w3.org/2000/svg">
<g filter="url(#filter0_d_428_2644)">
<path d="M1896.92 600.461C1923.41 572.972 1913.84 557.473 1910.94 553.022C1910.28 552.022 1907.99 549.156 1907.54 548.685C1905.18 546.149 1900.83 541.537 1892.25 540.214C1882.93 538.775 1866.27 540.8 1839.95 558.671C1792.05 591.206 1736.6 610.135 1686.98 612.395C1697.35 616.147 1707.43 619.454 1717.22 622.339C1728.27 625.609 1739.95 626.318 1751.24 624.384C1809.23 614.451 1869.02 571.14 1869.69 570.651C1873.2 568.076 1878.39 568.655 1881.28 571.931C1884.17 575.215 1883.67 579.955 1880.16 582.53C1877.57 584.421 1828.13 620.272 1773.14 635.133C1782.25 636.588 1791.03 637.671 1799.48 638.415C1810.34 639.379 1821.27 638.588 1831.71 636.006C1849.67 631.563 1876.39 621.752 1896.92 600.461ZM1424.67 360.341C1428.99 359.113 1433.66 361.336 1435.1 365.315C1435.15 365.457 1440.22 378.694 1461.8 378.803C1482.55 378.895 1487.47 366.84 1487.97 365.468L1487.93 365.566L1487.94 365.565C1488 365.411 1488.04 365.257 1488.11 365.111C1489.8 361.269 1494.6 359.494 1498.83 361.134C1502.74 362.65 1504.78 366.559 1503.73 370.168L1503.74 370.175C1503.74 370.175 1503.72 370.2 1503.73 370.208C1503.63 370.492 1503.54 370.775 1503.42 371.06C1503.4 371.101 1503.37 371.142 1503.36 371.182C1501.71 375.182 1494.34 389.556 1472.66 393.092C1471.28 393.321 1470.32 394.43 1470.42 395.714C1471.38 408.611 1475.51 434.553 1492.22 465.483C1510.77 499.816 1548.39 545.902 1624.29 585.156C1639.21 592.865 1655.91 597.201 1672.88 597.557C1722.21 598.612 1780.16 580.269 1829.94 546.47C1854.73 529.642 1876.48 522.525 1894.61 525.318C1909.14 527.568 1917 535.425 1920.86 540.072C1921.29 540.6 1923.41 543.336 1924.03 544.169C1929.14 550.882 1944 574.695 1909.38 610.6C1898.5 621.897 1886.24 630.302 1874.21 636.569C1874.21 636.561 1874.2 636.569 1874.2 636.569C1887.79 634.533 1899.8 631.692 1910.2 628.536C1945.68 617.792 1968.58 601.917 1979.12 593.329C1980.17 592.489 1980.33 591.067 1979.53 590.008C1965.14 570.811 1974.36 553.974 1974.82 553.181C1976.89 549.517 1981.86 548.159 1985.91 550.158C1989.96 552.15 1991.55 556.739 1989.47 560.403C1989.4 560.518 1982.65 572.867 1997.99 587.107C2012.75 600.808 2025.69 595.834 2027.12 595.228L2027.08 595.245C2029.45 594.179 2032.38 594.164 2034.97 595.562C2038.13 597.275 2039.76 600.798 2038.87 604.009C2038.25 606.242 2036.66 607.903 2034.65 608.811C2033.53 609.318 2020.16 615.068 2003.58 608.631C2000.65 607.486 1997.61 605.952 1994.51 603.941C1993.45 603.245 1992.01 603.308 1991.05 604.105C1979.7 613.523 1955.24 630.739 1916.75 642.572C1885.14 652.289 1850.51 656.349 1813.84 654.636C1813.48 654.618 1813.12 654.592 1812.74 654.574C1812.72 654.567 1812.69 654.568 1812.65 654.569C1812.46 654.576 1812.28 654.559 1812.1 654.542C1812.06 654.536 1812.03 654.537 1812.01 654.53C1785.47 653.153 1757.81 648.737 1729.32 641.367C1728.84 641.282 1728.38 641.163 1727.93 641.012C1708.57 635.937 1688.84 629.532 1668.79 621.745C1668.76 621.731 1668.72 621.724 1668.69 621.717C1657.89 617.518 1647.44 613.096 1637.38 608.469C1633.15 606.533 1628.99 604.554 1624.9 602.54C1592.85 586.774 1564.82 568.767 1541.21 548.72C1513.99 525.616 1492.55 499.772 1477.5 471.924C1459.18 438.03 1454.84 409.615 1453.9 395.421C1453.83 394.232 1452.85 393.236 1451.56 393.013C1447.87 392.385 1444.56 391.454 1441.62 390.31C1424.79 383.778 1419.76 370.524 1419.49 369.79C1418.04 365.795 1420.35 361.57 1424.67 360.341Z" fill="#5A5A5A"/>
</g>
<path d="M318.75 295.777C297.817 286.757 276.323 283.452 254.276 285.848C232.22 288.229 210.638 296.176 189.52 309.683C166.14 324.654 149.18 342.655 138.656 363.679C128.115 384.686 124.783 407.206 128.659 431.236C132.544 455.25 143.69 478.709 162.089 501.612C181.014 525.188 202.675 542.414 227.09 553.29C251.504 564.15 276.735 568.378 302.789 565.974C328.835 563.578 354.118 554.527 378.63 538.82C408.797 519.511 427.748 496.554 435.492 469.947C443.227 443.325 439.842 415.286 425.319 385.822L289.565 472.703L246.172 418.676L459.977 281.839L509.438 343.446C523.934 371.383 530.88 401.349 530.275 433.334C529.687 465.304 520.786 496.366 503.58 526.511C486.391 556.641 460.828 582.566 426.898 604.279C388.802 628.646 348.234 643.014 305.21 647.375C262.203 651.744 220.968 645.903 181.522 629.867C142.076 613.816 108.436 588.454 80.6011 553.791C52.7486 519.112 36.5773 482.436 32.0873 443.764C27.5797 405.099 34.534 368.267 52.9591 333.267C71.3929 298.251 99.4646 268.677 137.183 244.537C181.663 216.06 228.072 201.002 276.41 199.374C324.766 197.729 369.237 210.43 409.814 237.49L318.75 295.777Z" fill="#303030" fill-opacity="0.4"/>
<path d="M764.409 450.303C729.374 461.226 695.111 464.116 661.628 458.979C628.163 453.827 598.46 441.025 572.528 420.581C546.623 400.145 527.163 373.288 514.158 340.026C501.178 306.787 497.942 274.896 504.441 244.343C510.922 213.775 525.69 187.121 548.745 164.383C571.774 141.645 600.819 124.818 635.881 113.895C670.933 102.957 705.406 99.9892 739.292 105C773.196 110.012 803.329 122.681 829.69 142.992C856.069 163.287 875.749 190.058 888.728 223.296C901.724 256.558 904.759 288.536 897.813 319.229C890.885 349.907 875.792 376.654 852.526 399.471C829.252 422.296 799.882 439.24 764.409 450.303ZM736.416 378.706C753.061 373.507 767.303 365.011 779.142 353.211C790.998 341.396 798.479 326.895 801.592 309.708C804.697 292.505 802.197 273.533 794.085 252.8C782.018 221.902 763.637 200.965 738.942 190.003C714.264 179.041 688.797 177.663 662.54 185.869C636.231 194.059 617.447 209.226 606.204 231.377C594.979 253.512 595.4 280.032 607.467 310.929C619.534 341.811 637.459 362.882 661.242 374.133C685.043 385.369 710.107 386.896 736.416 378.706Z" fill="#303030" fill-opacity="0.4"/>
<path d="M1006.99 90.8289C1018.26 74.3545 1034.48 60.1822 1055.65 48.2963C1076.81 36.4182 1101.51 29.6139 1129.77 27.8756C1162.62 25.8555 1192.92 31.2504 1220.66 44.0681C1248.41 56.8701 1271.07 76.1241 1288.64 101.822C1306.2 127.528 1316.35 157.94 1319.09 193.057C1321.8 228.198 1316.44 259.792 1303.02 287.832C1289.62 315.855 1270.17 338.132 1244.68 354.669C1219.22 371.19 1190.05 380.461 1157.2 382.481C1128.94 384.219 1103.67 380.586 1081.36 371.581C1059.05 362.585 1040.57 350.644 1025.93 335.751L1042.39 548.383L945.183 554.396L905.965 47.2627L1003.17 41.2493L1006.99 90.8289ZM1219.78 199.196C1218.17 178.548 1212.03 160.978 1201.36 146.485C1190.72 131.976 1177.33 121.272 1161.2 114.382C1145.08 107.475 1128.01 104.578 1109.98 105.706C1092.39 106.794 1076.15 111.845 1061.26 120.865C1046.38 129.869 1034.79 142.303 1026.5 158.167C1018.19 174.038 1014.83 192.306 1016.43 212.977C1018.04 233.648 1024.18 251.336 1034.84 266.033C1045.51 280.738 1058.91 291.645 1075.04 298.762C1091.18 305.864 1108.04 308.871 1125.63 307.783C1143.66 306.655 1160.11 301.487 1174.98 292.279C1189.86 283.055 1201.44 270.504 1209.75 254.633C1218.04 238.769 1221.39 220.29 1219.78 199.196Z" fill="#303030" fill-opacity="0.4"/>
<path d="M1466.09 102.324C1481.43 85.9361 1499.94 73.9406 1521.62 66.3376C1543.31 58.719 1567.02 56.6128 1592.72 60.011L1577.71 150.401L1552.24 147.018C1521.93 143.009 1498.03 146.352 1480.54 157.04C1463.07 167.713 1451.71 188.822 1446.48 220.369L1418.35 390.03L1321.95 377.283L1378.43 36.7402L1474.82 49.4875L1466.09 102.324Z" fill="#303030" fill-opacity="0.4"/>
<path d="M2385.16 528.252L2334.12 488.789L2134.07 695L2059.39 637.214L2259.44 431.003L2226.29 405.383L2278.7 351.388L2311.85 377.008L2324.58 363.853C2355.56 331.907 2388.51 316.294 2423.43 316.998C2458.34 317.687 2495.87 334.381 2536 367.079L2482.22 422.484C2464.63 408.351 2449.6 401.39 2437.11 401.594C2424.64 401.805 2411.27 409.267 2396.98 423.988L2386.53 434.793L2437.57 474.256L2385.16 528.252Z" fill="#303030" fill-opacity="0.4"/>
<path d="M287.992 268.314C267.059 259.294 245.565 255.989 223.518 258.385C201.462 260.766 179.88 268.713 158.763 282.22C135.383 297.191 118.422 315.192 107.898 336.216C97.3573 357.224 94.0249 379.743 97.9011 403.773C101.786 427.788 112.932 451.246 131.331 474.149C150.256 497.725 171.917 514.951 196.332 525.827C220.747 536.687 245.977 540.915 272.032 538.512C298.078 536.116 323.361 527.064 347.872 511.357C378.039 492.048 396.991 469.091 404.734 442.484C412.469 415.862 409.084 387.823 394.561 358.359L258.807 445.241L215.415 391.214L429.219 254.376L478.68 315.983C493.176 343.92 500.122 373.886 499.517 405.871C498.929 437.841 490.028 468.903 472.822 499.048C455.633 529.178 430.07 555.103 396.14 576.816C358.045 601.183 317.476 615.551 274.452 619.912C231.446 624.281 190.211 618.44 150.765 602.404C111.319 586.353 77.6782 560.991 49.8433 526.328C21.9908 491.649 5.81953 454.973 1.32945 416.301C-3.17816 377.636 3.77619 340.804 22.2013 305.804C40.6351 270.788 68.7068 241.214 106.425 217.074C150.905 188.597 197.314 173.54 245.652 171.911C294.008 170.267 338.479 182.967 379.057 210.027L287.992 268.314Z" fill="#5A5A5A"/>
<path d="M733.65 422.841C698.615 433.763 664.352 436.653 630.87 431.516C597.404 426.364 567.702 413.562 541.77 393.118C515.864 372.682 496.404 345.825 483.399 312.563C470.42 279.324 467.184 247.433 473.682 216.88C480.163 186.312 494.931 159.659 517.986 136.92C541.015 114.182 570.061 97.3553 605.122 86.4324C640.174 75.4939 674.648 72.5263 708.534 77.5375C742.437 82.5487 772.57 95.2177 798.931 115.529C825.311 135.824 844.99 162.595 857.969 195.833C870.966 229.095 874 261.073 867.054 291.766C860.126 322.444 845.034 349.192 821.768 372.008C798.493 394.833 769.123 411.777 733.65 422.841ZM705.657 351.243C722.302 346.044 736.544 337.548 748.383 325.749C760.24 313.933 767.72 299.432 770.833 282.245C773.938 265.043 771.439 246.07 763.327 225.337C751.26 194.439 732.878 173.502 708.183 162.54C683.505 151.578 658.038 150.2 631.782 158.406C605.473 166.596 586.688 181.763 575.445 203.914C564.22 226.049 564.641 252.569 576.708 283.467C588.775 314.348 606.7 335.419 630.484 346.67C654.285 357.906 679.348 359.433 705.657 351.243Z" fill="#FF8181"/>
<path d="M976.233 63.366C987.502 46.8916 1003.72 32.7193 1024.89 20.8334C1046.05 8.95529 1070.75 2.15101 1099.01 0.412755C1131.86 -1.60739 1162.16 3.78749 1189.9 16.6052C1217.65 29.4073 1240.31 48.6612 1257.88 74.3593C1275.44 100.065 1285.59 130.477 1288.33 165.594C1291.04 200.736 1285.68 232.33 1272.26 260.369C1258.86 288.392 1239.41 310.669 1213.93 327.206C1188.46 343.727 1159.29 352.998 1126.44 355.018C1098.18 356.756 1072.91 353.123 1050.6 344.119C1028.29 335.122 1009.81 323.181 995.175 308.288L1011.63 520.92L914.424 526.933L875.206 19.7998L972.409 13.7864L976.233 63.366ZM1189.02 171.733C1187.41 151.085 1181.27 133.515 1170.6 119.022C1159.96 104.513 1146.57 93.809 1130.44 86.9186C1114.32 80.0126 1097.25 77.1155 1079.22 78.243C1061.63 79.3314 1045.39 84.3817 1030.5 93.4019C1015.63 102.406 1004.03 114.84 995.736 130.704C987.432 146.575 984.073 164.843 985.669 185.514C987.282 206.185 993.421 223.873 1004.09 238.57C1014.75 253.275 1028.15 264.182 1044.29 271.3C1060.42 278.401 1077.28 281.408 1094.87 280.32C1112.9 279.192 1129.35 274.024 1144.22 264.816C1159.1 255.593 1170.68 243.041 1178.99 227.17C1187.28 211.306 1190.63 192.827 1189.02 171.733Z" fill="#5A5A5A"/>
<path d="M1435.33 74.8605C1450.67 58.4723 1469.18 46.4767 1490.86 38.8738C1512.55 31.2552 1536.26 29.1489 1561.96 32.5471L1546.95 122.937L1521.48 119.554C1491.17 115.545 1467.27 118.889 1449.78 129.577C1432.31 140.249 1420.96 161.358 1415.72 192.906L1387.59 362.566L1291.19 349.819L1347.67 9.27637L1444.06 22.0236L1435.33 74.8605Z" fill="#5A5A5A"/>
<path d="M2354.4 500.789L2303.36 461.326L2103.31 667.537L2028.63 609.751L2228.68 403.54L2195.53 377.921L2247.94 323.925L2281.09 349.545L2293.82 336.39C2324.81 304.444 2357.75 288.831 2392.67 289.536C2427.59 290.225 2465.11 306.918 2505.24 339.616L2451.47 395.021C2433.87 380.888 2418.84 373.927 2406.36 374.131C2393.88 374.342 2380.51 381.804 2366.23 396.525L2355.77 407.33L2406.81 446.793L2354.4 500.789Z" fill="#5A5A5A"/>
<g filter="url(#filter1_d_428_2644)">
<path fill-rule="evenodd" clip-rule="evenodd" d="M1567.97 150.397C1614.07 97.948 1686.39 73.4262 1752.12 93.9737C1838.77 121.064 1881.15 216.235 1846.79 306.54C1812.42 396.846 1714.3 448.096 1627.66 421.005C1560.38 399.973 1519.78 337.906 1521.07 268.938L1660.58 240.308L1567.97 150.397Z" fill="#5A5A5A"/>
</g>
<g filter="url(#filter2_d_428_2644)">
<path fill-rule="evenodd" clip-rule="evenodd" d="M1884.76 258.751C1931.97 207.176 2004.8 183.887 2070.12 205.448C2156.3 233.894 2196.78 329.639 2160.54 419.296C2124.3 508.954 2025.06 558.578 1938.88 530.131C1871.92 508.029 1832.54 445.301 1835.31 376.367L1975.57 349.992L1884.76 258.751Z" fill="#5A5A5A"/>
</g>
<g filter="url(#filter3_d_428_2644)">
<path d="M820.517 370.793C815.378 371.224 811.958 375.859 812.782 380.996C813.606 386.156 818.412 389.89 823.525 389.397C934.47 378.631 1019.89 397.619 1031.23 435.586C1045.08 482.01 945.52 558.956 775.23 599.492C604.967 640.012 475.72 617.524 461.864 571.1C450.507 533.078 514.157 478.581 616.684 438.554C621.367 436.722 623.436 431.327 621.288 426.511C619.148 421.68 613.588 419.19 608.879 421.093C494.119 465.888 429.363 526.477 443.956 575.36C463.1 639.472 611.01 658.068 780.668 617.689C950.369 577.302 1068.3 495.431 1049.16 431.319C1034.58 382.468 944.809 358.727 820.517 370.793ZM602.292 527.377C611.825 559.332 705.152 546.224 758.77 533.461C812.414 520.698 900.672 490.576 891.139 458.63C884.404 436.087 836.443 436.792 797.409 441.341C792.796 441.944 789.648 446.173 790.49 450.91C791.358 455.662 795.865 459.076 800.531 458.52C855.683 452.092 873.117 460.235 874.635 462.357C874.617 471.252 833.093 497.733 753.745 516.619C674.423 535.497 623.629 530.987 618.779 523.69C618.815 520.745 629.47 505.9 681.255 486.834C685.622 485.244 687.621 480.304 685.727 475.778C683.85 471.283 678.799 469.02 674.397 470.547C637.792 483.999 595.549 504.796 602.292 527.377Z" fill="#FF8181"/>
</g>
<path d="M641.282 137.937C570.318 154.826 529.346 224.028 549.797 292.525C583.332 404.83 745.58 487.272 745.58 487.272C745.58 487.272 840.898 345.557 806.801 231.357C786.35 162.86 712.273 121.04 641.282 137.937ZM680.606 269.669C658.559 274.923 635.871 263.178 629.97 243.407C624.076 223.675 637.196 203.372 659.251 198.126C681.325 192.872 704.038 204.641 709.931 224.372C715.833 244.143 702.688 264.415 680.606 269.669Z" fill="#FF8181"/>
<path d="M641.361 137.913L659.339 198.11C681.386 192.903 704.047 204.664 709.931 224.372C715.825 244.119 702.723 264.352 680.693 269.645L745.642 487.171C747.001 485.135 840.652 344.751 806.801 231.357C786.359 162.891 712.326 121.079 641.361 137.913Z" fill="#FF8181"/>
<path d="M654.007 180.594C621.147 188.417 601.582 218.656 610.369 248.073C619.165 277.538 652.972 295.022 685.832 287.2C718.736 279.37 738.31 249.177 729.514 219.713C720.735 190.296 686.911 172.764 654.007 180.594ZM680.605 269.669C658.558 274.923 635.871 263.178 629.969 243.407C624.076 223.675 637.195 203.372 659.251 198.126C681.324 192.872 704.038 204.64 709.931 224.372C715.833 244.143 702.687 264.415 680.605 269.669Z" fill="#FF8181"/>
<defs>
<filter id="filter0_d_428_2644" x="1419.06" y="360.003" width="664.055" height="303.015" filterUnits="userSpaceOnUse" color-interpolation-filters="sRGB">
<feFlood flood-opacity="0" result="BackgroundImageFix"/>
<feColorMatrix in="SourceAlpha" type="matrix" values="0 0 0 0 0 0 0 0 0 0 0 0 0 0 0 0 0 0 127 0" result="hardAlpha"/>
<feOffset dx="40" dy="4"/>
<feGaussianBlur stdDeviation="2"/>
<feComposite in2="hardAlpha" operator="out"/>
<feColorMatrix type="matrix" values="0 0 0 0 0 0 0 0 0 0 0 0 0 0 0 0 0 0 0.25 0"/>
<feBlend mode="normal" in2="BackgroundImageFix" result="effect1_dropShadow_428_2644"/>
<feBlend mode="normal" in="SourceGraphic" in2="effect1_dropShadow_428_2644" result="shape"/>
</filter>
<filter id="filter1_d_428_2644" x="1521.04" y="86.7305" width="381.68" height="349.518" filterUnits="userSpaceOnUse" color-interpolation-filters="sRGB">
<feFlood flood-opacity="0" result="BackgroundImageFix"/>
<feColorMatrix in="SourceAlpha" type="matrix" values="0 0 0 0 0 0 0 0 0 0 0 0 0 0 0 0 0 0 127 0" result="hardAlpha"/>
<feOffset dx="40" dy="4"/>
<feGaussianBlur stdDeviation="2"/>
<feComposite in2="hardAlpha" operator="out"/>
<feColorMatrix type="matrix" values="0 0 0 0 0 0 0 0 0 0 0 0 0 0 0 0 0 0 0.25 0"/>
<feBlend mode="normal" in2="BackgroundImageFix" result="effect1_dropShadow_428_2644"/>
<feBlend mode="normal" in="SourceGraphic" in2="effect1_dropShadow_428_2644" result="shape"/>
</filter>
<filter id="filter2_d_428_2644" x="1835.17" y="197.427" width="382.652" height="348.725" filterUnits="userSpaceOnUse" color-interpolation-filters="sRGB">
<feFlood flood-opacity="0" result="BackgroundImageFix"/>
<feColorMatrix in="SourceAlpha" type="matrix" values="0 0 0 0 0 0 0 0 0 0 0 0 0 0 0 0 0 0 127 0" result="hardAlpha"/>
<feOffset dx="40" dy="4"/>
<feGaussianBlur stdDeviation="2"/>
<feComposite in2="hardAlpha" operator="out"/>
<feColorMatrix type="matrix" values="0 0 0 0 0 0 0 0 0 0 0 0 0 0 0 0 0 0 0.25 0"/>
<feBlend mode="normal" in2="BackgroundImageFix" result="effect1_dropShadow_428_2644"/>
<feBlend mode="normal" in="SourceGraphic" in2="effect1_dropShadow_428_2644" result="shape"/>
</filter>
<filter id="filter3_d_428_2644" x="441.92" y="367.69" width="663.275" height="279.308" filterUnits="userSpaceOnUse" color-interpolation-filters="sRGB">
<feFlood flood-opacity="0" result="BackgroundImageFix"/>
<feColorMatrix in="SourceAlpha" type="matrix" values="0 0 0 0 0 0 0 0 0 0 0 0 0 0 0 0 0 0 127 0" result="hardAlpha"/>
<feOffset dx="50" dy="4"/>
<feGaussianBlur stdDeviation="2"/>
<feComposite in2="hardAlpha" operator="out"/>
<feColorMatrix type="matrix" values="0 0 0 0 0 0 0 0 0 0 0 0 0 0 0 0 0 0 0.25 0"/>
<feBlend mode="normal" in2="BackgroundImageFix" result="effect1_dropShadow_428_2644"/>
<feBlend mode="normal" in="SourceGraphic" in2="effect1_dropShadow_428_2644" result="shape"/>
</filter>
</defs>
</svg>
